<svg width="191" height="41" viewBox="0 0 191 41" fill="none" xmlns="http://www.w3.org/2000/svg">
<g clip-path="url(#clip0_26_3812)">
<path d="M109.632 12.2956C111.323 5.56754 107.199 0 97.0973 0H75.203L67 32.9058L71.7616 41H87.3368C97.5423 41 105.449 36.2845 107.481 28.0874C108.504 23.8861 107.318 20.948 104.648 19.479V19.3762C107.18 17.7519 108.969 15.2102 109.632 12.2956ZM96.2815 27.823C95.8661 29.5417 94.6943 31.3045 89.8437 31.3045H79.9052L81.6407 24.2533H91.5347C96.326 24.2386 96.682 26.0455 96.2221 27.823H96.2815ZM98.2692 12.5159C97.9131 13.8381 96.8896 15.454 92.7066 15.454H83.8064L85.2898 9.72483H94.1899C98.4175 9.69545 98.6252 11.0469 98.2692 12.5159Z" fill="white"/>
<path d="M124.806 25.129H145.027L147.329 15.4301H127.243L128.808 9.69892H148.698L151 0H118.351L108 41H144.982L147.404 31.3011H123.316L124.806 25.129Z" fill="white"/>
<path d="M153.305 0L151 9.69892H163.021L155.132 41H167.751L175.656 9.69892H188.53L191 0H153.305Z" fill="white"/>
<path d="M12.9293 41H0.469089L5.86361 19.1039L7.10962 15.7975L3.81134 19.1039L0.14659 22.8219L0 11.8885L12.9293 0H23L12.9293 41Z" fill="white"/>
<path d="M58.4694 23.995L54.438 17.2547L74 0H55.7769L48.3388 7.04871L23.1091 29.8836L11 40.9706H28.2413L41.1983 29.5605L45.557 36.9029C47.0446 38.7532 49.1421 41 58.038 41H68.4512L58.4843 23.9803L58.4694 23.995Z" fill="white"/>
<path d="M47 4.838V4.74923C45.9001 3.20052 44.4325 1.95542 42.7318 1.12818C41.0312 0.300931 39.1519 -0.0819629 37.2664 0.0146302H24L33.8948 17L47 4.838Z" fill="white"/>
</g>
<defs>
<clipPath id="clip0_26_3812">
<rect width="191" height="41" fill="white"/>
</clipPath>
</defs>
</svg>
