<svg width="415" height="108" viewBox="0 0 415 108" fill="none" xmlns="http://www.w3.org/2000/svg">
<path d="M210.771 75.1736H178.647L172.518 90H156.11L186.949 20.8099H202.764L233.702 90H216.899L210.771 75.1736ZM205.73 63.0159L194.758 36.5259L183.786 63.0159H205.73ZM229.514 20.8099H245.526V76.9527H280.22V90H229.514V20.8099ZM323.946 75.1736H291.822L285.694 90H269.286L300.125 20.8099H315.94L346.877 90H330.074L323.946 75.1736ZM318.905 63.0159L307.933 36.5259L296.962 63.0159H318.905ZM406.146 20.8099V90H393L358.504 47.9917V90H342.689V20.8099H355.934L390.331 62.8182V20.8099H406.146ZM381.831 15.4724C380.052 15.4724 378.47 15.1429 377.086 14.484C375.768 13.7591 374.286 12.8036 372.638 11.6175C371.584 10.8268 370.694 10.2337 369.97 9.83834C369.311 9.44297 368.652 9.24528 367.993 9.24528C366.609 9.24528 365.489 9.7395 364.632 10.7279C363.775 11.6505 363.314 13.0013 363.248 14.7805H355.44C355.571 10.3655 356.659 6.87305 358.701 4.30313C360.81 1.66732 363.578 0.349411 367.004 0.349411C368.718 0.349411 370.233 0.711837 371.551 1.43669C372.935 2.09564 374.483 3.05112 376.197 4.30313C377.251 5.09388 378.108 5.68694 378.767 6.08231C379.491 6.47768 380.183 6.67536 380.842 6.67536C382.16 6.67536 383.247 6.2141 384.104 5.29156C385.027 4.30313 385.521 2.98523 385.587 1.33785H393.395C393.264 5.62104 392.143 9.0476 390.035 11.6175C387.992 14.1874 385.257 15.4724 381.831 15.4724Z" fill="white"/>
<path fill-rule="evenodd" clip-rule="evenodd" d="M35.8451 69.4005L66.0356 70.4875L37.4767 71.5239C43.4591 78.6775 52.3885 83 62.0135 83C77.8613 83 91.0531 71.448 93.5826 56.1929L67.4901 55.2955L93.8229 54.3855C93.9241 53.4882 93.9747 52.6034 94 51.7061C93.8609 44.9569 91.6348 38.4099 87.6255 32.9626C91.6728 39.1809 93.532 46.562 92.9249 53.9558C93.7091 42.2269 87.752 31.0667 77.5704 25.1896C67.3889 19.3126 54.741 19.7296 44.9642 26.2766C51.9838 21.1452 60.8373 19.1988 69.3746 20.8924C60.4579 18.9081 51.1111 20.6649 43.5097 25.7205C51.2882 19.8055 61.3432 17.9096 70.7279 20.2099C60.0405 17.1766 48.5815 19.9571 40.4742 27.313L49.5428 27.5405L64.6443 27.9197L49.5428 28.2988L39.1589 28.5642C38.4253 29.3099 37.7296 30.0809 37.072 30.9024L35.6048 32.8994C28.1173 43.8447 28.0667 58.3541 35.8451 69.4005Z" fill="#00ABC2"/>
<path fill-rule="evenodd" clip-rule="evenodd" d="M93.3019 50.1597C93.6282 50.3485 93.9544 50.5373 94.2806 50.5247C95.2092 50.4744 96.5643 51.3052 96.9282 50.7513C97.0537 50.059 98.4214 50.2604 97.8693 48.6869C97.2419 48.2715 97.4552 46.8365 96.8278 46.4211C96.1377 45.9679 94.6194 46.5343 93.9419 46.0812C90.3783 45.2504 87.2163 42.8838 82.009 40.8572C82.1344 40.5425 82.2976 40.2278 82.1595 40.0893C81.4192 39.4221 80.9424 39.3592 80.3276 40.2152C80.0264 40.6306 79.7755 41.2348 79.5747 42.0279C79.6123 41.3733 79.788 40.7187 80.0891 40.1271C79.7378 40.6432 79.4994 41.2222 79.3739 41.839C80.4405 35.9982 71.105 38.8683 66.7133 34.5884C67.83 36.187 69.4612 37.3451 71.3434 37.8361C65.2326 37.3325 65.3456 31.4288 59.1344 32.2218C58.4067 33.0652 57.4656 33.7072 56.4116 34.0597C58.2937 33.1282 59.7242 31.2903 60.728 28.5461C62.7231 28.6217 62.0831 27.2244 62.4972 26.3684C63.0493 25.2103 63.752 24.4551 62.4847 24.09C64.8687 12.8867 55.5458 17.7205 54.5796 13C54.3537 14.1329 54.9435 15.2658 55.9849 15.7442C55.0188 15.5931 54.153 15.0267 53.6511 14.1833C53.6134 14.9763 53.902 15.7568 54.4541 16.3358C51.4928 16.8267 50.0373 18.9919 50.0749 22.8186C48.4688 22.4787 49.2468 23.9893 49.3472 25.3488C49.435 26.6454 49.1966 27.4258 50.6145 27.3755C50.6145 27.3755 50.6647 27.3629 50.7525 27.3503C50.6898 28.7727 51.0035 30.1952 51.6434 31.454C51.4301 31.177 51.2419 30.8875 51.0913 30.5728C49.2217 30.598 48.0799 33.1282 44.7296 33.3925C41.0531 34.4373 42.609 37.6095 37.8158 43.0727C39.309 41.8768 40.5387 40.404 41.4296 38.7172C38.8196 45.1371 33.148 46.056 35.3815 49.9457C34.8796 49.7946 34.4279 49.5177 34.064 49.1401C34.4154 49.6813 34.9173 50.0967 35.507 50.3485C34.6036 50.1093 33.7754 49.631 33.123 48.9764C32.8469 48.8254 31.8556 50.1597 32.3575 50.4996C29.9609 54.0997 28.154 58.0523 26.9997 62.219C26.1966 63.012 25.2053 63.591 25.0297 64.3086C24.8791 64.8876 25.3308 65.6681 25.7323 66.2723C26.5354 67.5311 26.5228 68.4752 28.3799 67.443C29.4716 66.8387 29.7351 66.159 29.1704 65.3911C29.9609 64.5226 29.9609 63.1882 29.183 62.3071C29.6096 62.4833 29.8229 62.5714 29.8229 62.5714C30.8393 60.3685 32.1442 58.3041 33.7127 56.4537C32.8469 57.5866 32.094 58.795 31.4792 60.079C33.0351 57.4607 35.1557 55.2075 37.6778 53.4955C38.2173 54.0368 38.7945 54.2382 39.3843 54.062C41.3417 50.9779 44.1524 51.6702 44.3155 49.0645C44.9304 50.5247 43.9893 52.0856 43.4497 53.634C41.944 57.9265 48.2179 59.5 51.2544 59.8021C49.6609 59.8021 48.0673 59.6132 46.5239 59.2356C45.4825 59.6636 44.3657 60.7462 44.0897 61.8539C43.776 63.1756 44.9555 63.8932 44.7422 65.7184C45.0182 64.7491 45.0433 63.7295 44.7924 62.7602C46.022 65.4415 43.2741 68.5759 46.7749 67.8961C46.1475 68.0975 45.6205 68.5255 45.2817 69.092C45.884 68.5507 46.6369 68.1982 47.4399 68.0975C45.7209 68.5129 44.4912 70.0109 44.3908 71.7858C44.3406 73.2334 44.2528 74.3789 45.0308 75.5748C44.7422 74.8573 44.7547 74.0516 45.0559 73.3341C44.6167 75.7636 46.0095 75.965 46.0471 77.3623C46.0471 77.3623 46.1977 77.0476 46.5114 76.4182C45.884 78.3316 45.7962 80.4463 46.7122 82.2842C47.2768 82.0576 47.8665 81.9443 48.4688 81.9569C46.9882 82.3345 46.2604 82.7625 46.2981 83.2409C46.3357 83.5178 46.4988 83.8073 46.4988 84.0339C46.5239 84.9025 46.7247 85.4689 47.0886 85.7081C46.6118 87.118 48.0171 90.4286 51.3046 95.64C49.7111 99.1395 50.8278 103.394 54.1153 105.622C56.0477 106.931 58.3314 107.284 60.4394 106.78C63.9778 105.861 66.3494 102.538 66.0859 98.8877C65.9729 101.443 64.6178 103.797 62.4596 105.157C64.1284 103.835 65.2075 101.909 65.4836 99.794C65.0193 102.01 63.614 103.898 61.6189 104.968C64.6429 103.18 65.8851 99.4416 64.5299 96.1939C63.1748 92.9462 59.6489 91.209 56.261 92.1154C59.3603 90.9825 62.836 92.0776 64.7558 94.7714C62.7231 91.7377 59.2975 90.4915 56.2484 91.3097C55.1191 91.6244 54.0651 92.2035 53.1617 93.0469C53.9898 92.0776 55.0313 91.3853 56.1732 90.9825C55.596 88.0117 54.0902 87.4452 53.4377 84.6381C53.626 85.1794 53.9271 85.6829 54.3286 86.0983C53.4126 84.3989 53.9898 82.5863 53.0362 82.3471C53.4503 82.2716 53.7138 81.8562 53.9397 81.5918C54.5294 80.7233 53.5381 79.8925 55.7716 78.9735C55.9222 77.4882 55.7591 75.9902 55.2948 74.5803C56.4241 76.4811 56.7127 78.7595 56.1104 80.8869C55.9724 81.9065 58.9337 82.7247 65.0068 83.3164C50.9031 80.4337 61.531 80.6226 62.9489 79.6785C64.555 83.4423 69.6871 86.5011 73.1251 84.1346C74.5305 83.3164 75.321 81.7429 75.1579 80.119C75.321 80.9121 75.2457 81.7429 74.9571 82.5107C75.3336 81.7555 75.5218 80.9373 75.4967 80.0939C75.6472 81.0506 75.5343 82.0324 75.1579 82.9387C77.153 81.9065 75.848 79.968 77.1906 77.3875C76.9899 78.0672 76.9648 78.7847 77.1404 79.4771C78.8218 79.9302 80.6413 84.55 83.3139 82.7373C85.5851 81.2016 84.0417 76.4308 81.8207 74.9454C80.3276 73.9509 78.5709 73.4348 77.3412 71.9746C73.8529 67.8332 70.4901 69.3437 70.578 71.8236C71.2179 73.2838 71.6069 74.8321 71.7449 76.4308C71.1301 72.2641 68.4448 71.4333 68.0684 68.4626C67.692 69.2556 67.2654 70.0361 66.8011 70.7788C67.2152 69.457 67.4912 68.0975 67.6167 66.7129C67.3281 67.5059 66.9391 68.2486 66.4498 68.9409C67.4787 65.9072 67.4285 62.6092 66.2992 59.6258C69.2354 55.8872 65.2201 55.8746 63.3505 48.4981C64.1159 50.6758 65.3706 52.6395 67.0395 54.2256C65.7847 52.4255 65.082 50.2981 65.0193 48.0953C65.4585 49.6562 66.2239 51.0912 67.2779 52.3248C66.7258 49.4548 68.4448 46.6225 71.2555 45.8042C70.5152 46.0686 69.938 46.6476 69.6745 47.3903C70.9795 45.5525 76.9271 46.4714 78.207 47.2141C79.2484 46.8616 79.8382 45.842 80.6538 44.3566C80.5158 44.8098 80.3777 45.2504 80.2146 45.691C82.9124 45.9679 85.5851 46.5092 88.1824 47.277C86.3505 46.7609 84.4809 46.4462 82.5861 46.3455C84.2299 46.5469 86.2375 46.9875 88.057 47.5666C88.4585 47.6924 88.8475 47.8183 89.2239 47.9568C90.1399 48.2841 91.0559 48.6617 91.9342 49.0771C91.9342 49.0771 91.9844 48.9764 92.0973 48.7624C92.2981 49.3163 92.7373 49.8324 93.3019 50.1597Z" fill="white"/>
<rect y="1" width="10" height="67" fill="white"/>
<rect x="113" y="1" width="10" height="67" fill="white"/>
<rect x="122" y="1" width="10" height="122" transform="rotate(90 122 1)" fill="white"/>
</svg>
