<svg width="839" height="414" viewBox="0 0 839 414" fill="none" xmlns="http://www.w3.org/2000/svg">
<g clip-path="url(#clip0_228_68)">
<path d="M836.6 158.6C834.8 157.7 832.6 156.7 832.2 154.5C831.7 152 833.9 150.6 835.2 148.8C832.2 148.8 830 150.9 827.7 152.5C824.8 154.5 821.8 155.6 818.3 155.8C813.3 156.1 807.1 155.8 803.1 152.5C800.6 150.5 800.1 147.6 798.8 144.9C797.2 141.7 794.7 140.5 791.4 139.5C785.9 137.7 783.5 134.5 780.9 129.6C775.8 120.3 764 114.3 753.7 118.9C751.1 120 749.3 122.3 746.7 123.4C743.5 124.8 740.4 123.5 737.1 123.4C734.4 123.3 731.6 124.6 728.9 124.2C725.7 123.7 724.4 120.1 721.6 118.7C718.3 117 717.9 115.1 715.7 112.3C713.6 109.7 710.6 109.2 707.6 110.7C704.4 112.3 703.1 115.8 700.5 118.1C699.1 119.4 695.5 121.1 696.1 123.5C691.8 119.2 689.6 113.5 686.9 108.3C683.8 102.3 679.9 96.5999 676.3 90.8999C669.8 80.5999 663.8 69.5999 655.1 60.8999C646 51.7999 634.6 45.5999 623.6 38.9999C622.5 38.2999 619.9 37.2999 620 35.5999C620.2 33.1999 623.1 34.2999 624.7 33.6999C626.2 33.1999 631.5 28.6999 627.9 27.7999C628.7 27.4999 629.8 25.3999 630.9 26.2999C628.8 24.5999 626 26.5999 624 27.4999C620.9 28.8999 617.7 29.9999 614.5 31.0999C611.5 32.0999 608.3 32.8999 605.4 34.1999C602.7 35.4999 600.6 37.4999 598.1 39.2999C593.2 42.7999 586.9 43.4999 582 46.9999C579.9 48.4999 578.4 50.6999 575.6 50.5999C573.6 50.4999 571.9 49.2999 570 48.6999C567.4 47.8999 565.6 48.4999 563.2 49.6999C561.1 50.6999 557.9 52.4999 555.9 50.2999C552.1 45.9999 559.7 43.0999 562.1 41.3999C563.1 40.6999 565.7 38.5999 564.1 37.1999C562.8 36.0999 558.4 38.3999 556.9 38.6999C552.7 39.2999 549.6 36.1999 545.9 34.8999C544.7 34.4999 541.9 33.4999 541.1 35.1999C540 37.3999 543.4 37.0999 543.5 38.8999C543.6 44.1999 534.7 33.8999 539.1 35.0999C539.1 32.8999 536.4 32.4999 534.9 31.4999C533.2 30.3999 531.9 27.7999 529.5 28.5999C530.4 30.0999 533.5 32.0999 531.4 33.6999C529.6 35.0999 526.2 33.0999 524.3 32.9999C521.1 32.7999 508.2 37.1999 509.8 29.3999C510.4 26.6999 513.4 25.3999 513.2 22.2999C513 19.1999 509.9 16.3999 508.7 13.5999C506.3 8.09988 505.4 3.99988 498.4 4.59988C492 4.79988 486.6 5.99988 480.1 3.89988C477.1 2.89988 474.4 0.79988 471.3 0.19988C467.7 -0.50012 466.3 1.79988 463.5 3.29988C460.6 4.89988 457.4 4.09988 454.4 4.99988C451.1 6.09988 450.6 8.69988 448.5 11.0999C444.2 16.2999 434.2 15.0999 428.2 16.0999C420.1 17.4999 412.4 18.8999 404.1 19.3999C400.6 19.5999 397.1 19.8999 393.9 21.3999C391.2 22.6999 388.9 24.6999 386.3 26.0999C380 29.5999 371.8 28.1999 364.9 28.6999C357.4 29.2999 349.4 30.6999 342.8 34.3999C339.9 36.0999 337.2 37.9999 333.6 37.7999C330 37.5999 326.9 36.0999 323.1 36.3999C320 36.5999 317.3 36.7999 314.2 36.3999C312 36.0999 309.8 35.8999 307.6 36.2999C301.3 37.3999 303.4 41.7999 301.8 46.0999C299.9 51.0999 307.8 46.3999 310.3 47.9999C313.4 49.9999 308.8 50.7999 307.3 51.3999C304.4 52.5999 303.8 54.8999 306.5 56.6999C309.9 58.9999 315.2 57.8999 319 58.7999C320.5 59.0999 322.8 59.5999 323.4 61.1999C324.3 63.2999 322.3 64.7999 320.5 65.0999C318 65.4999 315.4 64.3999 313 63.9999C309 63.1999 305.2 64.7999 301.3 64.1999C301.5 64.7999 301.8 65.2999 302.2 65.7999C299.3 67.4999 295.3 70.0999 296.5 74.0999C297.4 77.0999 301.4 78.6999 300.4 82.2999C299.3 86.0999 294.6 85.7999 291.5 86.5999C287 87.6999 282.8 90.1999 280 93.8999C280.9 94.1999 284.3 94.6999 283.6 92.7999C285.9 93.7999 287.9 96.6999 290.7 95.5999C289.3 96.1999 288.6 97.6999 287.3 98.3999C289.6 99.9999 292.6 98.8999 295.1 99.8999C297.2 100.7 298.5 102.7 300.6 103.6C303 104.7 305.7 104.3 308.2 105.2C310.7 106.1 312.6 108.1 314.7 109.6C311.3 110.2 311.6 114.3 310.8 116.8C309.5 120.9 306 123.7 302.1 125C297.9 126.5 293.5 126.2 289.3 124.9C284.5 123.3 281.5 122.1 276.9 124.9C273.3 127 271 128.4 266.8 127.5C262 126.4 257.5 123.8 253.7 120.7C251.1 118.6 248.7 116.1 245.6 114.9C241.1 113 237.7 115.2 233.8 117.2C229.8 119.2 226.9 118.4 222.9 116.7C218.6 114.9 215.3 115 210.8 115.8C206.9 116.5 203.6 117.5 201.1 120.7C198.6 123.9 196.9 127.1 192.5 127.7C188.2 128.3 184.8 126.1 181.9 123.2C179.6 121 176.1 117.4 172.7 119.6C170 121.3 170.6 125.1 168.6 127.2C165.1 130.9 165.3 124 165 122.1C164.3 118 157.9 113.6 154.6 111.7C150.8 109.5 147.3 107 143.6 104.6C140.9 102.9 138.2 102.5 135.1 102.6C134.3 102.6 127.9 102.7 128.5 104.4C128 103.5 127 104.2 126.3 103.8C125.3 103.2 124.9 102.3 124.2 101.4C122.7 99.4999 120.9 97.7999 118.4 97.5999C113.6 97.2999 111.1 102.3 106.8 103.3C104 104 102.7 102.6 100.5 101.2C98.2999 99.6999 95.9999 98.6999 93.5999 97.5999C91.8999 96.7999 89.7999 95.2999 88.3999 97.3999C87.5999 98.5999 88.6999 101.3 86.4999 101.3C86.2999 101.1 87.4999 99.8999 87.5999 99.7999C85.1999 99.5999 83.9999 102.1 82.3999 103.4C81.5999 104.1 78.3999 105.7 80.2999 107.3C76.2999 104 71.8999 110.1 68.4999 111.4C65.9999 112.4 63.0999 112 61.0999 114.1C59.2999 116.1 59.1999 119.1 57.2999 121.1C54.1999 124.4 48.8999 123.1 45.6999 126.1C41.5999 130 46.5999 135.5 47.1999 139.8C47.8999 145 43.8999 148.3 38.9999 146.2C34.5999 144.3 32.5999 139.4 29.6999 135.9C25.7999 131.1 20.7999 129.7 17.4999 135.9C16.1999 138.4 15.2999 140.9 13.5999 143.2C11.5999 145.8 8.99988 148.1 7.39988 151C4.19988 157 9.99988 160.8 9.09988 166.6C8.29988 171.5 2.99988 173.7 0.899882 177.8C-1.80012 183.2 2.49988 185.7 6.99988 187C11.5999 188.3 13.6999 190.2 12.8999 195.2C12.1999 199.6 12.3999 203 17.9999 202.6C20.9999 202.4 23.4999 201.1 26.5999 201.5C29.6999 201.9 32.6999 203.4 35.3999 205.1C38.3999 207 58.0999 227.1 50.1999 229.5C48.0999 230.1 42.4999 225.8 41.6999 229.7C40.9999 233 48.5999 236.3 50.5999 237.7C51.3999 238.3 55.5999 242.6 56.6999 241.2C57.1999 240.7 56.0999 240 56.1999 239.4C56.2999 238.9 56.7999 238.5 57.0999 238.1C58.2999 236.4 64.6999 231.3 66.3999 234.7C66.7999 232.7 69.6999 233 71.1999 232.6C74.1999 231.8 76.8999 229.7 79.4999 228.1C84.0999 225.1 88.7999 221.3 94.2999 220.2C100.4 218.9 105.2 222.6 110.7 224.6C113.3 225.6 116.1 225.6 118.9 225C119.7 224.8 120.7 224.8 121.4 224.3C122.6 223.6 122.6 222.5 123.5 221.6C128.1 216.8 142.6 223.7 141.5 230.4C141.1 232.8 140.2 233.6 141.1 236.2C142 238.8 142.5 240.1 140.8 242.4C139.8 243.7 137.2 245.5 138.6 247.5C138.7 247.7 138.9 247.8 139.1 247.9C139.8 248.3 139.7 249.3 139 249.6C138.3 249.9 137.8 250.2 137.7 250.5C137.3 252.1 141.4 251.9 142.5 252.4C145.2 253.7 146.4 256.6 149.4 257.4C152.5 258.2 155.8 256.5 158.9 256.1C160.5 255.9 163.2 255.6 162.8 257.8C162.7 258.3 161.5 258.5 161.5 259.1C161.6 260.4 163.2 260.3 164 260.3C165 260.4 166.9 259.5 167.4 261.1C167.7 262.2 166.5 262.2 166.2 263C165.3 265.2 166.8 265.6 168.9 266.2C170.6 266.7 173.7 266.9 173.5 269.4C173.3 272.1 168.8 273.2 166.7 273.7C160.7 275 153.8 274.3 149.5 279.5C146.8 282.7 144.7 291.5 139.4 291.4C131.9 291.3 142.9 280.1 144.4 278.8C146.5 277.1 159.3 269.5 152.3 267.8C149.5 267.1 146.3 268 143.6 268C139.6 268.1 135.6 267.6 131.7 266.8C124.6 265.4 117.4 262.5 110.1 263.2C103.2 263.9 101.1 269.1 96.2999 273.2C91.7999 277 93.7999 279.4 97.9999 282.1C99.5999 283.2 106.5 287.5 101.3 288.7C97.5999 289.6 92.7999 286.3 89.3999 285.1C86.9999 284.2 84.0999 283.5 81.5999 284.3C78.4999 285.2 76.4999 288.1 78.2999 291.1C80.2999 294.3 84.8999 294.8 87.8999 296.6C91.1999 298.6 93.4999 302.1 95.1999 305.5C98.5999 312.3 97.5999 320.1 104.5 324.7C107.9 327 111.5 329.4 115.5 330.6C118.9 331.7 122.5 331.8 125.9 333C126.9 333.3 132.2 336.1 129.6 337.9C128.5 338.7 126.7 335.2 126.4 334.4C125 335.8 127.1 337.3 127.6 338.5C128.5 341 127.6 343.2 126.7 345.5C124.8 350.3 123.5 355.2 123.5 360.3C126.6 358.9 128.7 356.2 131.3 354.1C134 351.8 137.2 350 140.5 348.7C147.3 345.9 155.1 344.5 162.3 346.8C168.3 348.8 172.9 353.5 176.3 358.7C179.6 363.7 181.8 369.4 187.1 372.8C189.7 374.5 192.1 375.6 195 373.8C197.7 372.2 198.9 369.4 199 366.4C199.2 362.7 198.1 359.1 197.3 355.5C196.4 351.5 196 347.6 196.1 343.5C196.3 335.6 197.5 327.7 197.1 319.8C196.8 312.4 195.4 305 195 297.6C194.3 285.1 198.4 274.6 211 270.4C217.6 268.2 224.5 267.4 231.1 265.3C238.2 263 245.7 260 253.3 261.6C259.9 263 265.5 267.5 271.1 271C277.5 275 284.1 278.6 290.1 283.1C296 287.4 301.8 292.4 306.6 298C310.9 303.1 314.6 309.8 320.9 312.6C328.1 315.9 336.2 312.9 343.6 311.9C352.1 310.8 360.8 311 369.4 310.2C376.8 309.5 384.8 308.7 391 313.8C396.3 318.2 398.7 325.1 401 331.4L406.6 328.9C406.9 334.3 407.4 339.8 406.8 345.2C406.2 344.9 405.6 344.6 405 344.4C404.7 347.8 402 352.3 405.5 355C407.9 356.9 411.5 355.9 414.1 357.5C419.1 360.8 415.4 368 417.8 372.6C421.1 378.9 429.5 375.9 435 375.3C441.2 374.6 449.8 377.8 446.4 385.6C450.4 386 454.4 394.4 458.2 388.9C460.1 386.2 459.6 382.5 461.4 379.6C463.4 376.3 466.8 373.9 469.7 371.5C472.8 369 475.8 366.4 479.3 364.4C482.7 362.5 486.4 361.2 489.6 358.9C492.5 356.8 494.9 354.1 498 352.5C501 351 504.6 350.4 506.8 347.7C504.7 348.3 506.6 344.3 507 343.7C507.9 342.4 509.1 341.7 509.7 340.3C510.4 338.7 510.4 337 511.6 335.6C514.9 331.7 521.4 332.9 525.9 333.4C533.6 334.4 540.9 336.3 547.9 339.7C552.5 341.9 557.9 344.6 560.5 338.4C562.7 333.2 561.6 326.9 567.7 324.2C573.4 321.7 580.1 324.6 585.3 327.2C591.3 330.2 597.4 334.2 604.4 332.5C607.8 331.6 610.9 329.9 614.4 329.5C618.4 329 622.5 329.6 626.4 329.9C635.4 330.6 644.4 331.2 653.4 331.1C657.5 331 661.8 330.7 665.8 331.9C667.4 332.4 668.9 333.3 670.6 333.6C672.9 334 675.2 333.2 677.5 334C673.5 337.6 684.1 341.5 686.5 342.1C689.8 343 699.4 343 697 348.7C697.6 347.3 699.3 348.8 700 347.5C700.4 346.7 699.5 346 699.5 345.3C699.4 344 700 342.7 699.7 341.3C699.4 340 698.4 339 698.2 337.6C697.7 333 703.1 331.4 706.6 330.7C705.6 328.9 701.4 328.3 703.1 325.6C704.3 323.7 707.5 324.4 709.1 323C713.4 319.1 708.4 310.6 706.5 306.6C703.6 300.6 698.1 293.4 700.7 286.3C701.6 283.8 704.2 280.9 700.5 279.4C697.5 278.2 693.9 280.3 691.3 277.6C692.4 278.7 694.5 275.9 695.2 275.4C697.5 273.7 700.3 273.3 703 272.8C709.3 271.5 715.1 268.3 721.4 267.4C727.9 266.4 733.4 269.5 739.6 270.7C744.3 271.6 752.1 269.3 747 263.5C745.3 261.5 742.8 260.6 741.8 258C740.6 255.1 741.9 252 743.3 249.4C746 244.3 748.7 240 750.3 234.4C752.7 225.7 756.5 215.3 767.5 219C773 220.8 778.4 221.1 783.9 222.4C784.7 222.6 793.2 225.2 791.5 226.4C795.6 227.6 798.7 223.5 801.9 221.6C805.1 219.7 809.5 219.2 811.4 215.6C813.9 210.8 810.6 205.5 809.8 200.7C809 196.4 809.3 191.3 812.5 187.9C817.6 182.5 826.4 185 831.6 180C835.1 176.7 833.7 172.1 835.5 168.2C836.8 164.7 841.5 161.1 836.6 158.6Z" fill="#B3B3B3"/>
<path d="M838.7 160.9C838.5 160.1 837.9 159.3 836.5 158.6C834.7 157.7 832.5 156.7 832.1 154.5C831.6 152 833.8 150.6 835.1 148.8C832.1 148.8 829.9 150.9 827.6 152.5C824.7 154.5 821.7 155.6 818.2 155.8C813.2 156.1 807 155.8 803 152.5C800.5 150.5 800 147.6 798.7 144.9C797.1 141.7 794.6 140.5 791.3 139.5C785.8 137.7 783.4 134.5 780.8 129.6C775.7 120.3 763.9 114.3 753.6 118.9C751 120 749.2 122.3 746.6 123.4C743.4 124.8 740.3 123.5 737 123.4C734.3 123.3 731.5 124.6 728.8 124.2C725.6 123.7 724.3 120.1 721.5 118.7C718.2 117 717.8 115.1 715.6 112.3C713.5 109.7 710.5 109.2 707.5 110.7C704.3 112.3 703 115.8 700.4 118.1C699 119.4 695.4 121.1 696 123.5C691.7 119.2 689.5 113.5 686.8 108.3C683.7 102.3 679.8 96.5999 676.2 90.8999C669.7 80.5999 663.7 69.5999 655 60.8999C645.9 51.7999 634.5 45.5999 623.5 38.9999C622.4 38.2999 619.8 37.2999 619.9 35.5999C620.1 33.1999 623 34.2999 624.6 33.6999C626.1 33.1999 631.4 28.6999 627.8 27.7999C628.6 27.4999 629.7 25.3999 630.8 26.2999C628.7 24.5999 625.9 26.5999 623.9 27.4999C620.8 28.8999 617.6 29.9999 614.4 31.0999C611.4 32.0999 608.2 32.8999 605.3 34.1999C602.6 35.4999 600.5 37.4999 598 39.2999C593.1 42.7999 586.8 43.4999 581.9 46.9999C579.8 48.4999 578.3 50.6999 575.5 50.5999C573.5 50.4999 571.8 49.2999 569.9 48.6999C567.3 47.8999 565.5 48.4999 563.1 49.6999C561 50.6999 557.8 52.4999 555.8 50.2999C552 45.9999 559.6 43.0999 562 41.3999C563 40.6999 565.6 38.5999 564 37.1999C562.7 36.0999 558.3 38.3999 556.8 38.6999C552.6 39.2999 549.5 36.1999 545.8 34.8999C544.6 34.4999 541.8 33.4999 541 35.1999C539.9 37.3999 543.3 37.0999 543.4 38.8999C543.5 44.1999 534.6 33.8999 539 35.0999C539 32.8999 536.3 32.4999 534.8 31.4999C533.1 30.3999 531.8 27.7999 529.4 28.5999C530.3 30.0999 533.4 32.0999 531.3 33.6999C529.5 35.0999 526.1 33.0999 524.2 32.9999C521 32.7999 508.1 37.1999 509.7 29.3999C510.3 26.6999 513.3 25.3999 513.1 22.2999C512.9 19.1999 509.8 16.3999 508.6 13.5999C506.2 8.09988 505.3 3.99988 498.3 4.59988C492 4.79988 486.6 5.99988 480.1 3.89988C477.1 2.89988 474.4 0.79988 471.3 0.19988C467.7 -0.50012 466.3 1.79988 463.5 3.29988C460.6 4.89988 457.4 4.09988 454.4 4.99988C451.1 6.09988 450.6 8.69988 448.5 11.0999C444.2 16.2999 434.2 15.0999 428.2 16.0999C420.1 17.4999 412.4 18.8999 404.1 19.3999C400.6 19.5999 397.1 19.8999 393.9 21.3999C391.2 22.6999 388.9 24.6999 386.3 26.0999C380 29.5999 371.8 28.1999 364.9 28.6999C357.4 29.2999 349.4 30.6999 342.8 34.3999C339.9 36.0999 337.2 37.9999 333.6 37.7999C330 37.5999 326.9 36.0999 323.1 36.3999C320 36.5999 317.3 36.7999 314.2 36.3999C312 36.0999 309.8 35.8999 307.6 36.2999C301.3 37.3999 303.4 41.7999 301.8 46.0999C301.6 46.6999 301.5 47.1999 301.5 47.5999L301.4 64.1999C301.6 64.7999 301.9 65.2999 302.3 65.7999C299.4 67.4999 295.4 70.0999 296.6 74.0999C297.5 77.0999 301.5 78.6999 300.5 82.2999C299.4 86.0999 294.7 85.7999 291.6 86.5999C287.1 87.6999 282.9 90.1999 280.1 93.8999V116.9C281 117.2 284.4 117.7 283.7 115.8C286 116.8 288 119.7 290.8 118.6C289.4 119.2 288.7 120.7 287.4 121.4C289.7 123 292.7 121.9 295.2 122.9C296.7 123.5 297.9 124.7 299.2 125.7C295.9 126.3 292.5 125.9 289.3 124.9C284.5 123.3 281.5 122.1 276.9 124.9C273.3 127 271 128.4 266.8 127.5C262 126.4 257.5 123.8 253.7 120.7C251.1 118.6 248.7 116.1 245.6 114.9C241.1 113 237.7 115.2 233.8 117.2C229.8 119.2 226.9 118.4 222.9 116.7C218.6 114.9 215.3 115 210.8 115.8C206.9 116.5 203.6 117.5 201.1 120.7C198.6 123.9 196.9 127.1 192.5 127.7C188.2 128.3 184.8 126.1 181.9 123.2C179.6 121 176.1 117.4 172.7 119.6C170 121.3 170.6 125.1 168.6 127.2C165.1 130.9 165.3 124 165 122.1C164.3 118 157.9 113.6 154.6 111.7C150.8 109.5 147.3 107 143.6 104.6C140.9 102.9 138.2 102.5 135.1 102.6C134.3 102.6 127.9 102.7 128.5 104.4C128 103.5 127 104.2 126.3 103.8C125.3 103.2 124.9 102.3 124.2 101.4C122.7 99.4999 120.9 97.7999 118.4 97.5999C113.6 97.2999 111.1 102.3 106.8 103.3C104 104 102.7 102.6 100.5 101.2C98.2999 99.6999 95.9999 98.6999 93.5999 97.5999C91.8999 96.7999 89.7999 95.2999 88.3999 97.3999C87.5999 98.5999 88.6999 101.3 86.4999 101.3C86.2999 101.1 87.4999 99.8999 87.5999 99.7999C85.1999 99.5999 83.9999 102.1 82.3999 103.4C81.5999 104.1 78.3999 105.7 80.2999 107.3C76.2999 104 71.8999 110.1 68.4999 111.4C65.9999 112.4 63.0999 112 61.0999 114.1C59.2999 116.1 59.1999 119.1 57.2999 121.1C54.1999 124.4 48.8999 123.1 45.6999 126.1C41.5999 130 46.5999 135.5 47.1999 139.8C47.8999 145 43.8999 148.3 38.9999 146.2C34.5999 144.3 32.5999 139.4 29.6999 135.9C25.7999 131.1 20.7999 129.7 17.4999 135.9C16.1999 138.4 15.2999 140.9 13.5999 143.2C11.5999 145.8 8.9999 148.1 7.3999 151C4.1999 157 9.9999 160.8 9.0999 166.6C8.2999 171.5 2.9999 173.7 0.899902 177.8C0.0999023 179.3 -0.100098 180.6 0.0999023 181.7V203.1C-9.76548e-05 203.7 -9.76548e-05 204.2 0.0999023 204.7V204.8C0.599902 207.6 3.6999 209.1 6.9999 210C11.5999 211.3 13.6999 213.2 12.8999 218.2C12.1999 222.6 12.3999 226 17.9999 225.6C20.9999 225.4 23.4999 224.1 26.5999 224.5C29.6999 224.9 32.6999 226.4 35.3999 228.1C38.3999 230 58.0999 250.1 50.1999 252.5C48.0999 253.1 42.4999 248.8 41.6999 252.7C40.9999 256 48.5999 259.3 50.5999 260.7C51.3999 261.3 55.5999 265.6 56.6999 264.2C57.1999 263.7 56.0999 263 56.1999 262.4C56.2999 261.9 56.7999 261.5 57.0999 261.1C58.2999 259.4 69.6999 256 71.1999 255.6C74.1999 254.8 76.8999 252.7 79.4999 251.1C84.0999 248.1 88.7999 244.3 94.2999 243.2C100.4 241.9 105.2 245.6 110.7 247.6C113.3 248.6 116.1 248.6 118.9 248C119.7 247.8 120.7 247.8 121.4 247.3C122.6 246.6 122.6 245.5 123.5 244.6C126.6 241.4 134.1 243.4 138.4 247.1C138.4 247.2 138.5 247.2 138.5 247.3C138.6 247.5 138.8 247.6 139 247.7C139.7 248.1 139.6 249.1 138.9 249.4C138.2 249.7 137.7 250 137.6 250.3C137.3 251.6 139.9 251.7 141.5 252C141.6 252.4 141.6 252.9 141.5 253.3C141.1 255.7 140.2 256.5 141.1 259.1C142 261.7 142.5 263 140.8 265.3C140.3 266 139.3 266.8 138.7 267.8C136.4 267.6 134 267.3 131.7 266.8C124.6 265.4 117.4 262.5 110.1 263.2C103.2 263.9 101.1 269.1 96.2999 273.2C91.7999 277 93.7999 279.4 97.9999 282.1C99.5999 283.2 106.5 287.5 101.3 288.7C97.5999 289.6 92.7999 286.3 89.3999 285.1C86.9999 284.2 84.0999 283.5 81.5999 284.3C79.4999 284.9 77.8999 286.5 77.6999 288.3V311.7C77.6999 312.5 77.8999 313.3 78.3999 314.1C80.3999 317.3 84.9999 317.8 87.9999 319.6C91.2999 321.6 93.5999 325.1 95.2999 328.5C98.6999 335.3 97.6999 343.1 104.6 347.7C108 350 111.6 352.4 115.6 353.6C118.3 354.4 121.1 354.7 123.9 355.4C123.6 357 123.5 358.7 123.5 360.4C121.6 365.2 123.5 378.2 123.5 383.4C126.6 382 128.7 379.3 131.3 377.2C134 374.9 137.2 373.1 140.5 371.8C147.3 369 155.1 367.6 162.3 369.9C168.3 371.9 172.9 376.6 176.3 381.8C179.6 386.8 181.8 392.5 187.1 395.9C189.7 397.6 192.1 398.7 195 396.9C197.7 395.3 198.9 392.5 199 389.5C199.2 385.8 199.8 368.4 199 364.9C198.9 361.8 198 358.7 197.3 355.7C196.4 351.7 196 347.8 196.1 343.7C196.3 335.8 197.5 327.9 197.1 320C196.9 316.3 196.5 312.7 196.1 309C198.1 302 202.6 296.4 211 293.6C217.6 291.4 224.5 290.6 231.1 288.5C238.2 286.2 245.7 283.2 253.3 284.8C259.9 286.2 265.5 290.7 271.1 294.2C277.5 298.2 284.1 301.8 290.1 306.3C296 310.6 301.8 315.6 306.6 321.2C310.9 326.3 314.6 333 320.9 335.8C328.1 339.1 336.2 336.1 343.6 335.1C352.1 334 360.8 334.2 369.4 333.4C376.8 332.7 384.8 331.9 391 337C396.3 341.4 398.7 348.3 401 354.6L404 353.3C404.3 354 404.7 354.6 405.4 355.2C405.8 355.5 406.3 355.8 406.8 356C407 360.2 407.2 364.3 406.7 368.5C406.1 368.2 405.5 367.9 404.9 367.7C404.6 371.1 401.9 375.6 405.4 378.3C407.8 380.2 411.4 379.2 414 380.8C419 384.1 415.3 391.3 417.7 395.9C421 402.2 429.4 399.2 434.9 398.6C441.1 397.9 449.7 401.1 446.3 408.9C450.3 409.3 454.3 417.7 458.1 412.2C460 409.5 459.5 405.8 461.3 402.9C463.3 399.6 466.7 397.2 469.6 394.8C472.7 392.3 475.7 389.7 479.2 387.7C482.6 385.8 486.3 384.5 489.5 382.2C492.4 380.1 494.8 377.4 497.9 375.8C500.9 374.3 504.5 373.7 506.7 371C504.6 371.6 506.5 367.6 506.9 367C507.8 365.7 509 365 509.6 363.6C510.3 362 510.3 360.3 511.5 358.9C514.8 355 521.3 356.2 525.8 356.7C533.5 357.7 540.8 359.6 547.8 363C552.4 365.2 557.8 367.9 560.4 361.7C562.6 356.5 561.5 350.2 567.6 347.5C573.3 345 580 347.9 585.2 350.5C591.2 353.5 597.3 357.5 604.3 355.8C607.7 354.9 610.8 353.2 614.3 352.8C618.3 352.3 622.4 352.9 626.3 353.2C635.3 353.9 644.3 354.5 653.3 354.4C657.4 354.3 661.7 354 665.7 355.2C667.3 355.7 668.8 356.6 670.5 356.9C672.8 357.3 675.1 356.5 677.4 357.3C673.4 360.9 684 364.8 686.4 365.4C689.7 366.3 699.3 366.3 696.9 372C697.5 370.6 699.2 372.1 699.9 370.8C700.3 370 699.4 369.3 699.4 368.6C699.3 367.3 699.9 366 699.6 364.6C699.3 363.3 698.3 362.3 698.1 360.9C697.6 356.3 703 354.7 706.5 354C705.5 352.2 701.3 351.6 703 348.9C704.2 347 707.4 347.7 709 346.3C713.3 342.4 708.3 333.9 706.4 329.9C705.6 328.3 704.7 326.7 703.8 325C705.3 324.1 707.7 324.4 709 323.2C713.3 319.3 708.3 310.8 706.4 306.8C704.8 303.6 702.5 300 701.1 296.3C701.7 296.2 702.2 296.1 702.8 295.9C709.1 294.6 714.9 291.4 721.2 290.5C727.7 289.5 733.2 292.6 739.4 293.8C744.1 294.7 751.9 292.4 746.8 286.6C745.1 284.6 742.6 283.7 741.6 281.1C740.4 278.2 741.7 275.1 743.1 272.5C743.4 271.9 743.7 271.3 744 270.8C747.4 270.1 750 268 747.4 264.4C748.4 262.2 749.4 260 750.1 257.5C752.5 248.8 756.3 238.4 767.3 242.1C772.8 243.9 778.2 244.2 783.7 245.5C784.5 245.7 793 248.3 791.3 249.5C795.4 250.7 798.5 246.6 801.7 244.7C804.9 242.8 809.3 242.3 811.2 238.7C813.7 233.9 810.4 228.6 809.6 223.8C809.3 221.9 809.1 219.9 809.3 217.9C810 217.3 810.7 216.6 811.2 215.7C812 214.2 812.2 212.7 812.1 211.2C812.2 211.1 812.2 211.1 812.3 211C817.4 205.6 826.2 208.1 831.4 203.1C834.9 199.8 833.5 195.2 835.3 191.3C836.2 189.3 838.5 187.1 838.7 185.1V160.9ZM283.9 92.6999C283.9 92.7999 283.9 92.7999 283.9 92.6999V92.6999Z" fill="#848484"/>
<path d="M204.6 245.3C200.1 246.5 196.6 244 192.9 241.5C191.9 240.8 190.8 240 189.7 239.4C185 236.6 180.4 237.5 175.9 238.3C174.1 238.6 172.2 239 170.4 239.1C168.9 239.2 167.2 239.1 165.5 239C161.4 238.7 157.2 238.4 153.7 241.3C152.9 242 152.2 242.9 151.6 243.8C150.8 244.9 150.1 246 149 246.6C148 247.1 146.1 247 144.3 246.9C142.2 246.8 140 246.7 138.5 247.4C138.4 247.3 138.4 247.3 138.3 247.2C136.9 245.2 139.6 243.4 140.6 242.1C142.4 239.8 141.9 238.6 140.9 236C140 233.5 140.9 232.7 141.3 230.2C142.5 223.6 127.9 216.7 123.3 221.4C122.4 222.3 122.4 223.4 121.2 224.1C120.5 224.5 119.5 224.6 118.7 224.8C116 225.4 113.2 225.4 110.6 224.4C105.1 222.4 100.3 218.7 94.2 220C88.7 221.1 84 224.9 79.4 227.9C76.8 229.6 74.1 231.6 71.1 232.4C69.6 232.8 58.2 236.2 57 237.9C56.7 238.3 56.2 238.7 56.1 239.2C56 239.8 57.1 240.5 56.6 241C55.4 242.3 51.3 238 50.5 237.5C48.5 236.1 40.9 232.8 41.6 229.5C42.4 225.6 48 229.9 50.1 229.3C58 227 38.2 206.9 35.3 205C32.7 203.3 29.7 201.9 26.5 201.5C23.4 201.1 20.9 202.4 17.9 202.6C12.3 203 12.1 199.6 12.8 195.2C13.1 193.4 13 192.1 12.6 191C16.4 191.5 20.5 191.8 24.5 192.1C28.3 192.4 32.2 192.6 35.7 193.1C40.4 193.7 45.2 194.8 49.8 195.8C51.4 196.2 52.9 196.5 54.5 196.8C55.1 196.9 55.8 197 56.4 197C57.8 197 59.3 196.7 60.7 196.1C61.6 195.7 63.1 195.6 64 195.4C64.3 195.4 64.5 195.3 64.6 195.3C69.4 194.5 73.6 192.2 77.9 189.7C83 186.7 88.1 183.9 92.4 181.5C93 181.2 93.6 180.8 94.2 180.5C97.4 178.6 101.5 176.2 104.7 177.8C105.5 178.2 106.1 178.9 106.7 179.6C107.3 180.3 107.9 180.9 108.7 181.4C110.2 182.3 111.7 182.5 113.3 182.6L114 182.7C114.7 182.8 115.3 182.9 116 182.9C119.4 183.4 122.8 183.8 125.5 180.8C127.3 178.8 128.1 175.9 128.5 173.9C128.6 173.6 128.6 173.2 128.7 172.9C128.9 171.6 129.1 170.3 130.2 169.6C131.3 168.9 132.7 169.3 134.2 169.7C134.7 169.8 135.3 170 135.8 170.1C138.8 170.6 141.3 170.3 143.1 169C143.3 168.9 143.4 168.7 143.4 168.5C143.4 168.3 143.3 168.1 143.2 168C142.8 167.7 142.8 167.5 142.8 167.5C142.8 167 143.6 166.2 144.2 165.7C144.6 165.3 145 165 145.2 164.6C145.2 164.6 145.2 164.6 145.2 164.5C146 164.9 147.2 165.5 148 165.8C150 166.6 151.9 167.4 152.9 169.2C153.5 170.3 153.7 171.4 153.9 172.6C154.3 174.5 154.7 176.5 156.5 178C158.5 179.6 161 179.9 164.3 178.7C164.9 178.5 165.5 178.1 166.2 177.8C167.6 177.1 169.1 176.2 170.3 176.6C172.8 177.4 172.8 181.8 172.9 184.6C172.9 185.1 172.9 185.5 172.9 185.9C173 189.1 173.7 192.2 174.4 195.1C175.1 198.1 175.8 201.3 175.9 204.5C175.9 206.2 175.8 208 175.7 209.7C175.4 214.8 175.1 220 177.9 224.6C180.7 229.2 185.4 230.6 189.9 232.1C191.4 232.6 193 233.1 194.5 233.7C199 235.7 202.3 239.4 204.6 245.3Z" fill="white"/>
<path d="M363.6 198.7C363.4 200.8 362.1 202.7 359.8 204.2C356.9 206.1 353.9 207.8 351 209.5C346.1 212.2 341.1 215.1 336.7 218.8C335 218.5 334 217 333 215.5C332.6 215 332.3 214.4 331.9 213.9C330.6 212.3 329 211.1 327.5 209.9C326.7 209.3 325.9 208.6 325.1 207.9C324.4 207.3 323.7 206.5 322.9 205.8C320 202.9 316.8 199.7 312.3 199.8C305.9 200 303.1 206.4 301.3 210.7C301.2 211 301 211.3 300.9 211.7C300.2 213.5 299.3 215.6 297.7 216.5C296.1 217.4 294.8 216.9 293.3 216.2C292.4 215.9 291.6 215.5 290.6 215.4C286.4 214.8 285.8 217.9 285.3 220.5C285 222 284.7 223.7 283.7 224.6C282.7 225.6 281.3 226 279.8 226.5C278.4 226.9 277 227.3 275.8 228.2C273.7 229.8 272.1 231.9 270.6 234C270.2 234.5 269.9 235 269.5 235.5C269 236.1 268.5 236.8 268.1 237.4C266.7 239.3 265.2 241.3 263.5 242.9C262.2 244.2 260.7 245.3 259.2 246.4C258.2 247.2 257.1 247.9 256.1 248.8C252.2 252.1 250.1 256.5 248.4 261C242.4 261 236.4 263.4 230.7 265.2C224.4 267.2 217.7 268.1 211.4 270.1C211.5 267.1 210.7 264.1 210 261.2C209.8 260.4 209.6 259.6 209.4 258.8C209.1 257.6 208.9 256.4 208.6 255.3C208 252.8 207.4 250.1 206.6 247.6C204.2 239.8 200.4 235.1 194.8 232.8C193.3 232.2 191.7 231.7 190.1 231.2C185.6 229.8 181.4 228.4 178.8 224.2C176.2 219.9 176.5 214.9 176.8 210C176.9 208.2 177 206.4 177 204.7C176.9 201.4 176.2 198.2 175.5 195.1C174.8 192.2 174.1 189.1 174 186.1C174 185.7 174 185.3 174 184.9C174 181.7 174 176.9 170.6 175.8C168.9 175.2 167.1 176.2 165.6 177.1C165 177.4 164.4 177.8 163.9 177.9C161.1 178.9 158.9 178.8 157.3 177.4C155.8 176.1 155.5 174.4 155.1 172.6C154.9 171.4 154.6 170.1 154 168.9C152.8 166.7 150.6 165.8 148.5 164.9C147.7 164.6 146.6 164.1 145.8 163.7C146.2 162.7 146.4 161.5 146.6 160.5C146.8 159 147 157.5 147.9 156.4C149.6 154.2 151.8 154.9 154.3 155.6C156 156.1 157.8 156.7 159.5 156.3C164.8 155.1 165 145.3 164.4 141C164.2 140 164 139 163.7 138C163.1 135.8 162.5 133.8 163.4 131.6C163.9 130.3 164.8 129.2 165.8 128C165.9 127.9 166 127.8 166 127.7C166.5 128.5 167.3 128.7 168.6 127.3C170.6 125.2 170 121.4 172.7 119.7C176.2 117.5 179.7 121.1 182 123.3C184.9 126.2 188.3 128.4 192.6 127.8C197 127.2 198.8 123.9 201.2 120.8C203.7 117.6 207 116.5 210.9 115.9C215.4 115.1 218.7 115.1 223 116.9C227 118.5 229.9 119.4 233.9 117.4C237.9 115.4 241.2 113.2 245.7 115.1C248.8 116.4 251.2 118.9 253.8 121C257.6 124.1 262.1 126.8 266.9 127.8C271.2 128.7 273.5 127.3 277 125.2C281.7 122.5 284.6 123.7 289.5 125.2C293.7 126.6 298.1 126.8 302.3 125.3C306.2 123.9 309.7 121.1 311 117.1C311.7 114.9 311.6 111.5 313.9 110.3C315 110.5 315.9 111 316.6 111.9C316.9 112.3 317.1 112.7 317.3 113C318 114.2 318.4 114.8 320.5 115.2C321.3 115.4 321.8 115.2 322.1 115.1C322.3 115.3 322.5 115.8 322.7 116.1C324 118.2 325.1 119.7 326.9 121.2C326.5 121.3 326.1 121.5 325.7 121.7C325 122.1 324.3 122.4 323.6 122.3C323.4 122.3 323.2 122.4 323 122.5C322.9 122.7 322.9 122.9 323 123.1C323.2 123.4 323.3 123.8 323.5 124.2C323.8 125 324.1 125.9 324.8 126.5C325.3 126.9 326 127 326.5 127.1C326.9 127.2 327.3 127.2 327.6 127.4C329 128.3 329.6 130 330.2 131.6C330.4 132.2 330.6 132.8 330.9 133.4C332.1 136 333.7 138.1 335.6 140.5C335.8 140.8 336 141 336.2 141.2C336.7 141.8 337.2 142.3 337.4 143.1C337.5 143.6 337.5 144.1 337.4 144.6C337.4 145 337.3 145.5 337.3 145.9C334.7 145.4 332 146.8 330.4 148.7C328.5 150.8 327.9 153.2 328.6 155.3C327.7 155.3 326.5 155.6 326 156.4C325.7 156.8 325.4 157.6 325.8 158.7C326.1 159.3 326.7 159.7 327.2 160.1C327.5 160.3 327.8 160.5 327.9 160.6C328.2 161 328.5 161.5 328.8 162C329 162.3 329.2 162.7 329.4 163C328 162.9 326.4 163.1 325.9 164.8C325.9 165 325.9 165.1 326 165.3C326.1 165.4 326.2 165.5 326.4 165.6C328 166 328.8 167.3 329.7 168.7C330.4 169.8 331 170.9 332.1 171.6C333.4 172.5 335 172.7 336.5 172.8C338.1 173 339.7 173.1 340.7 174.2C341.3 174.8 341.4 175.6 341.6 176.5C341.7 177.3 341.9 178.1 342.4 178.9C343.3 180.3 344.8 180.9 346.2 181.4C346.5 181.5 346.8 181.6 347.1 181.8C350.4 183.2 354.2 185 357.3 187.9C358.8 189.3 360.4 191 361.6 192.9C361.5 193 361.4 193.1 361.3 193.2L362.1 194L362.2 193.9C363.2 195.2 363.8 197 363.6 198.7Z" fill="white"/>
<path d="M11.8999 189.7C15.8999 190.3 20.2999 190.6 24.5999 190.9C28.3999 191.2 32.2999 191.4 35.8999 191.9C40.6999 192.6 45.3999 193.6 49.9999 194.6C51.5999 194.9 53.0999 195.3 54.6999 195.6C56.3999 196 58.3999 195.7 60.2999 195C61.3999 194.6 62.9999 194.4 63.8999 194.3C64.0999 194.3 64.2999 194.3 64.3999 194.2C68.9999 193.4 73.0999 191.2 77.2999 188.7C82.3999 185.7 87.4999 182.8 91.7999 180.5C92.2999 180.2 92.8999 179.8 93.4999 179.5C96.9999 177.4 101.3 174.8 105.2 176.8C106.2 177.3 106.9 178.1 107.5 178.9C108 179.5 108.6 180.1 109.2 180.5C110.4 181.3 111.7 181.4 113.2 181.5L113.9 181.6C114.6 181.7 115.3 181.8 116 181.8C119.2 182.2 122.2 182.6 124.5 180.1C126.2 178.3 126.9 175.6 127.3 173.8C127.4 173.5 127.4 173.1 127.5 172.8C127.7 171.4 128 169.7 129.5 168.8C131.1 167.8 132.9 168.3 134.4 168.7C134.9 168.9 135.4 169 135.9 169.1C138.3 169.5 140.3 169.3 141.8 168.6C141.6 168.4 141.5 168.1 141.5 167.8C141.4 166.7 142.4 165.8 143.3 165C143.6 164.7 144 164.4 144.1 164.1C144.9 163 145.1 161.6 145.3 160.2C145.5 158.6 145.8 156.9 146.9 155.5C149.1 152.7 152 153.6 154.6 154.3C156.2 154.8 157.8 155.3 159.2 155C163.4 154.1 163.8 145.3 163.2 141C163.1 140 162.8 139.1 162.5 138.2C161.9 135.9 161.2 133.6 162.2 131C162.8 129.5 163.8 128.3 164.8 127.1C165 126.8 165.3 126.5 165.5 126.3C165.2 124.8 165.1 122.9 165 122.1C164.3 118 157.9 113.6 154.6 111.7C150.8 109.5 147.3 107 143.6 104.6C140.9 102.9 138.2 102.5 135.1 102.6C134.3 102.6 127.9 102.7 128.5 104.4C128 103.5 127 104.2 126.3 103.8C125.3 103.2 124.9 102.3 124.2 101.4C122.7 99.4999 120.9 97.7999 118.4 97.5999C113.6 97.2999 111.1 102.3 106.8 103.3C104 104 102.7 102.6 100.5 101.2C98.2999 99.6999 95.9999 98.6999 93.5999 97.5999C91.8999 96.7999 89.7999 95.2999 88.3999 97.3999C87.5999 98.5999 88.6999 101.3 86.4999 101.3C86.2999 101.1 87.4999 99.8999 87.5999 99.7999C85.1999 99.5999 83.9999 102.1 82.3999 103.4C81.5999 104.1 78.3999 105.7 80.2999 107.3C76.2999 104 71.8999 110.1 68.4999 111.4C65.9999 112.4 63.0999 112 61.0999 114.1C59.2999 116.1 59.1999 119.1 57.2999 121.1C54.1999 124.4 48.8999 123.1 45.6999 126.1C41.5999 130 46.5999 135.5 47.1999 139.8C47.8999 145 43.8999 148.3 38.9999 146.2C34.5999 144.3 32.5999 139.4 29.6999 135.9C25.7999 131.1 20.7999 129.7 17.4999 135.9C16.1999 138.4 15.2999 140.9 13.5999 143.2C11.5999 145.8 8.99988 148.1 7.39988 151C4.19988 157 9.99988 160.8 9.09988 166.6C8.29988 171.5 2.99988 173.7 0.899882 177.8C-1.80012 183.2 2.49988 185.7 6.99988 187C9.29988 187.7 10.8999 188.4 11.8999 189.7Z" fill="white"/>
<path d="M474.7 342.9C474.6 342.9 474.5 342.9 474.5 342.9C473.8 342.9 473.2 343.2 472.8 343.9C472 345.2 472.1 347.2 472.6 348.2C473.8 350.6 477.6 350.8 479.7 349.9C481.9 349 481.6 347.8 481.5 347.5C481 345.2 477 342.9 474.7 342.9Z" fill="white"/>
<path d="M406.7 342C406.9 342 407.1 342.1 407.3 342.1C411 342.4 414.7 339.1 418.1 336.2C418.9 335.5 419.8 334.8 420.5 334.1C423.7 331.5 427.4 329.2 431.3 327.4C431.8 327.2 432.3 326.9 432.9 326.7C434.2 326.1 435.6 325.5 436.8 324.6L437.1 324.4C437.6 324 438.2 323.6 438.4 323.1C438.5 322.9 438.4 322.6 438.4 322.3C438.3 322 438.3 321.6 438.3 321.3C437.9 321.2 437.7 321 437.6 320.7C436.3 318.8 439.2 313.3 439.5 312.7C439.9 311.9 440.5 311 440.9 310.2C443.4 306.2 445.7 302.4 441.6 298.7C440.4 297.6 439.2 296.8 438 296C434.9 294 431.9 292 432.3 286.7C432.4 285.2 432.7 283.8 433 282.4C433.8 278.4 434.4 275 430.7 271.8C428.2 269.7 426.1 267.9 426.5 264C426.6 262.7 427 261.5 427.3 260.3C427.8 258.6 428.3 257 428.1 255.2C427.6 249.4 423.2 245.5 416.9 245.1C414.1 244.9 411.4 245.2 408.7 245.5C404.7 246 400.5 246.4 396.2 245.2C391.7 243.9 387.6 241.6 383.7 239.3C381.8 238.2 379.8 237 377.8 236.1C372.2 233.3 366.3 231.3 360.6 229.4C358.9 228.8 357.1 228.2 355.4 227.6C353.2 226.8 351.1 225.8 349 224.9C347.7 224.3 346.3 223.7 344.9 223.1C342.8 222.2 340.9 221.5 338.8 221.7C338.3 221.8 337.7 221.9 337.2 222.1C336.1 222.5 335 222.8 333.8 222.5C333.6 222.4 333.4 222.3 333.4 222C333.4 221.8 333.4 221.6 333.6 221.4L335.8 219.7C334 219.1 333 217.5 332 216C331.6 215.5 331.3 214.9 330.9 214.5C329.7 213 328.2 211.8 326.7 210.6C325.9 210 325.1 209.3 324.3 208.6C323.5 207.9 322.8 207.2 322.1 206.4C319.3 203.6 316.3 200.6 312.3 200.8C307.1 201 304.6 205.7 302.4 211C302.3 211.3 302.1 211.6 302 212C301.2 214 300.3 216.3 298.2 217.4C296.1 218.5 294.4 217.9 292.8 217.2C292 216.9 291.2 216.6 290.4 216.5C287.5 216.1 287 217.8 286.4 220.7C286.1 222.4 285.7 224.2 284.5 225.4C283.3 226.6 281.7 227.1 280.1 227.5C278.8 227.9 277.5 228.3 276.5 229.1C274.6 230.6 273 232.7 271.5 234.7C271.1 235.2 270.8 235.7 270.4 236.2C269.9 236.8 269.5 237.4 269 238.1C267.6 240 266.1 242 264.3 243.8C262.9 245.2 261.4 246.3 259.9 247.4C258.9 248.1 257.8 248.9 256.9 249.7C253.3 252.8 251.4 256.7 249.7 261.1C250.8 261.2 251.9 261.3 253 261.5C259.6 262.9 265.2 267.4 270.8 270.9C277.2 274.9 283.8 278.5 289.8 283C295.7 287.3 301.5 292.3 306.3 297.9C310.6 303 314.3 309.7 320.6 312.5C327.8 315.8 335.9 312.8 343.3 311.8C351.8 310.7 360.5 310.9 369.1 310.1C376.5 309.4 384.5 308.6 390.7 313.7C396 318.1 398.4 325 400.7 331.3L406.3 328.8C406.5 333.1 406.9 337.6 406.7 342Z" fill="white"/>
<path d="M210.2 270.4C210.4 267.4 209.6 264.4 208.8 261.4C208.6 260.6 208.4 259.8 208.2 259C207.9 257.8 207.6 256.6 207.4 255.4C206.8 252.9 206.2 250.3 205.5 247.8C205.3 247.1 205.3 247 205 246.4H204.9C199.8 247.7 195.9 245 192.2 242.4C191.2 241.7 190.1 241 189.1 240.3C184.8 237.8 180.6 238.5 176.1 239.4C174.3 239.7 172.4 240.1 170.4 240.2C168.8 240.3 167 240.2 165.4 240.1C161.5 239.8 157.5 239.6 154.5 242.1C153.8 242.7 153.2 243.5 152.6 244.4C151.8 245.6 150.9 246.8 149.6 247.5C148.3 248.2 146.4 248.1 144.3 247.9C142.5 247.8 140.6 247.7 139.3 248.2C139.4 248.6 139.2 249 138.7 249.2C138 249.5 137.5 249.8 137.4 250.1C137 251.7 141.1 251.5 142.2 252C144.9 253.3 146.1 256.2 149.1 257C152.2 257.8 155.5 256.1 158.6 255.7C160.2 255.5 162.9 255.2 162.5 257.4C162.4 257.9 161.2 258.1 161.2 258.7C161.3 260 162.9 259.9 163.7 259.9C164.7 260 166.6 259.1 167.1 260.7C167.4 261.8 166.2 261.8 165.9 262.6C165 264.8 166.5 265.2 168.6 265.8C170.3 266.3 173.4 266.5 173.2 269C173 271.7 168.5 272.8 166.4 273.3C160.4 274.6 153.5 273.9 149.2 279.1C146.5 282.3 144.4 291.1 139.1 291C131.6 290.9 142.6 279.7 144.1 278.4C146.2 276.7 159 269.1 152 267.4C149.2 266.7 146 267.6 143.3 267.6C139.3 267.7 135.3 267.2 131.4 266.4C124.3 265 117.1 262.1 109.8 262.8C102.9 263.5 100.8 268.7 95.9999 272.8C91.4999 276.6 93.4999 279 97.6999 281.7C99.2999 282.8 106.2 287.1 101 288.3C97.2999 289.2 92.4999 285.9 89.0999 284.7C86.6999 283.8 83.7999 283.1 81.2999 283.9C78.1999 284.8 76.1999 287.7 77.9999 290.7C79.9999 293.9 84.5999 294.4 87.5999 296.2C90.8999 298.2 93.1999 301.7 94.8999 305.1C98.2999 311.9 97.2999 319.7 104.2 324.3C107.6 326.6 111.2 329 115.2 330.2C118.6 331.3 122.2 331.4 125.6 332.6C126.6 332.9 130.8 334.7 126.3 345.2C124.2 349.9 123.1 354.9 123.1 360C126.2 358.6 128.3 355.9 130.9 353.8C133.6 351.5 136.8 349.7 140.1 348.4C146.9 345.6 154.7 344.2 161.9 346.5C167.9 348.5 172.5 353.2 175.9 358.4C179.2 363.4 181.4 369.1 186.7 372.5C189.3 374.2 191.7 375.3 194.6 373.5C197.3 371.9 198.5 369.1 198.6 366.1C198.8 362.4 197.7 358.8 196.9 355.2C196 351.2 195.6 347.3 195.7 343.2C195.9 335.3 197.1 327.4 196.7 319.5C196.4 312.1 195 304.7 194.6 297.3C194 285.1 198 274.7 210.2 270.4Z" fill="white"/>
<path d="M630.2 207.9C630.3 207.6 630.5 207.2 630.6 206.9C630.2 207.3 629.7 207.6 629.2 207.7C626.9 208.3 623.8 206 621.6 204.4C621.1 204 620.6 203.6 620.2 203.4C614.7 199.9 609.3 198.4 604.3 198.9C602.1 199.1 599.8 199.8 597.3 200.4C590.7 202.1 583.1 204.1 577.8 198.7C575.2 196.1 574.8 193 574.4 190C574.2 188.1 573.9 186.2 573.1 184.4C571.6 180.8 568.9 180.1 563.9 181.9C555.5 184.9 547.2 185.2 538.4 185.6C535.2 185.7 531.9 185.9 528.6 186.2C522 186.8 516.3 188 511.4 189.9C510.6 190.2 509.8 190.6 509 191C505.4 192.6 501.2 194.5 497.3 192.5C495.4 191.5 493.7 189.7 492.1 187.9C488.7 184.1 485.8 180.9 480.9 184.9C478 187.3 476.6 190.6 475.1 194.2C473.8 197.3 472.4 200.6 470 203C466.3 206.7 461.8 207.9 457.4 207.9C452.5 207.9 447.8 206.4 444.5 205C441.1 203.6 438.6 201.4 436.1 199.3C434.4 197.9 432.7 196.4 430.7 195.1C428.3 193.6 425.7 193.6 422.9 193.5C421.1 193.5 419.3 193.4 417.5 193C412.6 191.8 411.1 187.9 410.3 183.9C409.1 178.1 407.6 173.9 405.4 170.1C402.3 172.2 398.9 173.8 395.3 174.7C392 175.6 389 175.6 386.2 174.7C385.6 174.5 384.9 174.2 384.3 173.9C382.6 173.1 380.9 172.4 379.4 173.2C378.6 173.7 378.2 174.5 377.8 175.4C377.5 176 377.2 176.7 376.8 177.3C375.4 179.1 373.7 179.6 371.8 179.9C372.1 180.4 372.4 180.9 372.6 181.4C373 182.2 373.4 183 374 183.6C374.2 183.7 374.3 184 374.2 184.2C374.1 184.4 374 184.6 373.8 184.6C371.3 185.1 369.1 185.5 367.1 185.8C367.7 188.7 365.4 190.8 363.5 192.6C364.6 194.5 365.3 196.6 365.2 198.6C365 201.1 363.5 203.2 360.9 205C358 206.9 355 208.6 352 210.3C347.3 212.9 342.5 215.7 338.3 219.2C338.3 219.4 338.2 219.6 338.1 219.7L336.2 221.2C336.6 221.1 337 221 337.4 220.9C338 220.7 338.6 220.5 339.3 220.4C341.7 220.1 343.8 221 345.9 221.8C347.4 222.4 348.8 223.1 350.1 223.7C352.1 224.6 354.2 225.6 356.4 226.4C358.1 227 359.9 227.6 361.6 228.2C367.4 230.2 373.3 232.2 379 235C381 236 383 237.2 385 238.3C388.9 240.5 392.9 242.9 397.3 244.1C401.3 245.2 405.2 244.8 409.3 244.3C412 244 414.9 243.7 417.7 243.8C421.9 244.1 425.4 245.9 427.5 248.7C436.8 247.9 446.3 248.1 455.5 248.4C457.8 248.5 460.2 248.5 462.5 248.6C471.5 248.8 480.6 248.7 489.4 248.7C492.3 248.7 495.2 248.7 498.2 248.7C512.2 248.7 526.4 248.7 540.1 248.8C550.1 248.8 560 248.9 570 248.9C574.7 240.4 583.6 233.9 594 231.5C602.8 229.5 611.5 231.4 619.9 233.2C621.8 233.6 623.8 234 625.8 234.4L626.8 234.3V234.6C627.5 234.7 628.1 234.8 628.8 234.9H628.9C632.4 235.5 637.3 236.3 639.8 233.2C642 230.6 641.3 227.3 640.6 223.8C640.3 222.3 640 220.8 639.9 219.4C639.1 219.6 638.4 219.7 637.6 219.9C636.4 220.2 635.1 220.5 633.8 220.7C631.9 221 628.5 221.3 627.2 218.8C625.8 216.2 627.8 212.9 629.4 210.3C629.4 209.4 629.9 208.6 630.2 207.9Z" fill="white"/>
<path d="M446.6 125.2C447.6 124.9 448.7 124.8 449.7 124.7C450.6 124.6 451.5 124.5 452.3 124.4C453.2 124.2 454 124 454.9 123.8C457.1 123.2 459.4 122.6 461.9 122.6C462.1 122.6 462.2 122.7 462.3 122.8C462.4 122.9 462.5 123.1 462.5 123.2C462.5 124.6 462 126.1 461.5 127.6C460.6 130.5 459.7 133.2 461.6 135.3C463 136.9 464.7 136.3 467.1 135.2C467.8 134.9 468.5 134.6 469.2 134.4C471.9 133.6 473.8 134.6 475.7 135.5C476.8 136 477.9 136.6 479.1 136.8C480.6 137.1 481.9 136.8 483 136.4C485 135.8 487 135.3 489.1 138.5C491.7 142.2 493.9 142.9 497 141C498.8 139.9 499.9 138.1 501 136.2C502.1 134.4 503.3 132.5 505.2 131.1C505.8 130.7 506.4 130.3 507.1 129.9C508.3 129.2 509.3 128.5 510.4 127.6C510.8 127.3 511.1 126.9 511.5 126.6C512.5 125.6 513.6 124.7 514.8 124C516.6 123 520.5 122.8 522.1 124.4C522.7 125 523.1 125.9 522.5 127.5C522.8 127.6 522.9 127.8 523 128C523.6 128.9 522.9 130.5 522.1 132C522.5 131.9 522.9 131.7 523.3 131.5C523.9 131.2 524.6 130.9 525.4 130.8C526.9 130.7 528.1 131.4 529.3 132H529.4C529.6 129.2 531.9 128.9 533.8 128.7C535 128.5 536.1 128.4 536.9 127.8L535.6 126.9C535.5 126.8 535.4 126.7 535.4 126.5C535.4 126.3 535.4 126.2 535.5 126.1C538.5 122.4 543 120.8 546.3 120.2C546.6 120.2 546.9 120.1 547.2 120.1C548.4 119.9 550.4 119.7 550.8 118.9C550.9 118.8 551 118.5 550.7 117.8C550.6 117.6 550.6 117.4 550.7 117.3C550.8 117.1 550.9 117 551.1 117C553.9 116.5 556.4 115.3 558.4 113.6C557.9 113.4 557.3 113.4 556.7 113.5C555.9 113.7 555.3 114.2 555 114.8C554.9 115 554.6 115.2 554.4 115.1C554.1 115.1 553.9 114.9 553.9 114.6C553.7 113.5 552.9 112.7 552.1 111.8C551.5 111.2 550.9 110.6 550.5 109.8C550.4 109.6 550.4 109.5 550.5 109.3C550.6 109.1 550.7 109 550.9 109C551.7 108.7 552.5 109 553.3 109.3C554.6 109.7 555 109.7 555.3 109.1C555.4 108.9 555.5 108.8 555.7 108.8C555.9 108.8 556.1 108.8 556.2 108.9L556.9 109.5C557.1 109.1 557.5 108.7 558 108.5C558.9 108.1 560.2 108.1 561.4 108.4C562.9 106.2 565.4 104.6 568.2 104.3C568.7 104.3 569.2 104.3 569.8 104.3C571.6 104.4 572.6 104.4 572.9 103.7C572.3 103.6 571.5 103.5 570.7 103.4C567.8 103.1 564.1 102.8 563.6 99.7998C563.3 97.8998 564.7 96.0998 565.9 94.5998C566.4 93.9998 566.9 93.2998 567.2 92.7998C568.8 89.9998 568.5 86.2998 568.4 83.0998C568.3 80.8998 568.1 78.6998 566.9 76.9998C564.4 76.4998 562 75.5998 559.6 74.6998C555.2 73.0998 551.1 71.4998 546.7 72.5998C546.5 72.5998 546.4 72.5998 546.2 72.4998C546.1 72.3998 546 72.2998 546 72.0998C545.9 71.0998 545.6 70.0998 545.3 69.0998C544.9 67.6998 544.5 66.1998 544.5 64.5998C543.8 64.5998 543.1 64.5998 542.4 64.6998C540.6 64.6998 538.9 64.6998 537.2 65.2998C536.3 65.5998 535.4 65.9998 534.5 66.4998C533.5 66.9998 532.6 67.4998 531.5 67.7998C528.2 68.7998 523.9 68.7998 521.6 65.7998C520.5 64.2998 520.4 62.4998 520.2 60.7998C520 58.4998 519.9 56.4998 517.6 55.3998C515.8 54.5998 513.7 55.0998 511.6 55.5998C510.3 55.8998 508.9 56.2998 507.6 56.2998C507.4 56.2998 507.2 56.1998 507.1 56.0998C507 55.8998 507 55.7998 507 55.5998L507.6 53.7998C503.6 53.6998 501.1 53.7998 497.4 56.0998C496.4 56.6998 492.9 58.6998 490.1 57.8998C489 57.5998 488.1 56.7998 487.6 55.5998C487.3 54.7998 487.3 54.0998 487.3 53.4998C487.3 52.7998 487.3 52.1998 486.7 51.5998C486.3 51.0998 485.6 50.8998 484.8 50.5998C484.1 50.3998 483.5 50.0998 482.9 49.6998C482.3 49.1998 481.7 48.5998 481.2 47.9998C479.7 46.2998 478.7 45.3998 476.9 46.4998C476.1 46.9998 475.6 47.5998 475.1 48.0998C473.9 49.4998 473 50.1998 470.2 48.8998C466.6 47.1998 464.3 46.8998 460.4 49.4998C458.6 50.6998 457.5 52.1998 457.2 53.5998C457 54.5998 457.3 55.5998 458.1 56.5998C458.2 56.7998 458.6 57.0998 458.9 57.3998C460.1 58.3998 461.5 59.6998 461.3 60.8998C461.3 61.0998 461.2 61.3998 460.9 61.5998C461 61.6998 461 61.7998 461 61.8998C461.4 63.0998 460.5 65.1998 459.6 66.9998L459.5 67.2998C457.8 70.4998 455.7 72.7998 452.9 74.1998C452.2 74.5998 451.4 74.8998 450.7 75.0998C448.8 75.7998 446.9 76.5998 446 78.3998C446 78.4998 445.9 78.8998 445.8 79.1998C445.5 80.7998 445.2 81.9998 444.3 82.2998C444.1 82.3998 443.9 82.3998 443.6 82.2998L442.6 84.2998C442.5 84.4998 442.4 84.5998 442.2 84.5998C442 84.5998 441.9 84.5998 441.7 84.4998C439.4 82.8998 434 80.4998 431.7 81.7998C430.8 82.2998 430.4 83.3998 430.6 85.0998C430.6 85.2998 430.5 85.4998 430.4 85.5998C430.3 85.6998 430.2 85.6998 430 85.6998H429.9C428.2 85.2998 426.5 85.1998 424.8 85.0998C424 85.0998 423.3 84.9998 422.6 84.9998C421.8 84.8998 420.9 84.7998 420.1 84.6998C418.2 84.4998 416.2 84.1998 414.3 84.4998C414.1 84.4998 413.9 84.3998 413.8 84.2998C413.7 84.1998 413.6 83.8998 413.7 83.6998C413.8 83.3998 413.9 82.8998 413.8 82.6998C413.5 82.2998 412.2 82.2998 411.3 82.3998C411 82.3998 410.8 82.3998 410.5 82.3998C408.6 82.3998 404.3 81.0998 402.5 78.5998C401.4 82.2998 400.2 85.9998 398.8 89.6998L398.6 90.3998C398 92.0998 397.3 94.0998 395.7 95.3998C394.3 96.4998 392.6 96.6998 391 96.8998C390.2 96.9998 389.4 97.0998 388.6 97.2998C389.1 97.8998 389.8 98.4998 390.5 98.9998C392.2 100.4 394.1 101.9 393.5 105C393.3 105.9 393 106.7 392.6 107.5C392.2 108.3 391.8 109.1 391.7 109.9C391.5 111.1 391.8 112.5 392.1 113.9C392.2 114.4 392.3 114.9 392.4 115.4L392.5 115.8C392.9 118.4 393.3 120.9 396.2 121.2C397.5 121.3 398.7 121 399.8 120.7C401.6 120.2 403.5 119.7 405.8 120.9C407 121.5 408 122.2 408.9 123C410.7 124.3 412.4 125.6 414.8 125.7C415.9 125.8 417.1 125.7 418.2 125.6C420.8 125.3 423.5 125.1 425.9 127.4C426.6 128 427.1 128.7 427.5 129.4C428.6 130.9 429.4 132 431.5 131.7C432.5 131.6 433.4 131.1 434.4 130.6C435.2 130.2 436.1 129.8 437 129.5C438 129.2 439 129.2 440 129.1C441.2 129 442.3 128.9 443.4 128.5V128.6C443.5 127.3 444 125.9 446.6 125.2ZM513 112.8C513.6 111.5 513.9 110.6 513.3 109.6C513.2 109.4 513.2 109.2 513.3 109C513.4 108.8 513.6 108.7 513.8 108.7C517.5 108.6 520 111.6 522.1 114L522.3 114.2C522.5 114.4 522.5 114.8 522.2 115C521.8 115.3 521.4 115.6 521 115.8C520.4 116.2 519.9 116.5 519.5 117C519.4 117.2 519.3 117.5 519.3 117.8C519.2 118.3 519.1 118.9 518.6 119.4C518.1 119.8 517.6 120 517 120C516.9 120 516.7 120 516.6 120C515 119.8 513.5 118.4 512.9 117.5C511.7 115.7 512.4 114.2 513 112.8Z" fill="white"/>
<path d="M406.7 23.9999C406.6 25.0999 406.6 26.0999 406.7 27.1999C406.7 27.4999 406.8 27.7999 407 28.1999C407.3 29.2999 407.7 30.4999 407.1 31.4999C407 31.5999 406.9 31.7999 406.8 31.8999C406.9 31.8999 407.1 31.9999 407.2 31.9999C407.7 32.1999 408.3 32.2999 408.7 32.6999C409.5 33.2999 410 34.0999 410.5 34.8999C410.6 35.0999 410.8 35.3999 410.9 35.5999C411 35.7999 411 35.9999 410.9 36.1999C410.8 36.3999 410.6 36.4999 410.4 36.4999C407.8 36.5999 406.1 37.1999 405.3 38.2999C404.7 39.1999 404.5 40.3999 404.9 41.9999C405.1 42.9999 405.3 43.9999 405.5 44.9999C405.7 46.1999 405.9 47.4999 406.2 48.6999C406.5 49.5999 407 50.2999 407.5 51.1999C408.1 52.0999 408.7 53.0999 409 54.1999C409.1 54.6999 409.1 55.1999 409.2 55.5999C409.2 56.1999 409.3 56.6999 409.5 57.2999C409.6 57.5999 409.9 57.9999 410.2 58.2999C410.6 58.7999 411 59.2999 411.2 59.9999C411.7 62.1999 410.6 62.6999 408.8 63.2999C408.5 63.3999 408.2 63.4999 407.7 63.5999C407 63.6999 405.3 64.0999 405 64.3999C405 64.3999 405.2 64.5999 405.8 64.9999C406 65.0999 407 65.0999 407.7 65.0999C409.3 64.9999 410.9 64.9999 411.7 65.8999C411.9 66.0999 412.1 66.5999 412 67.1999C411.7 68.6999 409.9 68.6999 408.5 68.6999C408 68.6999 407.5 68.6999 407.3 68.7999C405.5 69.3999 405 70.9999 404.3 73.1999C403.9 74.6999 403.4 76.1999 403 77.6999C404.3 79.7999 408.2 81.5999 410.6 81.5999C410.8 81.5999 411.1 81.5999 411.4 81.5999C412.7 81.4999 414.2 81.4999 414.9 82.3999C415.1 82.6999 415.2 83.0999 415.2 83.5999C417 83.4999 418.7 83.6999 420.4 83.8999C421.2 83.9999 422 84.0999 422.8 84.1999C423.5 84.2999 424.3 84.2999 425 84.2999C426.5 84.3999 428.1 84.4999 429.6 84.6999C429.6 82.9999 430.2 81.7999 431.3 81.0999C434.1 79.4999 439.4 81.7999 442 83.3999L442.9 81.4999C443 81.2999 443.1 81.1999 443.3 81.1999C443.5 81.1999 443.7 81.1999 443.8 81.2999C443.9 81.3999 444 81.3999 444 81.3999C444.3 81.1999 444.6 79.6999 444.7 79.1999C444.8 78.5999 444.9 78.2999 445 78.0999C446.1 75.7999 448.2 74.9999 450.3 74.1999C451 73.8999 451.7 73.5999 452.4 73.2999C455 71.9999 457 69.8999 458.5 66.8999L458.6 66.5999C459.7 64.4999 460.2 63.0999 460 62.4999C460 62.3999 459.9 62.2999 459.8 62.2999C459.6 62.1999 459.4 61.9999 459.4 61.7999C459.4 61.5999 459.5 61.3999 459.8 61.2999C459.9 61.2999 460.2 61.0999 460.2 60.9999C460.3 60.3999 458.8 59.1999 458.2 58.5999C457.7 58.1999 457.4 57.8999 457.2 57.5999C456.3 56.2999 455.9 54.9999 456.1 53.6999C456.5 51.4999 458.3 49.7999 459.8 48.7999C464.1 45.7999 466.9 46.1999 470.8 48.0999C473 49.0999 473.4 48.5999 474.3 47.5999C474.8 46.9999 475.4 46.2999 476.4 45.6999C479.1 43.9999 480.8 45.8999 482.2 47.3999C482.7 47.8999 483.2 48.4999 483.7 48.8999C484.1 49.1999 484.7 49.3999 485.3 49.6999C486.1 49.9999 487 50.2999 487.6 50.9999C488.5 51.9999 488.5 52.8999 488.5 53.7999C488.5 54.3999 488.5 54.7999 488.7 55.2999C489.1 56.1999 489.7 56.6999 490.5 56.9999C492.3 57.5999 495 56.4999 496.8 55.3999C501.1 52.7999 503.9 52.7999 508.5 52.8999C508.7 52.8999 508.9 52.9999 509 53.0999C509.1 53.2999 509.1 53.3999 509.1 53.5999L508.6 55.2999C509.5 55.1999 510.5 54.9999 511.5 54.6999C513.8 54.0999 516.1 53.4999 518.3 54.4999C521.1 55.7999 521.4 58.4999 521.6 60.8999C521.7 62.5999 521.9 64.0999 522.8 65.2999C524.7 67.7999 528.6 67.6999 531.4 66.8999C532.4 66.5999 533.3 66.0999 534.2 65.5999C535.1 65.0999 536 64.6999 537 64.2999C538.8 63.6999 540.7 63.6999 542.5 63.6999C543.4 63.6999 544.3 63.6999 545.2 63.5999C545.4 63.5999 545.5 63.5999 545.7 63.7999C545.8 63.8999 545.9 64.0999 545.9 64.2999C545.7 65.8999 546.2 67.3999 546.6 68.9999C546.8 69.7999 547.1 70.6999 547.2 71.5999C551.8 70.7999 556.1 72.3999 560.2 73.8999C561.5 74.3999 562.8 74.8999 564.2 75.2999C563 74.6999 561.8 73.9999 561.5 72.9999C561.3 72.3999 561.1 71.4999 561.7 70.9999C562.5 70.3999 563.9 71.1999 565.2 71.9999C565.6 72.1999 566 72.4999 566.2 72.4999C566.8 72.3999 566.9 72.0999 567.1 71.0999C567.2 70.4999 567.4 69.6999 568.1 69.1999C567.1 68.1999 565.8 68.7999 563.8 69.7999C562.6 70.3999 561.5 70.9999 560.4 70.9999C560.2 70.9999 560.1 70.8999 560 70.7999C559.9 70.6999 559.8 70.4999 559.9 70.2999C560 69.7999 560.2 69.2999 560.4 68.7999C560.8 67.9999 561.2 66.9999 560.8 66.4999C560.6 66.1999 560.3 66.1999 559.7 66.0999C558.9 65.9999 557.9 65.8999 557.6 64.7999C557.5 64.4999 557.7 64.1999 558 64.0999C558.8 63.7999 559.6 63.2999 560.4 62.7999C561.1 62.3999 561.7 61.8999 562.5 61.5999C562.4 61.4999 562.4 61.2999 562.4 61.0999C562.4 60.8999 562.5 60.7999 562.6 60.6999C562 60.5999 561.1 60.6999 560.2 60.6999C558.7 60.8999 557.3 60.9999 556.5 60.1999C556.1 59.6999 555.9 59.0999 556.1 58.1999C556.3 57.1999 557 56.5999 557.8 55.9999C558.4 55.4999 559 54.9999 559.2 54.2999C559.4 53.2999 559.1 52.0999 558.5 51.0999C557.7 50.9999 557 50.6999 556.3 49.9999C552.5 45.6999 560.1 42.7999 562.5 41.0999C563.5 40.3999 566.1 38.2999 564.5 36.8999C563.2 35.7999 558.8 38.0999 557.3 38.3999C553.1 38.9999 550 35.8999 546.3 34.5999C545.1 34.1999 542.3 33.1999 541.5 34.8999C540.4 37.0999 543.8 36.7999 543.9 38.5999C544 43.8999 535.1 33.5999 539.5 34.7999C539.5 32.5999 536.8 32.1999 535.3 31.1999C533.6 30.0999 532.3 27.4999 529.9 28.2999C530.8 29.7999 533.9 31.7999 531.8 33.3999C530 34.7999 526.6 32.7999 524.7 32.6999C521.5 32.4999 508.6 36.8999 510.2 29.0999C510.8 26.3999 513.8 25.0999 513.6 21.9999C513.4 18.8999 510.3 16.0999 509.1 13.2999C506.7 7.79988 505.8 3.69988 498.8 4.29988C492 4.79988 486.6 5.99988 480.1 3.89988C477.1 2.89988 474.4 0.79988 471.3 0.19988C467.7 -0.50012 466.3 1.79988 463.5 3.29988C460.6 4.89988 457.4 4.09988 454.4 4.99988C451.1 6.09988 450.6 8.69988 448.5 11.0999C444.2 16.2999 434.2 15.0999 428.2 16.0999C420.8 17.3999 413.7 18.5999 406.3 19.1999C406.8 20.7999 406.8 22.3999 406.7 23.9999Z" fill="white"/>
<path d="M516.7 118.8C517.1 118.9 517.5 118.8 517.8 118.5C518 118.4 518 118 518.1 117.6C518.2 117.2 518.2 116.7 518.5 116.3C519 115.6 519.7 115.2 520.3 114.8C520.5 114.7 520.7 114.6 520.9 114.4C519.2 112.4 517.2 110.2 514.7 109.8C515 111 514.5 112.2 514.1 113.2C513.6 114.4 513.1 115.5 513.9 116.7C514.5 117.7 515.7 118.7 516.7 118.8Z" fill="white"/>
<path d="M283.9 92.6999C286.2 93.6999 288.2 96.5999 291 95.4999C289.6 96.0999 288.9 97.5999 287.6 98.2999C289.9 99.8999 292.9 98.7999 295.4 99.7999C297.5 100.6 298.8 102.6 300.9 103.5C303.3 104.6 306 104.2 308.5 105.1C310.6 105.8 312.2 107.3 314 108.7C315.4 108.9 316.8 109.5 317.7 110.8C318 111.3 318.2 111.6 318.4 112C318.9 113 319.1 113.3 320.8 113.6C321.4 113.7 321.7 113.6 321.8 113.5C322.6 113.1 322.9 113.5 323.8 115C325.3 117.5 326.5 118.9 328.7 120.6C328.9 120.8 329 121 328.9 121.3C328.8 121.6 328.6 121.7 328.3 121.7C327.6 121.7 327 122 326.3 122.3C325.7 122.6 325.1 122.9 324.5 123C324.6 123.1 324.6 123.3 324.7 123.4C324.9 124.1 325.2 124.8 325.7 125.2C326 125.4 326.4 125.5 326.9 125.6C327.4 125.7 327.9 125.8 328.4 126.1C330.1 127.2 330.8 129.1 331.4 130.9C331.6 131.5 331.8 132.1 332.1 132.6C333.3 135.1 334.7 137 336.7 139.4C336.9 139.6 337.1 139.8 337.3 140C337.9 140.7 338.5 141.3 338.7 142.4C338.9 143.1 338.8 143.7 338.7 144.3C338.6 145 338.6 145.6 338.8 146.1C338.9 146.3 338.9 146.6 338.7 146.8C338.5 147 338.3 147 338 146.9C335.6 145.9 333 147.3 331.3 149C329.9 150.6 328.8 153 330 155.2C330.1 155.4 330.1 155.6 330 155.8C329.9 156 329.7 156.1 329.5 156.1C328.3 156 327.3 156.2 326.9 156.7C326.7 157 326.7 157.4 326.9 157.9C327 158.2 327.4 158.4 327.8 158.7C328.2 158.9 328.6 159.2 328.8 159.5C329.2 160 329.5 160.6 329.8 161.2C330.2 161.9 330.5 162.6 331.1 163C331.3 163.2 331.4 163.4 331.3 163.7C331.2 163.9 331 164.1 330.7 164.1H330.2C328.9 164 327.8 164 327.3 164.5C328.9 165.1 329.8 166.5 330.6 167.9C331.2 168.9 331.8 169.8 332.7 170.5C333.8 171.3 335.1 171.4 336.5 171.5C338.3 171.7 340.1 171.8 341.5 173.3C342.3 174.2 342.5 175.2 342.7 176.2C342.8 176.9 343 177.6 343.3 178.2C344 179.3 345.3 179.7 346.5 180.2C346.8 180.3 347.1 180.4 347.4 180.6C350.8 182 354.7 183.9 358 186.9C359.5 188.3 361.1 190 362.4 191.9C364.2 190.2 366.2 188.2 365.4 185.8C365.3 185.6 365.4 185.5 365.5 185.3C365.6 185.2 365.7 185.1 365.9 185C367.8 184.7 369.8 184.4 372.1 183.9C371.7 183.4 371.4 182.8 371.1 182.2C370.7 181.5 370.4 180.8 369.9 180.2C369.7 180 369.7 179.8 369.8 179.6C369.9 179.4 370 179.2 370.3 179.2C372.4 178.8 374.3 178.5 375.6 176.8C376 176.3 376.2 175.8 376.5 175.2C376.9 174.2 377.4 173 378.6 172.4C380.6 171.3 382.7 172.2 384.6 173.1C385.2 173.4 385.8 173.7 386.4 173.8C389 174.6 391.7 174.6 394.8 173.8C398.3 172.9 401.6 171.3 404.6 169.3V169.2L405.4 168.7C405.4 168.7 405.4 168.7 405.4 168.8C410.2 165.4 414.6 161 418.9 156.3C420.2 154.9 421.5 153.4 422.7 152C425.1 149.3 427.6 146.4 430.3 143.9C432.1 142.3 434.3 141.1 436.5 140C439.2 138.6 441.8 137.4 443.4 135.2C444.5 133.8 444.1 132.2 443.8 130.6C443.7 130.4 443.7 130.1 443.6 129.9C442.5 130.2 441.3 130.4 440.1 130.5C439.1 130.6 438.2 130.7 437.2 130.9C436.4 131.1 435.6 131.5 434.8 131.9C433.8 132.4 432.7 133 431.5 133.1C431.2 133.1 431 133.1 430.8 133.1C428.5 133.1 427.4 131.6 426.4 130.2C426 129.6 425.5 128.9 424.9 128.4C422.9 126.5 420.7 126.7 418.1 127C416.9 127.1 415.8 127.2 414.5 127.1C411.8 126.9 409.9 125.5 408 124.1C407.1 123.4 406.1 122.7 405 122.1C403.1 121.1 401.6 121.5 399.8 122C398.6 122.3 397.3 122.6 395.8 122.5C392 122.2 391.5 118.8 391.1 116.1L391 115.7C390.9 115.2 390.8 114.7 390.7 114.3C390.4 112.9 390.1 111.4 390.3 109.9C390.4 108.9 390.9 108 391.3 107.1C391.7 106.4 392 105.7 392.1 104.9C392.5 102.5 391.2 101.4 389.5 99.9999C388.6 99.1999 387.6 98.4999 386.9 97.3999C386.8 97.2999 386.8 97.0999 386.8 96.8999C386.9 96.6999 387 96.5999 387.1 96.4999C388.2 95.9999 389.4 95.8999 390.5 95.7999C392 95.5999 393.5 95.4999 394.6 94.4999C395.9 93.3999 396.5 91.6999 397.1 90.0999L397.3 89.3999C399.3 83.7999 401 78.2999 402.6 72.5999C403.2 70.5999 403.8 68.2999 406.3 67.3999C406.7 67.2999 407.3 67.1999 407.9 67.1999C408.8 67.1999 410.1 67.1999 410.2 66.5999C410.2 66.3999 410.2 66.2999 410.2 66.2999C409.9 65.8999 408.2 65.8999 407.2 65.9999C406 65.9999 405.2 65.9999 404.7 65.7999C404 65.3999 403.1 64.8999 403.3 63.9999C403.4 62.9999 404.9 62.5999 406.9 62.1999C407.3 62.0999 407.7 61.9999 407.9 61.9999C409.6 61.4999 409.8 61.2999 409.5 60.0999C409.4 59.6999 409.1 59.2999 408.8 58.8999C408.5 58.4999 408.1 58.0999 407.9 57.5999C407.6 56.8999 407.6 56.1999 407.5 55.5999C407.5 55.1999 407.4 54.7999 407.3 54.2999C407.1 53.2999 406.5 52.4999 406 51.5999C405.4 50.7999 404.9 49.8999 404.6 48.7999C404.2 47.5999 404 46.2999 403.8 44.9999C403.6 43.9999 403.5 42.9999 403.3 42.0999C402.8 40.1999 403 38.5999 403.9 37.4999C404.8 36.2999 406.4 35.5999 408.9 35.2999C408.5 34.5999 408.1 33.9999 407.5 33.4999C407.2 33.2999 406.7 33.0999 406.3 32.9999C405.7 32.7999 405.1 32.5999 404.6 32.1999C404.4 32.0999 404.3 31.7999 404.4 31.5999C404.5 31.3999 404.6 31.1999 404.8 31.1999C405.3 31.0999 405.5 30.8999 405.5 30.7999C405.8 30.2999 405.5 29.2999 405.3 28.4999C405.2 28.0999 405.1 27.6999 405 27.2999C404.8 26.1999 404.9 24.9999 405 23.8999C405.1 22.2999 405.2 20.7999 404.6 19.3999C404.3 19.3999 404 19.4999 403.6 19.4999C400.1 19.6999 396.6 19.9999 393.4 21.4999C390.7 22.7999 388.4 24.7999 385.8 26.1999C379.5 29.6999 371.3 28.2999 364.4 28.7999C356.9 29.3999 348.9 30.7999 342.3 34.4999C339.4 36.1999 336.7 38.0999 333.1 37.8999C329.5 37.6999 326.4 36.1999 322.6 36.4999C319.5 36.6999 316.8 36.8999 313.7 36.4999C311.5 36.1999 309.3 35.9999 307.1 36.3999C300.8 37.4999 302.9 41.8999 301.3 46.1999C299.4 51.1999 307.3 46.4999 309.8 48.0999C312.9 50.0999 308.3 50.8999 306.8 51.4999C303.9 52.6999 303.3 54.9999 306 56.7999C309.4 59.0999 314.7 57.9999 318.5 58.8999C320 59.1999 322.3 59.6999 322.9 61.2999C323.8 63.3999 321.8 64.8999 320 65.1999C317.5 65.5999 314.9 64.4999 312.5 64.0999C308.5 63.2999 304.7 64.8999 300.8 64.2999C301 64.8999 301.3 65.3999 301.7 65.8999C298.8 67.5999 294.8 70.1999 296 74.1999C296.9 77.1999 300.9 78.7999 299.9 82.3999C298.8 86.1999 294.1 85.8999 291 86.6999C286.5 87.7999 282.3 90.2999 279.5 93.9999C281.1 94.1999 284.6 94.5999 283.9 92.6999Z" fill="white"/>
<path d="M744.1 260.9C743.9 261 743.7 261.1 743.5 261.2C742.5 261.6 741.4 262.1 740.3 262.1C739.6 262.1 738.8 261.9 738 261.4C736.3 260.2 735.8 258.2 735.5 256.4C735.3 255.4 735.1 254.5 734.7 253.8C733.7 251.7 732 250 730.4 248.4C727.9 246 725.4 243.5 725.1 239.3C725 237 724.7 237 722.1 236.9H721.3C717.6 236.7 714.5 235.6 711.5 234.6C708.1 233.4 704.5 232.1 700.9 229.8C698.3 228.2 696.3 227.1 693.6 227.5C692.2 227.7 690.8 228.2 689.4 228.7C685.7 230 681.9 231.3 678.6 227.3C678.2 226.8 677.9 226.4 677.6 226C676.1 224.1 675.1 222.7 672.4 222.3C671.6 222.2 670.8 222.1 670 222C668 221.8 666.1 221.7 664 220.7C663.5 220.5 663 220.2 662.6 220C660 218.7 657.7 217.5 654.5 217.8C653.1 217.9 651.7 218.1 650.4 218.3C648.4 218.6 646.4 218.9 644.3 219C643 219 641.9 219.2 640.7 219.4C640.7 220.8 641 222.3 641.3 223.8C642 227.4 642.8 231.2 640.3 234.2C637.4 237.7 632.1 236.9 628.3 236.3H628.2C627.6 236.2 627.1 236.1 626.5 236C626.8 240.7 627.2 246 630.9 249.3C632.3 250.5 634 251.4 635.6 252.2C638.3 253.5 641 254.9 642.6 257.9C644.3 261.2 644 265 643.6 268.6C643.4 270.3 643.3 272 643.3 273.6C643.5 279.3 645.6 284.5 649.1 288.3C653 292.4 658.5 294.5 663.8 296.2L664.8 296.5C667.3 297.3 669.8 298 672.1 299.5C672.9 300 673.7 300.6 674.5 301.2C676 302.3 677.4 303.4 679.2 304C682.3 305.1 685.7 305.1 689 305C691.2 304.9 693.5 304.9 695.8 305.2C700.4 305.8 704.8 307.8 708.3 310.6C707.6 309.1 706.9 307.8 706.4 306.7C703.5 300.7 698 293.5 700.6 286.4C701.5 283.9 704.1 281 700.4 279.5C697.4 278.3 693.8 280.4 691.2 277.7C692.3 278.8 694.4 276 695.1 275.5C697.4 273.8 700.2 273.4 702.9 272.9C709.2 271.6 715 268.4 721.3 267.5C727.8 266.5 733.3 269.6 739.5 270.8C744.2 271.7 752 269.4 746.9 263.6C746 262.3 745 261.6 744.1 260.9Z" fill="white"/>
<path d="M695.6 305.8C693.4 305.5 691.2 305.6 689 305.6C685.6 305.7 682.1 305.8 678.8 304.6C676.9 303.9 675.3 302.7 673.8 301.6C673.1 301 672.3 300.5 671.5 299.9C669.3 298.5 667 297.8 664.5 297L663.4 296.7C657.9 295 652.3 292.8 648.3 288.5C644.6 284.6 642.4 279.2 642.2 273.2C642.1 271.5 642.3 269.8 642.5 268.1C642.8 264.6 643.2 261.1 641.6 258C640.2 255.3 637.7 254.1 635.1 252.8C633.4 251.9 631.6 251.1 630.2 249.8C626.1 246.2 625.7 240.5 625.4 235.5C623.3 235.1 621.2 234.7 619.2 234.2C610.9 232.4 602.3 230.5 593.8 232.5C583.7 234.8 574.7 241.4 570.3 249.7C567.9 254.3 567 259.3 568 263.7C568.2 264.8 568.6 265.9 569 267C569.5 268.4 570 269.8 570.2 271.4C570.4 273 570.3 274.5 570.2 275.8L570.7 276.5C570.8 276.6 570.8 276.8 570.8 277C570.8 277.2 570.7 277.3 570.5 277.4C570.4 277.5 570.3 277.5 570.2 277.6C574.1 278.8 577.9 280.4 579.4 284.3C579.7 285.1 579.8 285.9 580 286.7C580.2 287.8 580.4 288.9 581 289.8C581.9 291.1 583.4 291.9 584.9 292.6L585.5 292.9C585.8 293 586.1 293.2 586.5 293.4C589.9 295.1 595.1 297.6 596.3 301.4C596.8 302.9 596.5 304.4 595.7 305.9C595.2 306.9 594.1 307.6 593.2 308.4C591.7 309.6 590.2 310.7 590.5 312.3C590.8 313.9 591.8 313.9 593.7 313.9C595.2 313.9 596.9 313.8 597.9 315.2C599.2 316.9 598.2 318.7 597.3 320.3C596.6 321.5 596 322.7 596.3 323.8C596.8 325.4 598.4 326 600.2 326.7C601.1 327 602.1 327.4 602.8 327.9C603 328 603.1 328.2 603.1 328.4C603.1 328.6 603 328.8 602.9 328.9C602.7 329 602.6 329.2 602.6 329.3C602.7 330.1 606 331.1 607.4 331.5C609.6 330.7 611.8 329.8 614.2 329.5C618.2 329 622.3 329.6 626.2 329.9C635.2 330.6 644.2 331.2 653.2 331.1C657.3 331 661.6 330.7 665.6 331.9C667.2 332.4 668.7 333.3 670.4 333.6C672.7 334 675 333.2 677.3 334C673.3 337.6 683.9 341.5 686.3 342.1C689.6 343 699.2 343 696.8 348.7C697.4 347.3 699.1 348.8 699.8 347.5C700.2 346.7 699.3 346 699.3 345.3C699.2 344 699.8 342.7 699.5 341.3C699.2 340 698.2 339 698 337.6C697.5 333 702.9 331.4 706.4 330.7C705.4 328.9 701.2 328.3 702.9 325.6C704.1 323.7 707.3 324.4 708.9 323C711.5 320.6 710.7 316.5 709.2 312.7C705.7 309 700.8 306.5 695.6 305.8ZM633.8 325.5C633.4 326.3 632.8 326.8 632.1 326.9C632 326.9 631.8 327 631.7 327C629.5 327 626.7 323.3 626.2 321.4C625.8 320 626.4 319.6 626.7 319.5C628.3 318.9 632.1 317.5 633.8 321.3C634.3 322.4 634.4 324.2 633.8 325.5Z" fill="white"/>
<path d="M645.2 138.8C641.6 139.6 638.2 141.7 636.2 144.7C635.3 146 634.8 147.4 634.2 148.9C633.3 151.4 632.4 153.7 630.1 154.8C629.3 155.2 628.2 155.4 627 155.7C624.7 156.2 622.4 156.7 621.4 158.4C620.8 159.3 620.7 160.5 621.1 162C621.9 165 624.8 166.4 627.4 167.7C628.4 168.2 629.3 168.6 630.1 169.1C630 169.2 629.9 169.2 629.8 169.3C627.8 170.3 624.5 171.9 625.8 174.8C626.8 176.9 629 176.4 630.7 176C631.4 175.9 632 175.7 632.5 175.7C633.9 175.7 635.2 176.4 635.7 177.4C636.1 178.2 636 179.1 635.4 180C634.8 180.9 633.8 181.3 632.8 181.8C632.2 182.1 631.5 182.4 630.9 182.8C630.4 183.1 630 183.5 629.6 183.9C628.8 184.6 628.1 185.3 627.2 185.3C627 185.3 626.8 185.4 626.7 185.5C626.6 185.7 626.6 185.8 626.6 186C627.9 190 631.4 192 634.9 193.9C635.4 194.2 635.9 194.4 636.3 194.7C633.2 196.7 632.4 200.1 631.5 203.5C631.3 204.3 631.1 205 630.9 205.8L630.3 205.5C630 206.2 629.5 206.6 628.9 206.7C627 207.1 624.1 205 622.1 203.5C621.5 203.1 621 202.7 620.6 202.5C614.8 198.8 609.3 197.3 604.1 197.9C601.8 198.2 599.4 198.8 596.9 199.4C590.2 201.2 583.3 203 578.3 197.9C576 195.5 575.6 192.7 575.2 189.8C574.9 187.9 574.7 185.9 573.9 183.9C571.7 178.7 567.1 179.5 563.4 180.8C555.1 183.7 546.9 184.1 538.2 184.5C535 184.6 531.6 184.8 528.3 185.1C521.6 185.7 515.9 186.9 510.9 188.9C510.1 189.2 509.3 189.6 508.4 190C504.8 191.6 501.1 193.3 497.6 191.5C495.8 190.6 494.3 188.8 492.7 187.1C489.5 183.5 485.8 179.4 480.1 184C477 186.5 475.5 190.2 474 193.7C472.7 196.7 471.4 199.9 469.1 202.2C461.8 209.6 450.6 206.5 444.7 204C441.5 202.7 439.1 200.6 436.5 198.5C434.8 197 433 195.5 430.9 194.2C428.3 192.6 425.4 192.5 422.6 192.5C420.9 192.5 419.1 192.5 417.4 192C413.2 191 411.8 187.9 410.9 183.7C409.7 177.7 408.1 173.4 405.8 169.6C410.7 166.2 415.2 161.6 419.6 156.9C420.9 155.5 422.2 154 423.4 152.6C425.8 149.9 428.3 147.1 430.9 144.6C432.5 143.1 434.7 142 436.9 140.9C439.6 139.5 442.4 138.1 444.2 135.8C445.6 134 445.2 131.9 444.8 130.3C444.3 128.2 444.1 126.9 446.7 126.3C447.6 126 448.6 126 449.6 125.9C450.5 125.8 451.4 125.7 452.4 125.5C453.3 125.3 454.1 125.1 455 124.9C457 124.4 459 123.9 461 123.7C460.9 124.8 460.5 126 460.1 127.2C459.2 130.1 458.1 133.5 460.4 136.1C462.5 138.4 465.1 137.2 467.2 136.3C467.9 136 468.6 135.7 469.2 135.5C471.5 134.8 473 135.6 474.8 136.5C475.9 137.1 477.1 137.6 478.5 137.9C480.3 138.2 481.7 137.9 483 137.5C484.9 137 486.2 136.6 487.9 139.1C489.7 141.7 492.7 144.9 497.4 141.9C499.4 140.6 500.6 138.6 501.8 136.7C502.9 134.9 504 133.2 505.7 132C506.3 131.6 506.9 131.2 507.5 130.8C508.6 130.1 509.8 129.4 510.9 128.4C511.3 128.1 511.6 127.7 512 127.4C513 126.5 513.9 125.6 515.1 125C516.7 124.1 520 124.1 521.1 125.2C521.6 125.7 521.6 126.6 521 127.6C520.9 127.8 520.9 128 521 128.2C521.1 128.4 521.3 128.5 521.5 128.5C521.7 128.5 521.8 128.5 521.8 128.5C521.9 128.6 522 129.3 520.4 132.1L520.3 132.3C520.2 132.5 520.2 132.7 520.3 132.8C520.4 133 520.5 133.1 520.7 133.1C521.8 133.3 522.7 132.8 523.5 132.5C524.1 132.2 524.6 132 525.2 131.9C526.3 131.8 527.4 132.4 528.5 133C528.8 133.2 529.2 133.3 529.5 133.5C529.7 133.6 529.9 133.6 530.1 133.5C530.3 133.4 530.4 133.2 530.4 133C530.2 130.5 531.4 130.2 533.7 129.9C535.2 129.7 537 129.5 538 128.1C538.1 128 538.1 127.8 538.1 127.7C538.1 127.5 538 127.4 537.9 127.3L536.6 126.3C539.3 123.2 543.4 121.9 546.3 121.3C546.5 121.3 546.8 121.2 547.2 121.2C548.8 121 551 120.7 551.7 119.4C551.9 119 552 118.5 551.9 117.9C554.9 117.2 557.7 115.8 559.8 113.8C559.9 113.7 560 113.5 560 113.3C560 113.1 559.9 113 559.8 112.9C558.9 112.2 557.7 112 556.5 112.3C555.8 112.5 555.2 112.8 554.7 113.2C554.3 112.3 553.6 111.6 552.9 110.9C552.6 110.6 552.4 110.4 552.1 110.1C552.3 110.1 552.5 110.2 552.7 110.3C553.6 110.6 554.8 111 555.7 110.1L556.5 110.9C556.7 111 556.9 111.1 557.1 111C557.3 110.9 557.5 110.7 557.5 110.5C557.6 110 557.8 109.6 558.2 109.5C558.8 109.2 559.6 109.3 560.5 109.4C560.5 109.5 561.6 109.8 561.7 109.7C563.2 110.1 564.7 110.8 565.4 111.3C568.3 113.2 567.7 115.7 566.9 118.6C566.5 120.1 566.1 121.6 566.2 123.1C566.3 124.7 566.8 125.9 567.8 126.7C569.6 128.2 572.6 127.8 575.3 127.4C575.6 127.3 575.8 127.3 576.1 127.2C577.6 126.9 579.1 126.6 580.3 127.4C581.2 128 581.9 128.8 582.6 129.8C583.3 130.8 584.1 131.8 585.2 132.5C585.5 132.7 585.9 132.9 586.4 133.2C588.2 134.3 591.3 136.1 591.2 137.5C591.2 138 590.7 138.6 589.7 139.1C589.4 139.2 589.1 139.3 588.7 139.4C587.7 139.6 586.3 139.9 586.2 141.5C586.1 142.4 586.5 142.9 586.8 143.1C587.9 144 589.9 143.7 591.8 143.3C594.5 142.7 597 141.8 599.5 140.9C602.8 139.7 606.2 138.4 609.8 138.1C611 138 612.2 138 613.4 138C617.5 137.9 621.8 137.9 624.8 134.6C625.6 133.8 626.1 132.7 626.6 131.6C627.3 130.2 628 128.8 629.3 128.1C631.3 127 633.5 127.9 635.7 128.9C636.4 129.2 637.1 129.5 637.8 129.7C638.2 129.8 638.6 129.9 639.1 130C640.9 130.5 642.6 130.9 643.1 132.6C643.2 132.9 643.2 133.6 643.1 134.3C643.2 135.7 643.8 138.1 645.2 138.8Z" fill="white"/>
<path d="M681.3 98.6999C679.4 99.5999 677.5 100.6 675.6 101.8C674.2 102.7 672.8 103.6 671.4 104.6C668 106.9 664.6 109.3 660.7 110.8L660 111.1C657.2 112.2 654 113.4 653.4 115.8C653 117.1 653.5 118.6 654.7 120.2C656.1 122 658 123.2 659.7 124.3C661.8 125.7 663.8 126.9 665.1 129.1C667.1 132.5 667.7 137.3 665.1 140C662.1 143.1 658.5 141.7 654.6 140.2C653 139.6 651.6 139 650.1 138.8C649 138.6 647.9 138.5 646.7 138.7C645.9 138.6 644.2 136.4 644.3 134.6C644.4 133.8 644.4 133 644.2 132.5C643.4 130.2 641.3 129.7 639.3 129.2C638.9 129.1 638.5 129 638.1 128.9C637.5 128.7 636.8 128.4 636.1 128.1C633.8 127.1 631.2 126 628.7 127.4C627.1 128.3 626.3 129.9 625.6 131.4C625.1 132.4 624.6 133.4 624 134.1C621.3 137 617.3 137 613.5 137.1C612.3 137.1 611 137.1 609.8 137.2C606.1 137.6 602.6 138.8 599.2 140.1C596.7 141 594.2 141.9 591.5 142.5C590.7 142.7 588.3 143.2 587.5 142.5C587.4 142.4 587.2 142.2 587.3 141.8C587.3 141.2 587.7 141.1 588.9 140.8C589.3 140.7 589.8 140.6 590.2 140.4C591.6 139.7 592.3 138.8 592.4 137.8C592.5 135.7 589.3 133.8 587 132.4C586.6 132.1 586.2 131.9 585.9 131.7C585 131.1 584.3 130.2 583.6 129.3C582.9 128.3 582.1 127.3 581 126.6C579.4 125.6 577.6 125.9 576 126.3C575.7 126.4 575.5 126.4 575.2 126.4C572.8 126.8 570.1 127.2 568.6 126C567.9 125.4 567.5 124.5 567.5 123.3C567.4 121.9 567.8 120.5 568.2 119.1C569 116.1 569.8 113 566.2 110.6C565.6 110.2 564.1 109.5 562.5 108.9C563.8 107.1 565.9 105.9 568.2 105.6C568.6 105.6 569.1 105.6 569.6 105.7C571.3 105.8 573.8 106 574.1 103.6C574.1 103.3 574 103.1 573.7 103C572.9 102.7 571.8 102.6 570.7 102.5C568 102.2 565 102 564.6 99.7999C564.3 98.3999 565.6 96.8999 566.7 95.4999C567.2 94.7999 567.8 94.1999 568.1 93.4999C569.8 90.3999 569.6 86.3998 569.4 83.1998C569.2 80.5998 569.1 77.6998 567 75.6998C566.5 75.1998 565.7 74.7999 564.9 74.3999C563.8 73.8999 562.5 73.1998 562.3 72.5998C562.2 72.1998 562.2 71.9999 562.2 71.8999C562.7 71.8999 563.8 72.5999 564.3 72.8999C565.2 73.3999 565.5 73.5998 565.9 73.5998C567.5 73.4999 567.8 72.0999 568 71.2999C568.2 70.2999 568.3 70.0998 568.8 70.0998C569 70.0998 569.2 69.9999 569.3 69.7999C569.4 69.5999 569.4 69.3998 569.3 69.1998C567.7 66.3998 565.1 67.6999 563 68.7999C562.3 69.1999 561.6 69.4998 561 69.6998C561 69.5998 561.1 69.3999 561.2 69.2999C561.6 68.1999 562.2 66.8999 561.6 65.8999C561.1 65.0999 560.3 65.0998 559.6 64.9999C559.3 64.9999 559.1 64.9999 558.9 64.8999C559.5 64.5999 560.1 64.1999 560.7 63.7999C561.6 63.1999 562.4 62.6999 563.4 62.3999C563.6 62.2999 563.8 62.0999 563.8 61.8999C563.8 61.6999 563.7 61.4999 563.5 61.3999C563.7 61.2999 563.8 61.1999 563.9 60.9999C564 60.7999 563.9 60.5998 563.8 60.4999C563 59.2999 561.3 59.4999 559.7 59.6999C558.6 59.7999 557.4 59.8999 557 59.4999C556.8 59.2999 556.8 58.9999 556.9 58.4999C557 57.8999 557.5 57.4999 558.1 56.9999C558.8 56.3999 559.6 55.6999 559.9 54.6999C560.2 53.4999 559.9 52.2999 559.4 51.0998C560.8 50.7999 562.2 50.0998 563.3 49.5998C565.7 48.3998 567.5 47.7999 570.1 48.5998C572 49.0998 573.7 50.3999 575.7 50.4999C578.5 50.5999 580 48.3999 582.1 46.8999C587 43.3999 593.3 42.7999 598.2 39.1999C600.6 37.3999 602.7 35.3998 605.5 34.0998C608.4 32.7998 611.6 31.9999 614.6 30.9999C617.8 29.8999 621 28.7999 624.1 27.3999C626 26.4999 628.8 24.5999 630.9 26.0999C629.8 25.4999 628.8 27.3999 628 27.6999C631.6 28.5999 626.3 33.0998 624.8 33.5998C623.3 34.0998 620.3 32.9999 620.1 35.3999C620 37.0999 622.6 38.0999 623.7 38.7999C634.6 45.3999 646.1 51.5999 655.2 60.6999C663.9 69.3999 669.8 80.3999 676.4 90.6999C677.9 93.3998 679.6 96.0999 681.3 98.6999Z" fill="white"/>
<path d="M759.3 218.8C760.1 212.3 758.7 204.7 757 198.1C754.5 187.9 748.9 178.2 741 170.2C737.1 166.2 732.6 162.6 728.3 159.2L726.8 158C723.7 155.5 719 151.8 721.7 147C722.5 145.5 723.8 144.5 725.1 143.6C725.7 143.1 726.3 142.7 726.8 142.2C728.7 140.4 730.2 138.1 731.8 135.5C734.2 131.6 736.2 127.5 738 123.5C737.7 123.5 737.3 123.4 737 123.4C734.3 123.3 731.5 124.6 728.8 124.2C725.6 123.7 724.3 120.1 721.5 118.7C718.2 117 717.8 115.1 715.6 112.3C713.5 109.7 710.5 109.2 707.5 110.7C704.3 112.3 703 115.8 700.4 118.1C699 119.4 695.4 121.1 696 123.5C691.7 119.2 689.5 113.5 686.8 108.3C685.3 105.4 683.7 102.6 681.9 99.8999C680 100.8 678.1 101.8 676.2 103C674.8 103.9 673.4 104.8 672.1 105.7C668.7 108 665.2 110.4 661.2 112L660.5 112.3C658.1 113.2 655.1 114.4 654.6 116.3C654.3 117.2 654.7 118.4 655.7 119.7C657 121.3 658.7 122.4 660.4 123.5C662.6 124.9 664.8 126.3 666.2 128.7C668.3 132.3 669.2 137.7 666 141C662.5 144.6 658.1 143 654.2 141.5C652.7 140.9 651.3 140.4 649.9 140.1C645.3 139.2 639.8 141.6 637 145.6C636.2 146.7 635.7 148.2 635.2 149.5C634.2 152.1 633.3 154.7 630.5 156.1C629.6 156.5 628.4 156.8 627.2 157.1C625.2 157.5 623.1 158 622.3 159.3C621.9 160 621.8 160.8 622.1 162C622.7 164.5 625.3 165.7 627.8 166.9C629.2 167.6 630.5 168.2 631.5 169C631.6 169.1 631.7 169.3 631.7 169.5C631.7 169.7 631.6 169.9 631.4 170C631.1 170.2 630.6 170.4 630.1 170.7C627.8 171.9 625.9 173 626.7 174.7C627.2 175.9 628.4 175.7 630.3 175.3C631 175.1 631.7 175 632.3 175C634.1 175 635.8 175.9 636.5 177.3C637.1 178.5 637 179.9 636.1 181.1C635.3 182.3 634.1 182.8 633 183.3C632.4 183.6 631.8 183.8 631.3 184.2C630.9 184.4 630.6 184.8 630.2 185.2C629.5 185.9 628.8 186.6 627.8 186.9C629.1 190 632.2 191.8 635.3 193.5C636.1 194 636.9 194.4 637.6 194.9C637.8 195 637.9 195.2 637.9 195.4C637.9 195.6 637.8 195.8 637.6 195.9C634.3 197.5 633.4 200.9 632.5 204.4C632.1 205.9 631.7 207.5 631.1 208.9C630.8 209.6 630.2 210.5 629.7 211.4C628.3 213.8 626.4 216.8 627.5 218.8C628.5 220.7 631.6 220.3 632.9 220.1C634.2 219.9 635.4 219.6 636.6 219.3C639 218.7 641.2 218.2 643.9 218.1C645.9 218 647.9 217.7 649.9 217.4C651.3 217.2 652.7 217 654.1 216.9C657.6 216.6 660.1 217.8 662.8 219.2C663.3 219.4 663.7 219.7 664.2 219.9C666.1 220.8 667.8 221 669.8 221.1C670.6 221.2 671.4 221.2 672.3 221.4C675.5 221.9 676.8 223.6 678.3 225.6C678.6 226 679 226.5 679.3 226.9C682.1 230.3 685.2 229.2 688.8 227.9C690.2 227.4 691.7 226.9 693.2 226.7C696.3 226.2 698.6 227.5 701.3 229.1C704.9 231.3 708.4 232.6 711.7 233.8C714.6 234.8 717.7 235.9 721.2 236.1H722C724.7 236.2 725.9 236.3 726.1 239.6C726.3 243.3 728.6 245.6 731 247.9C732.7 249.6 734.4 251.3 735.6 253.6C736 254.5 736.2 255.5 736.4 256.5C736.8 258.3 737.1 259.9 738.5 260.8C739.9 261.8 741.3 261.2 742.9 260.5H743C742.4 259.9 741.8 259.2 741.4 258.3C740.2 255.4 741.5 252.3 742.9 249.7C745.6 244.6 748.3 240.3 749.9 234.7C751.8 228 754.2 221 759.3 218.8Z" fill="white"/>
<path d="M505.6 347C505.4 346.9 505.2 346.8 505 346.8C503.3 346 502.2 344.7 501.1 343.4C500.5 342.7 500 342.1 499.3 341.5C498.5 340.7 497.5 340.2 496.5 339.6C495.5 339 494.5 338.5 493.6 337.7C491.9 336.2 491.5 334.5 491.1 332.7C491 332.2 490.9 331.6 490.7 331.1C489.7 327.7 486.4 325.9 483.3 324.1C479.4 321.9 475.4 319.7 475.5 314.4C475.6 311.2 477.2 308.3 478.7 305.5C479.8 303.5 481 301.4 481.5 299.3C482.9 293.4 481.2 287.6 479.2 281.6C478.6 280 478.1 278.4 477.5 276.8C476 272.6 474.4 268.3 473.4 263.8C473.3 263.3 473.2 262.9 473.1 262.4C472.6 260 472 257.6 470.7 255.5C470.2 254.7 469.6 254 468.9 253.2C468 252.2 467.2 251.2 466.6 249.9C465.1 249.9 463.6 249.9 462.1 249.8C459.8 249.8 457.4 249.7 455.1 249.6C446.2 249.4 436.9 249.1 427.8 249.9C428.7 251.4 429.3 253.2 429.5 255.1C429.7 257.1 429.2 258.9 428.6 260.7C428.3 261.8 427.9 263 427.8 264.2C427.4 267.5 429.1 268.9 431.6 271C435.9 274.6 435.1 278.5 434.3 282.7C434 284 433.8 285.4 433.7 286.8C433.3 291.5 435.8 293.1 438.9 295.1C440.2 295.9 441.5 296.8 442.7 297.9C447.4 302.3 444.6 306.9 442.2 310.9C441.7 311.7 441.2 312.5 440.8 313.3C439.6 315.6 438.2 319.2 438.8 320.1C438.8 320.2 439 320.3 439.5 320.2C439.8 320.2 440 320.3 440.1 320.6C440.2 320.9 440.1 321.1 439.9 321.3C439.7 321.4 439.7 321.6 439.8 322.1C439.9 322.5 440 323.1 439.7 323.6C439.3 324.3 438.6 324.8 438 325.2L437.7 325.4C436.4 326.4 435 327 433.6 327.6C433.1 327.8 432.6 328 432.1 328.3C428.3 330.1 424.7 332.3 421.6 334.9C420.8 335.5 420 336.2 419.2 336.9C415.8 339.8 412 343.1 408.1 343.1C407.9 343.1 407.7 343.1 407.5 343.1C407.3 343.1 407.1 343 406.9 343C406.9 343.6 406.8 344.2 406.7 344.8C406.1 344.5 405.5 344.2 404.9 344C404.6 347.4 401.9 351.9 405.4 354.6C407.8 356.5 411.4 355.5 414 357.1C419 360.4 415.3 367.6 417.7 372.2C421 378.5 429.4 375.5 434.9 374.9C441.1 374.2 449.7 377.4 446.3 385.2C450.3 385.6 454.3 394 458.1 388.5C460 385.8 459.5 382.1 461.3 379.2C463.3 375.9 466.7 373.5 469.6 371.1C472.7 368.6 475.7 366 479.2 364C482.6 362.1 486.3 360.8 489.5 358.5C492.4 356.4 494.8 353.7 497.9 352.1C500.9 350.6 504.5 350 506.7 347.3C506 347.6 505.7 347.4 505.6 347ZM480.2 350.9C479.3 351.3 478.2 351.5 477.1 351.5C474.9 351.5 472.6 350.6 471.6 348.7C470.8 347.2 470.9 344.8 471.8 343.3C472.4 342.3 473.3 341.8 474.4 341.8C477.2 341.6 481.9 344.3 482.6 347.2C482.9 348.1 482.8 349.8 480.2 350.9Z" fill="white"/>
<path d="M627.1 320.6C627 321 627.7 322.6 629.1 324.2C630.1 325.3 631.2 326 631.8 325.9C632.2 325.8 632.5 325.5 632.8 325.1C633.3 324.2 633.1 322.7 632.7 321.9C631.8 319.8 630.2 319.4 627.1 320.6Z" fill="white"/>
<path d="M836.6 158.6C834.8 157.7 832.6 156.7 832.2 154.5C831.7 152 833.9 150.6 835.2 148.8C832.2 148.8 830 150.9 827.7 152.5C824.8 154.5 821.8 155.6 818.3 155.8C813.3 156.1 807.1 155.8 803.1 152.5C800.6 150.5 800.1 147.6 798.8 144.9C797.2 141.7 794.7 140.5 791.4 139.5C785.9 137.7 783.5 134.5 780.9 129.6C775.8 120.3 764 114.3 753.7 118.9C751.1 120 749.3 122.3 746.7 123.4C744.4 124.4 742.1 124 739.8 123.7C737.9 127.9 735.8 132.2 733.3 136.3C731.7 139 730.2 141.4 728.1 143.4C727.5 143.9 726.9 144.4 726.2 144.9C725 145.8 723.9 146.6 723.2 147.8C721.4 151.2 724.2 153.9 727.9 156.8L729.4 158C733.8 161.5 738.3 165.1 742.3 169.1C750.4 177.3 756.1 187.3 758.7 197.8C760.3 204.3 761.7 211.8 761.1 218.3C762.9 217.9 765 218 767.4 218.8C772.9 220.6 778.3 220.9 783.8 222.2C784.6 222.4 793.1 225 791.4 226.2C795.5 227.4 798.6 223.3 801.8 221.4C805 219.5 809.4 219 811.3 215.4C813.8 210.6 810.5 205.3 809.7 200.5C808.9 196.2 809.2 191.1 812.4 187.7C817.5 182.3 826.3 184.8 831.5 179.8C835 176.5 833.6 171.9 835.4 168C836.8 164.7 841.5 161.1 836.6 158.6Z" fill="white"/>
<path d="M601.3 329.1C601.3 328.9 601.3 328.6 601.4 328.2C600.9 327.9 600.2 327.7 599.6 327.5C597.7 326.8 595.5 326.1 594.9 323.8C594.5 322.3 595.3 320.8 596 319.4C596.9 317.7 597.4 316.6 596.7 315.6C596 314.7 594.8 314.7 593.4 314.8C591.6 314.8 589.4 314.9 589 312.3C588.6 310 590.5 308.5 592.1 307.2C593 306.5 593.9 305.8 594.3 305C595 303.8 595.2 302.6 594.8 301.4C593.8 298.1 588.7 295.6 585.6 294.1C585.2 293.9 584.9 293.8 584.6 293.6L584 293.3C582.5 292.5 580.7 291.7 579.7 290.1C579 289 578.8 287.8 578.6 286.6C578.5 285.8 578.3 285.1 578.1 284.4C576.7 280.7 572.8 279.3 569 278.2C568.8 278.2 568.7 278.1 568.6 277.9C568.5 277.8 568.5 277.6 568.6 277.4C568.7 277 568.9 276.7 569.2 276.4L568.9 276C568.8 275.9 568.8 275.8 568.8 275.6C568.9 274.3 569 272.8 568.8 271.3C568.6 269.9 568.1 268.6 567.6 267.2C567.2 266.1 566.8 265 566.6 263.8C565.7 259.4 566.4 254.5 568.7 249.8C558.9 249.8 549.2 249.8 539.4 249.7C525.7 249.7 511.5 249.6 497.5 249.6C494.6 249.6 491.7 249.6 488.7 249.6C481.8 249.6 474.7 249.7 467.6 249.6C468.1 250.5 468.8 251.3 469.5 252.1C470.1 252.9 470.8 253.6 471.4 254.5C472.8 256.7 473.4 259.3 474 261.7C474.1 262.2 474.2 262.6 474.3 263C475.4 267.4 476.9 271.7 478.4 275.8C479 277.4 479.6 279 480.1 280.7C482.2 286.8 483.9 292.8 482.5 299C482 301.3 480.8 303.5 479.6 305.5C478.1 308.3 476.6 310.9 476.5 313.9C476.4 318.4 480 320.4 483.7 322.5C487.1 324.4 490.5 326.3 491.7 330.2C491.9 330.8 492 331.3 492.1 331.9C492.5 333.6 492.8 335 494.3 336.3C495.1 337 496 337.5 497 338.1C498 338.7 499.1 339.3 500 340.1C500.7 340.7 501.3 341.5 501.9 342.1C502.9 343.3 503.9 344.5 505.4 345.2C505.5 345.2 505.5 345.2 505.6 345.3C505.9 344.3 506.4 343.2 506.6 342.9C507.5 341.6 508.7 340.9 509.3 339.5C510 337.9 510 336.2 511.2 334.8C514.5 330.9 521 332.1 525.5 332.6C533.2 333.6 540.5 335.5 547.5 338.9C552.1 341.1 557.5 343.8 560.1 337.6C562.3 332.4 561.2 326.1 567.3 323.4C573 320.9 579.7 323.8 584.9 326.4C590.9 329.4 597 333.4 604 331.7C604.5 331.6 604.9 331.5 605.3 331.3C603.2 331 601.5 330.2 601.3 329.1Z" fill="white"/>
<path d="M192.8 150.3C191.6 150.3 190.4 149.8 189.5 148.9C188.6 148 188.1 146.8 188.1 145.5C188.1 144.2 188.6 143 189.5 142.1C190.4 141.2 191.6 140.7 192.8 140.7C194 140.7 195.2 141.2 196.1 142.1C197 143 197.5 144.2 197.5 145.5C197.5 146.1 197.4 146.7 197.1 147.3C196.9 147.9 196.5 148.4 196.1 148.8C195.7 149.2 195.2 149.6 194.6 149.8C194 150.2 193.4 150.3 192.8 150.3ZM192.8 132.3C189.4 132.3 186 133.7 183.6 136.2C181.2 138.7 179.8 142.1 179.8 145.6C179.8 155.6 192.8 170.3 192.8 170.3C192.8 170.3 205.8 155.6 205.8 145.6C205.8 142.1 204.4 138.7 202 136.2C199.5 133.7 196.2 132.3 192.8 132.3Z" fill="black"/>
<path d="M157.8 304.3C156.6 304.3 155.4 303.8 154.5 302.9C153.6 302 153.1 300.8 153.1 299.5C153.1 298.2 153.6 297 154.5 296.1C155.4 295.2 156.6 294.7 157.8 294.7C159 294.7 160.2 295.2 161.1 296.1C162 297 162.5 298.2 162.5 299.5C162.5 300.1 162.4 300.7 162.1 301.3C161.9 301.9 161.5 302.4 161.1 302.8C160.7 303.2 160.2 303.6 159.6 303.8C159 304.2 158.4 304.3 157.8 304.3ZM157.8 286.3C154.4 286.3 151 287.7 148.6 290.2C146.2 292.7 144.8 296.1 144.8 299.6C144.8 309.6 157.8 324.3 157.8 324.3C157.8 324.3 170.8 309.6 170.8 299.6C170.8 296.1 169.4 292.7 167 290.2C164.5 287.7 161.2 286.3 157.8 286.3Z" fill="black"/>
<path d="M465.8 322.3C464.6 322.3 463.4 321.8 462.5 320.9C461.6 320 461.1 318.8 461.1 317.5C461.1 316.2 461.6 315 462.5 314.1C463.4 313.2 464.6 312.7 465.8 312.7C467 312.7 468.2 313.2 469.1 314.1C470 315 470.5 316.2 470.5 317.5C470.5 318.1 470.4 318.7 470.1 319.3C469.9 319.9 469.5 320.4 469.1 320.8C468.7 321.2 468.2 321.6 467.6 321.8C467 322.2 466.4 322.3 465.8 322.3ZM465.8 304.3C462.4 304.3 459 305.7 456.6 308.2C454.2 310.7 452.8 314.1 452.8 317.6C452.8 327.6 465.8 342.3 465.8 342.3C465.8 342.3 478.8 327.6 478.8 317.6C478.8 314.1 477.4 310.7 475 308.2C472.5 305.7 469.2 304.3 465.8 304.3Z" fill="black"/>
<path d="M573.8 268.3C572.6 268.3 571.4 267.8 570.5 266.9C569.6 266 569.1 264.8 569.1 263.5C569.1 262.2 569.6 261 570.5 260.1C571.4 259.2 572.6 258.7 573.8 258.7C575 258.7 576.2 259.2 577.1 260.1C578 261 578.5 262.2 578.5 263.5C578.5 264.1 578.4 264.7 578.1 265.3C577.9 265.9 577.5 266.4 577.1 266.8C576.7 267.2 576.2 267.6 575.6 267.8C575 268.2 574.4 268.3 573.8 268.3ZM573.8 250.3C570.4 250.3 567 251.7 564.6 254.2C562.2 256.7 560.8 260.1 560.8 263.6C560.8 273.6 573.8 288.3 573.8 288.3C573.8 288.3 586.8 273.6 586.8 263.6C586.8 260.1 585.4 256.7 583 254.2C580.5 251.7 577.2 250.3 573.8 250.3Z" fill="black"/>
<path d="M648.8 286.3C647.6 286.3 646.4 285.8 645.5 284.9C644.6 284 644.1 282.8 644.1 281.5C644.1 280.2 644.6 279 645.5 278.1C646.4 277.2 647.6 276.7 648.8 276.7C650 276.7 651.2 277.2 652.1 278.1C653 279 653.5 280.2 653.5 281.5C653.5 282.1 653.4 282.7 653.1 283.3C652.9 283.9 652.5 284.4 652.1 284.8C651.7 285.2 651.2 285.6 650.6 285.8C650 286.2 649.4 286.3 648.8 286.3ZM648.8 268.3C645.4 268.3 642 269.7 639.6 272.2C637.2 274.7 635.8 278.1 635.8 281.6C635.8 291.6 648.8 306.3 648.8 306.3C648.8 306.3 661.8 291.6 661.8 281.6C661.8 278.1 660.4 274.7 658 272.2C655.5 269.7 652.2 268.3 648.8 268.3Z" fill="black"/>
</g>
<defs>
<clipPath id="clip0_228_68">
<rect width="838.8" height="413.5" fill="white"/>
</clipPath>
</defs>
</svg>
