<svg width="78" height="78" viewBox="0 0 78 78" fill="none" xmlns="http://www.w3.org/2000/svg">
<g clip-path="url(#clip0_26_3753)">
<path fill-rule="evenodd" clip-rule="evenodd" d="M39.4999 68C55.24 68 68 55.24 68 39.5C68 23.7598 55.24 11 39.4999 11C23.76 11 11 23.7598 11 39.5C11 55.24 23.76 68 39.4999 68Z" fill="white"/>
<path fill-rule="evenodd" clip-rule="evenodd" d="M38.9817 66.7861C54.3288 66.7861 66.7709 54.3438 66.7709 38.9964C66.7709 23.6494 54.3288 11.2073 38.9817 11.2073C23.634 11.2073 11.1919 23.6494 11.1919 38.9964C11.1919 54.3438 23.634 66.7861 38.9817 66.7861ZM38.9997 78C17.4611 78 0 60.5387 0 38.9997C0 17.4613 17.4611 0 38.9997 0C60.5389 0 78 17.4613 78 38.9997C78 60.5387 60.5389 78 38.9997 78Z" fill="#2F498F"/>
<path fill-rule="evenodd" clip-rule="evenodd" d="M51.7642 59.3843C51.3281 59.2182 50.8611 59.0944 50.4081 59C50.1005 59.0717 49.5735 59.153 48.7118 59.2393C47.3556 59.3745 46.0114 61.6897 42.4291 62.3019C39.8491 62.7439 38.0548 62.5681 37.3168 62.2272L36.9444 62.5643C36.4515 62.9748 36.1133 63.0695 36.0156 63.4003C35.9192 63.731 36.2832 63.9037 36.738 63.9055C37.2 63.9203 37.7874 63.5098 37.7874 63.5098C37.7874 63.5098 37.8642 63.8371 38.283 63.8662C38.7109 63.8957 39.4728 63.6201 39.4728 63.6201C39.4728 63.6201 40.1113 63.879 40.6022 63.8191C41.0932 63.7521 41.5069 63.4575 41.5069 63.4575C41.5069 63.4575 41.646 63.9854 42.1215 63.9997C42.6057 64.0145 43.3574 63.415 43.3574 63.415C43.3574 63.415 43.7166 63.803 44.1628 63.7424C44.6111 63.6888 45.1531 63.1888 45.1531 63.1888C45.1531 63.1888 45.7045 63.402 46.2314 63.2583C46.7482 63.107 47.2407 62.5939 47.2407 62.5939C47.2407 62.5939 47.7077 62.9541 48.1249 62.8169C48.5486 62.6815 48.8167 62.1296 48.8167 62.1296C48.8167 62.1296 49.9496 62.5353 50.6892 62.1962C51.2127 61.9501 51.0586 61.1845 51.0586 61.1845C51.0586 61.1845 54.1552 61.5659 53.9939 59.6744C53.9865 59.611 53.4723 59.5801 52.7013 59.557C52.3821 59.5473 52.061 59.4983 51.7642 59.3843Z" fill="#2F498F"/>
<path fill-rule="evenodd" clip-rule="evenodd" d="M63.6545 43.1646C63.111 42.5724 59.7448 46.5343 59.621 45.7498C59.5888 45.4919 64.8807 39.5961 63.8722 37.7848C63.6087 37.3069 59.6649 44.7937 59.0926 44.1601C58.9332 43.9816 62.4438 36.7774 61.8626 36.0611L61.7403 36C61.4399 36.0098 60.9589 37.0734 60.4327 38.2383C59.8262 39.568 59.181 41.0306 59.04 41.2139C58.8989 41.4042 59.1624 38.4052 59.0064 37.4888C58.952 37.1047 58.51 37.2788 58.51 37.2788C58.0025 46.6187 48.7496 53.6623 41.3225 54.7754C39.3882 55.0649 38.7855 55.9501 36.6931 57.1176C35.9898 57.5167 34.8913 57.7034 33.9535 58.223C33.0176 58.7425 32.3488 59.5181 32.0465 60.0011C31.8933 60.2329 32.1533 61.1163 32.3246 60.9872C32.4792 60.8713 32.5033 60.4841 32.7239 60.3767C32.943 60.2693 33.7599 60.3087 33.7599 60.3087L36.6826 60.5055L36.6839 60.5011C36.6839 60.5011 36.7753 60.5112 36.9404 60.5242L37.443 60.5575C39.1309 60.6517 43.1916 60.6832 45.1113 59.0157C46.2574 57.9471 46.5086 57.4157 48.3771 57.3215L50.3215 57.0599C50.5916 57.0234 50.8498 56.9293 51.0755 56.7818L51.2151 56.6927C51.8011 56.3172 52.4495 56.051 53.1289 55.8854C53.6964 55.7465 54.3482 55.5595 55.3097 55.2536C57.4448 54.5738 54.7426 54.557 55.1826 54.2657C55.6154 53.9829 57.4886 54.0989 57.5483 53.7002C57.6209 53.2402 56.5157 53.3926 56.5412 53.1427C56.5667 52.8979 58.8102 52.8783 58.9257 52.3123C58.9916 51.9915 57.645 52.2297 57.9608 51.8357C58.2833 51.4423 60.0771 51.3378 60.1178 50.5904C60.1464 50.1519 58.6604 50.6995 58.8559 50.3338C58.9338 50.1951 59.5319 50.0275 60.1263 49.6159C61.0555 48.9772 62.5344 47.8725 62.441 47.247C62.3307 46.4891 59.3686 49.0683 59.6202 48.0891C59.7018 47.7468 64.452 44.0395 63.6537 43.1646" fill="#2F498F"/>
<path fill-rule="evenodd" clip-rule="evenodd" d="M33.4342 57.9647C36.3291 57.624 37.5799 56.1308 38 55.4608L37.6962 55.4509C27.2357 54.9255 19.8829 46.664 19.0962 38.3229C19.0962 38.3229 18.654 38.1597 18.6015 38.5452C18.4719 39.4714 18.9054 42.3015 18.7536 42.1068C18.4799 41.7542 16.3664 36.4655 16.0037 37.0442C15.5157 37.8203 18.3772 43.8408 18.2235 44.017C17.6713 44.6754 14.3917 38.163 14.1332 38.6502C13.185 40.4955 18.1895 46.3846 18.1573 46.6373C18.053 47.4303 14.3663 43.4835 14.0659 43.9156C13.3959 44.8817 18.0512 48.3466 18.2895 48.6178C19.0081 49.4056 15.7488 47.2192 15.6593 47.9909C15.5885 48.6222 17.2531 49.8678 18.2402 50.4027C19.2346 50.9367 19.545 50.7638 19.8354 51.2308C20.0532 51.5768 17.9857 51.0218 18.0478 51.469C18.1729 52.3351 20.3235 52.1273 20.6474 52.5147C20.98 52.9034 19.1857 52.6244 19.26 52.945C19.3948 53.5105 21.2144 53.5802 21.2467 53.8163C21.2854 54.0691 20.1038 53.9078 20.1801 54.3701C20.2488 54.7741 22.0385 54.6693 22.4753 54.9436C22.9195 55.218 20.8773 55.005 22.472 55.7549C24.0658 56.5065 25.8889 57.3378 28.3737 57.7767C29.0743 57.8997 31.3594 58.0759 33.4342 57.9647Z" fill="#2F498F"/>
<path d="M38.5775 27.6481L42.8981 30.9959C43.4534 30.7832 44.1816 30.4997 44.8915 30.2675C45.7388 29.9937 45.9346 29.5078 46.0302 28.5237C46.1196 25.926 46.0498 25.6242 44.9508 25.7214C43.4333 26.0134 44.5622 27.5608 44.4846 27.5015C43.9971 27.1622 43.8799 27.0632 43.8126 26.3246C41.7892 30.0418 44.9905 28.5335 44.8835 28.7299C44.5323 29.333 41.779 30.0731 42.4497 27.4917C42.5286 27.18 42.6739 26.8408 42.8584 26.4895C42.5963 26.7828 42.3146 27.0254 42.0411 27.2001C39.7933 28.6307 39.6466 25.7793 40.1146 25.2636C40.2615 25.0986 39.8134 28.6126 42.7332 25.5355C42.0032 25.7018 41.8761 25.6144 41.3982 25.2636C41.3213 25.2056 43.1516 25.799 42.9556 24.2712C42.7033 23.1901 42.4021 23.2195 39.9504 24.1062C39.0454 24.4954 38.6452 24.8449 38.6452 25.7299C38.6452 26.3924 38.6154 27.0849 38.5775 27.6481ZM42.9457 31.1327L41.2829 36.224C41.6622 36.681 42.1583 37.2939 42.5963 37.8873C43.1218 38.6073 43.6477 38.647 44.6014 38.4329C47.1112 37.7126 47.3733 37.5574 46.9463 36.5455C46.1967 35.1924 45.068 36.7483 45.0961 36.6627C45.282 36.0876 45.3399 35.9508 46.0219 35.649C41.8565 34.8809 44.2787 37.4589 44.0563 37.4108C43.374 37.2641 41.8284 34.8809 44.4846 34.7145C44.806 34.6962 45.175 34.7244 45.564 34.8019C45.203 34.6369 44.8835 34.4426 44.6397 34.238C42.5767 32.545 45.2427 31.5219 45.8856 31.805C46.0799 31.9022 42.6061 32.5535 46.4306 34.3847C46.0499 33.7418 46.0897 33.5954 46.274 33.0314C46.3041 32.9427 46.3041 34.8612 47.7044 34.2085C48.6487 33.6348 48.5315 33.3531 46.9267 31.2977C46.274 30.559 45.8277 30.2857 44.9905 30.559C44.2787 30.7832 43.5207 30.9861 42.9457 31.1327ZM41.1662 36.3016C39.3846 36.3792 37.6135 36.3792 35.8339 36.3016C35.5127 36.8076 35.0844 37.4687 34.646 38.0732C34.1201 38.7821 34.2472 39.2998 34.7432 40.1468C36.2132 42.3076 36.437 42.5025 37.2739 41.7821C38.3239 40.6529 36.5047 40.0581 36.6019 40.0581C37.1968 40.0581 37.3514 40.068 37.8377 40.6234C37.2842 36.4366 35.5804 39.5241 35.5608 39.3096C35.4832 38.6073 37.2739 36.4086 38.2562 38.881C38.3729 39.1732 38.4603 39.5323 38.5 39.9211C38.5378 39.5323 38.6252 39.1732 38.7424 38.881C39.726 36.4086 41.5156 38.6073 41.4381 39.3096C41.4185 39.5241 39.7162 36.4366 39.1625 40.6234C39.6467 40.068 39.8036 40.0581 40.3968 40.0581C40.4939 40.0581 38.6747 40.6529 39.726 41.7821C40.5632 42.5025 40.7853 42.3076 42.2554 40.1468C42.7514 39.2998 42.878 38.7821 42.3525 38.0732C41.9144 37.4687 41.4875 36.8076 41.1662 36.3016ZM35.7172 36.224L34.0528 31.1327C33.4793 30.9861 32.7198 30.7832 32.0094 30.559C31.1725 30.2857 30.7241 30.559 30.0735 31.2977C28.4666 33.3531 28.3498 33.6348 29.2938 34.2085C30.6965 34.8612 30.6965 32.9427 30.7241 33.0314C30.9104 33.5954 30.9483 33.7418 30.5695 34.3847C34.394 32.5535 30.9203 31.9022 31.115 31.805C31.7559 31.5219 34.4218 32.545 32.3589 34.238C32.1164 34.4426 31.7955 34.6369 31.4359 34.8019C31.8249 34.7244 32.194 34.6962 32.5153 34.7145C35.1717 34.8809 33.6241 37.2641 32.9436 37.4108C32.7198 37.4589 35.1416 34.8809 30.9782 35.649C31.6587 35.9508 31.718 36.0876 31.9025 36.6627C31.932 36.7483 30.8034 35.1924 30.0539 36.5455C29.6251 37.5574 29.8869 37.7126 32.3986 38.4329C33.3523 38.647 33.8784 38.6073 34.4038 37.8873C34.8404 37.2939 35.3364 36.681 35.7172 36.224ZM34.1021 30.9959L38.4211 27.6481C38.3832 27.0849 38.3534 26.3924 38.3534 25.7299C38.3534 24.8449 37.9545 24.4954 37.0502 24.1062C34.5982 23.2195 34.2968 23.1901 34.0426 24.2712C33.8483 25.799 35.6776 25.2056 35.6 25.2636C35.124 25.6144 34.997 25.7018 34.2667 25.5355C37.1866 28.6126 36.7387 25.0986 36.8853 25.2636C37.3514 25.7793 37.2048 28.6307 34.9571 27.2001C34.6855 27.0254 34.4038 26.7828 34.1402 26.4895C34.3247 26.8408 34.4715 27.18 34.5484 27.4917C35.2212 30.0731 32.4658 29.333 32.1164 28.7299C32.0094 28.5335 35.2113 30.0418 33.186 26.3246C33.1183 27.0632 33.0015 27.1622 32.5153 27.5015C32.4378 27.5608 33.5666 26.0134 32.0473 25.7214C30.9483 25.6242 30.881 25.926 30.9684 28.5237C31.0655 29.5078 31.2599 29.9937 32.1066 30.2675C32.817 30.4997 33.547 30.7832 34.1021 30.9959ZM42.8205 38.4526C43.1895 38.9488 43.8224 39.2704 44.4846 39.0858C45.2721 38.8712 46.6151 38.5023 47.014 38.3848C47.5676 38.2381 48.1527 37.7701 48.2303 37.187C48.2793 36.8473 48.1808 36.4862 47.9187 36.117C47.6469 35.7265 47.2186 35.4149 46.7304 35.1827C47.2578 35.2799 47.7917 35.2798 48.2499 35.1234C48.6684 34.978 48.9701 34.744 49.1247 34.4427C49.4082 33.9164 49.2121 33.1964 48.8529 32.7479C48.5908 32.4283 47.7244 31.3272 47.2186 30.6945C46.7801 30.1587 46.0799 30.0419 45.4965 30.2278C46.0799 30.0419 46.5759 29.5275 46.6151 28.8349C46.6535 28.0276 46.7128 26.6362 46.7304 26.2176C46.7618 25.6443 46.4886 24.9519 45.9527 24.6899C45.6514 24.5334 45.2721 24.5236 44.8439 24.6502C44.3857 24.787 43.9592 25.1085 43.5884 25.4976C43.842 25.0211 44.0069 24.5133 43.9971 24.0372C43.9873 23.5887 43.8616 23.2392 43.6178 22.9954C43.2092 22.5569 42.4595 22.529 41.9242 22.7234C41.5352 22.8685 40.2321 23.3662 39.472 23.648C38.8297 23.9003 38.5 24.5236 38.5 25.1463C38.5 24.5236 38.1689 23.9003 37.5262 23.648C36.7681 23.3662 35.4632 22.8685 35.0745 22.7234C34.5387 22.529 33.791 22.5569 33.3821 22.9954C33.1384 23.2392 33.0113 23.5887 33.0015 24.0372C32.9918 24.5133 33.1579 25.0211 33.4102 25.4976C33.0412 25.1084 32.6125 24.787 32.1548 24.6502C31.726 24.5236 31.3472 24.5334 31.0455 24.6899C30.5102 24.952 30.2384 25.6443 30.2678 26.2176C30.2879 26.6362 30.3453 28.0276 30.385 28.8349C30.4243 29.5275 30.9203 30.0419 31.5036 30.2278C30.9203 30.0419 30.2184 30.1587 29.782 30.6945C29.2762 31.3272 28.4091 32.4283 28.1473 32.7479C27.786 33.1964 27.5918 33.9164 27.8735 34.4427C28.0305 34.744 28.3318 34.978 28.7487 35.1234C29.2064 35.2799 29.7424 35.2799 30.2678 35.1827C29.782 35.4149 29.3532 35.7265 29.0798 36.117C28.8181 36.4862 28.7209 36.8473 28.7703 37.187C28.8475 37.77 29.4308 38.2382 29.9861 38.3848C30.385 38.5023 31.726 38.8712 32.5153 39.0858C33.1762 39.2704 33.8086 38.9488 34.1794 38.4526C33.8086 38.9488 33.7135 39.6589 34.0923 40.2326C34.5387 40.9149 35.3085 42.0736 35.5327 42.4231C35.8536 42.901 36.4748 43.3098 37.06 43.2126C37.3996 43.1533 37.7125 42.9389 37.9843 42.5796C38.2758 42.1993 38.4407 41.6929 38.5 41.1588C38.5579 41.6929 38.7241 42.1993 39.0156 42.5796C39.2875 42.9389 39.599 43.1534 39.9399 43.2126C40.5233 43.3098 41.1466 42.901 41.4679 42.4231C41.6916 42.0736 42.4595 40.915 42.9078 40.2326C43.2867 39.6589 43.1895 38.9488 42.8205 38.4526ZM42.6061 21.8663C42.6061 21.8663 42.168 21.215 41.7496 20.7091C39.6467 20.1242 37.3514 20.1242 35.2492 20.7091C34.8305 21.215 34.394 21.8663 34.394 21.8663L38.5 23.0825L42.6061 21.8663ZM29.6648 25.3126C29.6648 25.3126 28.9054 25.527 28.2919 25.7611C27.0958 27.5908 26.3857 29.7798 26.277 31.9601C26.638 32.5058 27.1256 33.1286 27.1256 33.1286L29.548 29.5952L29.6648 25.3126ZM28.9348 38.6866C28.9348 38.6866 28.9054 39.4744 28.9348 40.1273C30.2977 41.8298 32.1645 43.1832 34.2095 43.9612C34.8404 43.7864 35.5804 43.5145 35.5804 43.5145L32.9734 40.1174L28.9348 38.6866ZM41.4185 43.5145C41.4185 43.5145 42.1583 43.7864 42.7906 43.9612C44.834 43.1832 46.7025 41.8298 48.0636 40.1273C48.0947 39.4744 48.0636 38.6866 48.0636 38.6866L44.0265 40.1174L41.4185 43.5145ZM49.8744 33.1286C49.8744 33.1286 50.3606 32.5058 50.7216 31.9601C50.6142 29.7798 49.9042 27.5908 48.7063 25.7611C48.0948 25.527 47.3354 25.3126 47.3354 25.3126L47.4521 29.5952L49.8744 33.1286ZM52 32.5058C52 39.9458 45.9429 46 38.5 46C31.0557 46 25 39.9458 25 32.5058C25 25.059 31.0557 19 38.5 19C45.9429 19 52 25.059 52 32.5058Z" fill="#2F498F"/>
<path fill-rule="evenodd" clip-rule="evenodd" d="M38.9998 17C39.726 16.9923 40 16.4714 40 15.8598C40 15.039 38.9998 12 38.9998 12C38.9998 12 38 15.039 38 15.8598C38 16.4714 38.2735 17 38.9998 17Z" fill="#FFD64C"/>
<path fill-rule="evenodd" clip-rule="evenodd" d="M34.0724 18.9028C35.0044 18.6022 35.1418 17.9817 34.8871 17.3805C34.5477 16.576 32.0007 14 32.0007 14C32.0007 14 31.9705 17.3818 32.3122 18.1878C32.5648 18.7895 33.1367 19.1956 34.0724 18.9028Z" fill="#FFD64C"/>
<path fill-rule="evenodd" clip-rule="evenodd" d="M29.5103 21.6238C30.1918 20.9785 30.0858 20.2586 29.6559 19.6908C29.0785 18.9327 26 17 26 17C26 17 27.1867 20.6881 27.7628 21.4483C28.1927 22.0124 28.8238 22.2605 29.5103 21.6238Z" fill="#FFD64C"/>
<path fill-rule="evenodd" clip-rule="evenodd" d="M25.7924 25.4174C26.238 24.7253 25.9125 24.2154 25.3257 23.9191C24.5373 23.5217 21 23 21 23C21 23 23.2861 25.4159 24.0725 25.813C24.6593 26.1096 25.3376 26.1051 25.7924 25.4174Z" fill="#FFD64C"/>
<path fill-rule="evenodd" clip-rule="evenodd" d="M23.9762 30.1723C24.1121 29.4614 23.6492 29.1124 23.0409 29.0197C22.2234 28.8944 19 29.4088 19 29.4088C19 29.4088 21.8258 30.8512 22.6429 30.978C23.2516 31.0707 23.8321 30.8836 23.9762 30.1723Z" fill="#FFD64C"/>
<path fill-rule="evenodd" clip-rule="evenodd" d="M23.9739 34.8275C23.8221 34.1178 23.2495 33.9291 22.641 34.022C21.8238 34.1488 19 35.5913 19 35.5913C19 35.5913 22.2214 36.1059 23.039 35.9802C23.6471 35.8875 24.1179 35.5385 23.9739 34.8275Z" fill="#FFD64C"/>
<path fill-rule="evenodd" clip-rule="evenodd" d="M26.7887 39.5816C26.326 38.8981 25.6565 38.8892 25.0705 39.1855C24.2844 39.5833 22 42 22 42C22 42 25.5346 41.478 26.3228 41.0808C26.9087 40.7858 27.2426 40.2697 26.7887 39.5816Z" fill="#FFD64C"/>
<path fill-rule="evenodd" clip-rule="evenodd" d="M29.5089 44.3732C28.8163 43.7435 28.1923 43.9846 27.7627 44.549C27.1873 45.3096 26 49 26 49C26 49 29.0775 47.0662 29.6546 46.307C30.0841 45.7408 30.1945 45.0095 29.5089 44.3732Z" fill="#FFD64C"/>
<path fill-rule="evenodd" clip-rule="evenodd" d="M34.0717 46.0941C33.1343 45.8091 32.5646 46.2074 32.3126 46.8092C31.9712 47.6157 32.0006 51 32.0006 51C32.0006 51 34.5469 48.4223 34.8868 47.617C35.141 47.017 35.0072 46.3866 34.0717 46.0941Z" fill="#FFD64C"/>
<path fill-rule="evenodd" clip-rule="evenodd" d="M38.9998 47C38.2738 47.0079 38 47.529 38 48.1403C38 48.9614 38.9998 52 38.9998 52C38.9998 52 40 48.9614 40 48.1403C40 47.529 39.726 47 38.9998 47Z" fill="#FFD64C"/>
<path fill-rule="evenodd" clip-rule="evenodd" d="M43.9273 46.097C42.9955 46.398 42.8582 47.018 43.113 47.6196C43.4524 48.4236 45.9993 51 45.9993 51C45.9993 51 46.0292 47.6177 45.6878 46.8119C45.433 46.2108 44.863 45.8046 43.9273 46.097Z" fill="#FFD64C"/>
<path fill-rule="evenodd" clip-rule="evenodd" d="M48.49 44.3761C47.8085 45.0214 47.9138 45.7409 48.3441 46.3087C48.9199 47.0674 52 49 52 49C52 49 50.8132 45.3119 50.2377 44.5517C49.8071 43.9876 49.1762 43.7395 48.49 44.3761Z" fill="#FFD64C"/>
<path fill-rule="evenodd" clip-rule="evenodd" d="M52.2078 39.5825C51.7618 40.275 52.0877 40.7863 52.674 41.0812C53.4628 41.4782 57 42 57 42C57 42 54.714 39.5843 53.927 39.1868C53.3406 38.8905 52.6625 38.8948 52.2078 39.5825Z" fill="#FFD64C"/>
<path fill-rule="evenodd" clip-rule="evenodd" d="M53.0239 34.8274C52.8877 35.5387 53.351 35.8876 53.9595 35.9803C54.7773 36.1056 58 35.591 58 35.591C58 35.591 55.175 34.1486 54.3576 34.0222C53.7487 33.9291 53.1678 34.1165 53.0239 34.8274Z" fill="#FFD64C"/>
<path fill-rule="evenodd" clip-rule="evenodd" d="M53.0261 30.1727C53.1774 30.8822 53.7504 31.0709 54.3584 30.978C55.1757 30.8513 58 29.409 58 29.409C58 29.409 54.7778 28.8945 53.9606 29.0196C53.3526 29.1128 52.8823 29.4614 53.0261 30.1727Z" fill="#FFD64C"/>
<path fill-rule="evenodd" clip-rule="evenodd" d="M52.2117 24.4181C52.6741 25.1021 53.3432 25.1109 53.9299 24.8141C54.716 24.4169 57 22 57 22C57 22 53.4654 22.5215 52.6775 22.9193C52.0912 23.2154 51.7572 23.73 52.2117 24.4181Z" fill="#FFD64C"/>
<path fill-rule="evenodd" clip-rule="evenodd" d="M48.4913 21.627C49.1844 22.2561 49.808 22.0158 50.2381 21.4513C50.8139 20.6906 52 17 52 17C52 17 48.9215 18.9339 48.3459 19.6926C47.9157 20.2593 47.8055 20.9902 48.4913 21.627Z" fill="#FFD64C"/>
<path fill-rule="evenodd" clip-rule="evenodd" d="M43.9281 18.906C44.865 19.191 45.4331 18.7922 45.6874 18.1908C46.0287 17.3843 45.9994 14 45.9994 14C45.9994 14 43.453 16.5778 43.1132 17.3826C42.8591 17.9826 42.9927 18.613 43.9281 18.906Z" fill="#FFD64C"/>
<path d="M14.4805 65L13.263 63.6732L13.7408 60.7936L11.9985 62.2945L11 61.2075L14.7193 58L15.7183 59.0888L14.0534 60.5229L16.9171 60.394L18 61.5758L15.0272 61.7336L14.4805 65Z" fill="white"/>
<path d="M19.0727 66.2573L19.5865 64.4595L17.9249 65.4112L19.0727 66.2573ZM19.7472 69L18.5429 68.1125L18.8262 67.1129L17.131 65.8629L16.2048 66.3899L15 65.5024L19.6995 63L21 63.9596L19.7472 69Z" fill="white"/>
<path d="M25.6842 73L21 70.6035L25.1487 68.2441L22.9585 67.122L23.5111 66L28 68.2955L23.8582 70.6547L26.2386 71.8732L25.6842 73Z" fill="white"/>
<path d="M30.2628 72.505L30.0532 70.5054L28.8115 72.0923L30.2628 72.505ZM32 75L30.476 74.5685L30.36 73.4563L28.2174 72.8485L27.5245 73.729L26 73.2959L29.5873 69L31.2312 69.4658L32 75Z" fill="white"/>
<path d="M38.8944 75L37.1821 74.8595L35.5845 72.5599L35.403 74.7134L34 74.5982L34.3875 70L35.7911 70.1153L35.6177 72.1722L37.4753 70.2539L39 70.3804L37.0859 72.3902L38.8944 75Z" fill="white"/>
<path d="M46 74.3525L44.4583 74.5365L44.2282 72.4478L41.9043 72.7256L42.1324 74.8165L40.5871 75L40 69.6493L41.5453 69.4638L41.7615 71.4287L44.0873 71.1502L43.871 69.1852L45.4127 69L46 74.3525Z" fill="white"/>
<path d="M50.9349 70.9299C51.0201 71.2155 51.0214 71.4848 50.9403 71.7379C50.8602 71.991 50.7077 72.2132 50.4858 72.4038C50.2625 72.5919 49.9876 72.7392 49.6575 72.8421L49.3133 72.9292C49.1766 72.9581 48.9876 72.9792 48.7505 72.9938C48.5112 73.0083 48.2569 72.9968 47.985 72.9646L47.6548 71.8443C47.9216 71.9165 48.178 71.9668 48.4236 71.9943C48.6684 72.0216 48.9155 71.9955 49.1636 71.9184C49.3933 71.8476 49.5299 71.7621 49.5741 71.6633L49.6119 71.4119L49.3465 71.1555C49.2046 71.1071 49.0112 71.072 48.7644 71.0491C48.4894 71.0203 48.2412 70.9719 48.0192 70.9041C47.7991 70.838 47.6027 70.7281 47.4297 70.5783C47.2585 70.4283 47.1361 70.2256 47.0604 69.9704C46.9881 69.7241 46.9801 69.4838 47.0398 69.2483C47.0995 69.013 47.232 68.7987 47.439 68.6036C47.6467 68.4097 47.9248 68.2584 48.2741 68.1501C48.5224 68.0728 48.7599 68.0262 48.9846 68.0116C49.2108 67.9957 49.401 67.9957 49.5554 68.0147C49.7109 68.0339 49.821 68.0535 49.8824 68.0726L50.1983 69.1434C49.9764 69.0658 49.7376 69.0096 49.4832 68.9725C49.2282 68.937 48.9738 68.9595 48.7171 69.0384C48.5509 69.0901 48.4391 69.1596 48.3842 69.2497L48.3432 69.5287L48.5241 69.7272C48.6182 69.7706 48.7773 69.8093 48.9969 69.8432C49.3887 69.9027 49.7076 69.9657 49.9515 70.0333C50.1966 70.1011 50.4024 70.2042 50.571 70.3396C50.7377 70.4768 50.8596 70.6721 50.9349 70.9299Z" fill="white"/>
<path d="M54.9611 67.0963L53.3863 67.9151L55 71.3272L53.7073 72L52.0933 68.5879L50.5186 69.4087L50 68.3131L54.4426 66L54.9611 67.0963Z" fill="white"/>
<path d="M60.0698 66.4388L58.4224 65.4519L58.8973 67.2633L60.0698 66.4388ZM63 66.5922L61.7692 67.4572L60.8535 66.9095L59.1224 68.1272L59.3829 69.1349L58.152 70L57 64.934L58.3274 64L63 66.5922Z" fill="white"/>
<path d="M67 61.1782L66.1427 62.1231L62.5185 62.1775L64.4872 63.9476L63.5334 65L60 61.822L60.854 60.8803L64.4635 60.819L62.5058 59.0584L63.4659 58L67 61.1782Z" fill="white"/>
<path d="M58.2227 10L57 12.1489C58.8396 13.3565 60.5708 14.7618 62.1616 16.357C68.2078 22.4202 71.5366 30.4797 71.5366 39.0546C71.5366 44.4833 70.2005 49.7065 67.6854 54.3459C68.316 54.8944 68.9566 55.4502 69.5901 56C72.4674 50.884 74 45.087 74 39.0546C74 29.8208 70.414 21.1405 63.9028 14.6109C62.1551 12.8569 60.2508 11.3179 58.2227 10Z" fill="#FFD64C"/>
<path d="M10.314 54.3474C7.79903 49.7068 6.46326 44.4835 6.46326 39.0549C6.46326 30.4804 9.79149 22.4213 15.8369 16.3588C17.4278 14.7616 19.1586 13.3564 21 12.1491L19.7774 10C17.7496 11.3179 15.8451 12.8583 14.096 14.6128C7.58551 21.1402 4 29.8215 4 39.0549C4 45.0875 5.53259 50.8858 8.40932 56C9.04276 55.4511 9.6832 54.8961 10.314 54.3474Z" fill="#FFD64C"/>
<path d="M37 8.58785L34.6508 9.08225L31.6088 6.47211L32.2108 9.59518L30.2868 10L29 3.33133L30.9256 2.92667L31.4994 5.91012L33.2364 2.44086L35.3274 2L33.5543 5.6233L37 8.58785Z" fill="white"/>
<path d="M41.9222 6.23759L39.1025 6.18256L39.049 9L37 8.95936L37.1299 2L42 2.09593L41.9722 3.49097L39.1544 3.43651L39.1284 4.78186L41.9481 4.83715L41.9222 6.23759Z" fill="white"/>
<path d="M48.1815 7.92027L45.5038 7.33758L44.9465 10L43 9.578L44.3766 3L49 4.00534L48.7249 5.32424L46.0469 4.7435L45.7804 6.01455L48.4587 6.596L48.1815 7.92027Z" fill="white"/>
</g>
<defs>
<clipPath id="clip0_26_3753">
<rect width="78" height="78" fill="white"/>
</clipPath>
</defs>
</svg>
