<svg width="804" height="804" viewBox="0 0 804 804" fill="none" xmlns="http://www.w3.org/2000/svg">
<g clip-path="url(#clip0_203_164)">
<path d="M374.012 0.875244L431.548 0.875244C635.761 23.9339 784.647 168.548 803.875 374.012V431.622C779.564 636.277 638.708 783.248 430.738 803.875H373.202C169.063 780.817 19.9557 636.203 0.875244 430.738L0.875244 373.128C21.0607 167.369 169.284 23.7129 374.012 0.875244ZM412.91 68.3567L433.538 69.0934C436.091 69.1916 437.368 67.9884 437.368 65.4836L437.442 54.4331C437.442 51.9775 436.214 50.7251 433.759 50.676L411.731 50.3076C410.52 50.3858 409.327 49.9795 408.415 49.1782C407.503 48.3769 406.947 47.2462 406.869 46.0348C406.791 44.8234 407.197 43.6306 407.999 42.7188C408.8 41.8069 409.931 41.2507 411.142 41.1726C418.411 40.0921 425.729 40.1658 433.096 41.3936C435.846 41.8356 437.344 40.6569 437.589 37.8574L438.252 28.6487C438.498 25.5055 437.025 23.8848 433.832 23.7865L389.704 22.9025C389.23 22.8927 388.759 22.9764 388.317 23.1489C387.875 23.3213 387.472 23.5791 387.13 23.9075C386.788 24.2358 386.514 24.6284 386.323 25.0627C386.133 25.497 386.03 25.9646 386.021 26.4386L385.21 89.6473C385.161 92.8396 386.733 94.4604 389.925 94.5095L404.954 94.8041C407.95 94.8533 409.398 93.3799 409.3 90.384L408.637 72.6296C408.539 69.6828 409.963 68.2585 412.91 68.3567ZM331.284 77.9338C338.602 85.3007 346.509 91.9801 355.006 97.9719C355.532 98.3568 356.177 98.5633 356.847 98.5613C361.71 98.7086 366.719 97.7755 371.876 95.7619C373.183 95.2433 374.329 94.3876 375.198 93.282C376.066 92.1765 376.626 90.8604 376.821 89.4679C377.016 88.0755 376.838 86.6563 376.306 85.3549C375.774 84.0535 374.906 82.9164 373.791 82.0593L350.733 64.3785C348.67 62.856 348.179 60.9161 349.259 58.5586L362.815 29.4591C363.13 28.817 363.256 28.0982 363.177 27.3872C363.097 26.6763 362.817 26.0026 362.368 25.4455C361.92 24.8884 361.321 24.471 360.643 24.2424C359.965 24.0138 359.236 23.9834 358.542 24.1549L342.776 27.912C340.763 28.3541 339.289 29.4837 338.356 31.3008L327.011 53.0334C326.785 53.5041 326.414 53.8852 325.952 54.1212C325.49 54.3572 324.962 54.4357 324.443 54.3452C323.925 54.2547 323.444 53.9999 323.071 53.6181C322.698 53.2364 322.452 52.7475 322.37 52.223L320.16 36.5314C319.767 33.7811 318.22 32.6515 315.519 33.1426L299.459 36.0157C296.561 36.5559 295.407 38.2749 295.996 41.1726L307.268 98.7086C307.836 101.632 309.471 104.24 311.854 106.026C314.238 107.812 317.2 108.649 320.166 108.374C323.131 108.098 325.889 106.73 327.902 104.536C329.916 102.341 331.043 99.4769 331.063 96.4985C331.112 92.6677 329.958 87.2162 327.6 80.1439C325.685 74.2012 326.913 73.4645 331.284 77.9338ZM476.487 76.0184L499.988 79.4808C502.394 79.8246 503.622 78.7933 503.671 76.3867L503.745 67.399C503.794 64.8942 502.591 63.3226 500.135 62.6841L478.108 57.0116C476.438 56.5696 475.799 55.5136 476.192 53.8438L476.708 51.9284C476.955 51.0114 477.532 50.2205 478.325 49.7148C479.118 49.2091 480.067 49.0261 480.981 49.2026L498.956 52.5177C500.078 52.7354 501.233 52.7299 502.353 52.5015C503.473 52.2732 504.537 51.8264 505.484 51.1868C506.432 50.5472 507.244 49.7272 507.875 48.7737C508.505 47.8202 508.942 46.7518 509.16 45.6296C509.377 44.5074 509.372 43.3532 509.143 42.2331C508.915 41.113 508.468 40.0489 507.829 39.1014C507.189 38.1539 506.369 37.3417 505.416 36.7112C504.462 36.0806 503.394 35.644 502.271 35.4263L461.679 27.028C459.175 26.4878 457.677 27.47 457.186 29.9748L444.367 93.6254C443.876 96.0811 444.858 97.5054 447.314 97.8983L464.037 100.698C466.542 101.091 468.015 100.035 468.457 97.5299L471.625 79.5545C472.116 76.8042 473.737 75.6255 476.487 76.0184ZM87.7318 501.756C45.0771 356.7 96.4249 213.854 220.706 127.735C222.474 126.507 222.916 124.886 222.032 122.872L214.075 105.56C213.705 104.734 213.158 104 212.473 103.408C211.788 102.817 210.981 102.383 210.11 102.137C209.239 101.891 208.325 101.839 207.432 101.985C206.538 102.131 205.688 102.471 204.94 102.981C45.5928 209.213 -0.229799 407.9 88.4685 576.899C89.7946 579.404 91.5136 579.723 93.6254 577.857L108.875 564.67C111.282 562.607 111.896 560.102 110.717 557.155C103.276 538.885 92.9624 519.51 87.7318 501.756ZM703.39 205.161C688.656 182.029 624.047 103.792 595.758 103.424C590.208 103.374 587.556 105.855 587.802 110.864C587.843 112.084 587.514 113.29 586.858 114.327C586.201 115.364 585.247 116.185 584.118 116.684C580.189 118.354 578.888 121.644 580.214 126.556C580.509 127.833 581.294 128.471 582.571 128.471C584.143 128.52 585.788 129.208 587.507 130.534C666.187 188.291 712.721 262.894 727.111 354.343C732.661 389.508 732.293 423.985 726.006 457.775C719.72 491.663 708.547 524.692 692.487 556.861C691.599 558.672 691.107 560.777 691.078 562.885C691.05 564.992 691.487 566.998 692.328 568.624C693.17 570.25 694.374 571.417 695.775 571.962C697.176 572.508 698.704 572.405 700.148 571.668C703.439 569.949 705.06 570.711 705.01 573.952C704.949 575.421 705.395 576.867 706.273 578.046C707.151 579.225 708.408 580.067 709.833 580.43C711.258 580.792 712.764 580.654 714.099 580.038C715.435 579.422 716.517 578.366 717.166 577.046C721.635 568.353 726.203 559.194 730.869 549.567C735.682 539.647 739.537 530.168 742.435 521.131C778.336 407.679 765.321 302.356 703.39 205.161ZM688.14 402.375C688.14 326.527 658.01 253.785 604.377 200.153C550.744 146.52 478.002 116.389 402.154 116.389C326.306 116.389 253.564 146.52 199.932 200.153C146.299 253.785 116.168 326.527 116.168 402.375C116.168 478.223 146.299 550.965 199.932 604.598C253.564 658.231 326.306 688.361 402.154 688.361C478.002 688.361 550.744 658.231 604.377 604.598C658.01 550.965 688.14 478.223 688.14 402.375ZM132.376 640.918C131.05 653.884 128.987 666.039 145.268 669.428C145.749 669.534 146.248 669.533 146.73 669.426C147.212 669.32 147.667 669.11 148.065 668.81C148.462 668.51 148.793 668.127 149.035 667.688C149.276 667.248 149.424 666.761 149.467 666.26L151.309 642.686C151.554 639.494 153.298 637.775 156.539 637.529L176.209 636.056C177.498 635.953 178.724 635.442 179.706 634.596C180.688 633.751 181.374 632.617 181.663 631.362C181.952 630.107 181.829 628.797 181.311 627.626C180.793 626.454 179.908 625.484 178.788 624.858C170.684 620.241 161.745 618.498 151.972 619.627C151.505 619.642 151.049 619.492 150.682 619.203C150.315 618.915 150.061 618.507 149.964 618.051C149.868 617.594 149.935 617.118 150.154 616.706C150.372 616.294 150.729 615.972 151.161 615.796L156.097 614.249C158.357 613.513 159.462 611.966 159.412 609.608C159.216 602.88 156.048 597.772 149.909 594.285C149.04 593.77 148.024 593.557 147.013 593.676C146.003 593.796 145.054 594.242 144.31 594.948L114.106 624.416C113.811 624.71 113.467 624.735 113.074 624.489L110.864 623.237C110.623 623.098 110.351 623.023 110.073 623.019C109.794 623.015 109.52 623.084 109.276 623.217C109.032 623.35 108.826 623.544 108.678 623.78C108.531 624.015 108.446 624.285 108.433 624.563L108.286 632.519C108.187 634.828 109.096 636.62 111.011 637.897C117.151 642.121 123.118 642.416 128.913 638.781C131.516 637.161 132.67 637.873 132.376 640.918ZM665.008 627.584L644.086 626.405C633.526 624.195 626.184 626.65 622.058 633.772C620.683 636.08 621.002 638.143 623.016 639.96L653.957 667.66C656.462 669.87 658.918 669.821 661.324 667.513L665.229 663.682C667.537 661.521 667.562 659.311 665.303 657.051L653.81 645.78C659.9 641.556 668.2 640.378 678.71 642.244C679.854 642.455 681.03 642.433 682.169 642.18C683.308 641.927 684.386 641.447 685.341 640.77C692.953 635.417 694.918 630.727 691.234 626.7L659.851 598.042C657.69 596.077 655.701 596.225 653.884 598.484L648.727 604.599C646.811 606.956 647.131 608.921 649.685 610.492C656.609 614.863 661.717 620.56 665.008 627.584ZM176.504 687.035C187.26 689.589 191.754 695.384 189.985 704.421C189.396 707.564 190.55 709.824 193.448 711.199L200.373 714.44C202.976 715.717 204.621 714.931 205.309 712.083L216.065 666.113C216.637 663.676 216.497 661.126 215.659 658.767C214.822 656.408 213.324 654.34 211.343 652.81C209.362 651.28 206.983 650.352 204.489 650.137C201.995 649.923 199.492 650.43 197.279 651.6L160.96 670.754C159.406 671.563 158.12 672.8 157.257 674.317C156.394 675.834 155.991 677.564 156.097 679.3C156.687 688.091 161.549 690.792 170.684 687.403C172.554 686.685 174.586 686.556 176.504 687.035ZM620.438 685.562C629.131 692.241 636.056 692.069 641.212 685.046C642.833 682.836 642.44 681.092 640.034 679.815L620.511 668.986C619.136 664.713 614.52 660.809 606.661 657.272C596.2 652.656 588.735 653.81 584.266 660.735C581.565 664.959 581.27 670.975 583.382 678.784C586.574 690.719 589.324 702.849 591.633 715.177C592.124 717.829 593.696 718.959 596.348 718.566L605.114 717.166C607.275 716.822 608.356 715.57 608.356 713.409V700.959C608.405 698.896 609.436 697.643 611.45 697.201C616.901 695.875 619.897 691.996 620.438 685.562ZM243.764 704.495L216.949 719.302C214.1 720.874 214.125 722.397 217.022 723.87C229.301 730.058 241.554 736.222 253.783 742.361C259.628 745.357 262.624 742.901 262.771 734.994C262.82 733.079 261.985 731.728 260.266 730.942L244.943 723.796C241.407 722.175 241.358 720.432 244.796 718.566L248.037 716.798C259.382 714.293 269.794 708.915 279.273 700.664C281.434 698.798 281.238 697.226 278.684 695.949L241.849 677.605C241.227 677.3 240.538 677.154 239.846 677.18C239.153 677.205 238.477 677.402 237.879 677.752C237.281 678.102 236.779 678.595 236.417 679.186C236.056 679.778 235.847 680.449 235.808 681.141L235.513 686.593C235.268 690.424 237.06 692.634 240.891 693.223L245.532 693.96C247.988 694.304 248.627 695.556 247.448 697.717L243.764 704.495ZM562.312 695.139C568.599 692.83 570.882 688.41 569.163 681.878C568.925 681.014 568.502 680.212 567.923 679.528C567.343 678.843 566.623 678.293 565.81 677.914C564.997 677.536 564.112 677.339 563.215 677.336C562.319 677.334 561.433 677.526 560.618 677.9L526.877 693.665C525.272 694.455 523.991 695.777 523.25 697.405C522.51 699.033 522.357 700.868 522.818 702.597C523.278 704.325 524.323 705.84 525.775 706.885C527.227 707.93 528.996 708.439 530.782 708.326L538.591 707.663C540.752 707.515 542.299 708.399 543.232 710.315L555.535 734.847C556.713 737.204 558.555 738.015 561.06 737.278L570.048 734.699C574.075 733.521 575.155 731.04 573.289 727.259L560.102 700.59C558.825 697.987 559.562 696.17 562.312 695.139ZM501.019 748.476C499.496 749.9 496.869 749.728 493.136 747.96C490.926 746.929 489.306 747.518 488.274 749.728C487.832 750.759 487.734 751.84 487.979 752.969C488.422 754.885 489.748 756.285 491.958 757.169C494.561 758.2 497.679 758.568 501.314 758.274C516.932 762.768 534.318 745.75 522.899 731.09C521.18 728.83 518.97 727.357 516.269 726.669L498.956 722.176C498.335 721.971 497.811 721.544 497.485 720.976C497.159 720.409 497.055 719.741 497.192 719.101C497.329 718.461 497.698 717.894 498.228 717.51C498.757 717.126 499.41 716.951 500.061 717.019L511.627 718.787C512.173 718.864 512.729 718.814 513.25 718.639C513.772 718.464 514.243 718.169 514.625 717.78C515.007 717.391 515.288 716.918 515.446 716.402C515.604 715.885 515.633 715.339 515.532 714.809L514.059 707.294C513.469 704.053 511.529 702.653 508.239 703.095L489.011 705.894C486.359 706.287 484.198 707.515 482.528 709.578C468.531 726.669 484.001 740.814 501.608 739.783C504.26 739.635 504.973 740.74 503.745 743.098L501.019 748.476ZM296.291 747.813L308.446 753.78C310.656 754.86 312.204 756.555 313.088 758.863C315.445 765.15 320.184 767.826 327.306 766.893C328.414 766.727 329.413 766.139 330.088 765.257C330.763 764.376 331.061 763.27 330.916 762.178L325.169 715.619C324.869 713.133 323.856 710.788 322.252 708.866C320.648 706.944 318.522 705.527 316.13 704.787C313.738 704.047 311.184 704.015 308.774 704.696C306.365 705.376 304.204 706.739 302.553 708.62L270.58 745.234C269.955 745.938 269.534 746.8 269.363 747.726C269.193 748.653 269.279 749.608 269.613 750.488C269.947 751.369 270.516 752.141 271.258 752.722C272 753.302 272.886 753.668 273.822 753.78L288.924 755.548C289.232 755.589 289.545 755.566 289.843 755.478C290.141 755.39 290.417 755.241 290.653 755.039C290.89 754.838 291.081 754.588 291.215 754.308C291.348 754.028 291.421 753.722 291.429 753.411L291.576 750.612C291.591 750.065 291.744 749.53 292.021 749.058C292.298 748.586 292.691 748.192 293.161 747.912C293.632 747.633 294.166 747.477 294.713 747.459C295.261 747.442 295.803 747.564 296.291 747.813ZM435.674 754.295L447.903 750.833C450.457 750.096 451.906 751.054 452.25 753.706L453.797 765.42C454.288 768.907 456.252 770.429 459.69 769.987L468.383 768.882C469.628 768.715 470.758 768.073 471.529 767.094C472.301 766.116 472.653 764.88 472.509 763.652L467.868 720.849C467.614 718.407 466.453 716.15 464.614 714.523C462.775 712.896 460.392 712.019 457.937 712.066C455.482 712.112 453.135 713.078 451.358 714.773C449.582 716.468 448.507 718.768 448.345 721.218C448.149 723.919 448.419 727.676 449.156 732.489C449.45 734.601 448.542 735.657 446.43 735.657L433.538 735.878C432.923 735.884 432.315 735.757 431.754 735.507C431.193 735.256 430.693 734.887 430.287 734.426C429.881 733.964 429.58 733.421 429.404 732.833C429.227 732.244 429.18 731.624 429.265 731.016L430.296 723.133C430.64 720.383 429.412 719.032 426.613 719.081L413.057 719.45C410.602 719.499 409.521 720.751 409.816 723.207L414.973 767.04C415.252 769.406 416.42 771.57 418.241 773.094C420.061 774.617 422.398 775.387 424.777 775.246C427.156 775.106 429.4 774.066 431.054 772.337C432.708 770.608 433.649 768.32 433.685 765.935C433.734 764.364 433.439 762.031 432.801 758.937C432.359 756.53 433.317 754.983 435.674 754.295ZM366.866 730.5C368.045 727.946 368.487 725.638 368.192 723.575C367.868 721.229 366.687 719.112 364.877 717.63C363.067 716.147 360.755 715.403 358.383 715.54C356.011 715.677 353.746 716.685 352.021 718.371C350.297 720.058 349.235 722.304 349.038 724.68L344.766 766.672C344.471 769.521 345.772 770.969 348.67 771.019L360.752 771.24C363.453 771.289 364.73 769.963 364.583 767.261L363.993 756.137C363.981 755.561 364.173 755 364.537 754.553C364.9 754.106 365.41 753.802 365.976 753.696C366.542 753.59 367.127 753.688 367.628 753.973C368.128 754.258 368.511 754.712 368.708 755.253C373.079 768.612 382.263 775.07 396.261 774.628C400.141 774.481 401.074 772.762 399.06 769.471L385.579 747.15C385.09 746.334 384.87 745.388 384.949 744.448C385.029 743.508 385.404 742.623 386.021 741.919L398.618 727.701C401.86 723.968 401.147 721.316 396.482 719.744C388.476 716.945 379.857 721.316 370.624 732.858C370.311 733.356 369.813 733.709 369.24 733.841C368.667 733.972 368.065 733.87 367.566 733.558C367.068 733.245 366.714 732.747 366.583 732.174C366.452 731.6 366.554 730.998 366.866 730.5Z" fill="white" fill-opacity="0.15"/>
<path d="M399.499 133.748C400.596 129.992 401.892 129.919 403.388 133.528C409.073 147.061 422.388 175.591 405.932 185.247C403.866 186.437 401.481 186.997 399.086 186.853C396.692 186.71 394.398 185.869 392.503 184.442C390.608 183.014 389.199 181.065 388.459 178.848C387.719 176.63 387.682 174.247 388.353 172.007L399.499 133.748Z" fill="white" fill-opacity="0.15"/>
<path d="M332.52 143.333C342.837 155.276 373.341 184.618 348.146 195.013C346.502 195.696 344.717 195.98 342.938 195.841C341.159 195.702 339.438 195.145 337.918 194.215C336.398 193.285 335.121 192.01 334.196 190.495C333.27 188.979 332.721 187.268 332.595 185.503L329.903 144.439C329.704 141.441 330.576 141.072 332.52 143.333Z" fill="white" fill-opacity="0.15"/>
<path d="M449.537 192.147C448.22 191.492 447.06 190.562 446.136 189.422C445.213 188.282 444.548 186.959 444.187 185.543C443.826 184.128 443.778 182.654 444.046 181.222C444.314 179.79 444.891 178.435 445.739 177.25L468.45 145.75C470.386 142.983 471.603 143.279 472.099 146.639C475.127 167.738 474.283 181.845 469.567 188.96C465.248 195.582 458.572 196.644 449.537 192.147Z" fill="white" fill-opacity="0.15"/>
<path d="M534.248 181.453C529.743 193.265 524.942 209.526 515.562 218.495C508.472 225.203 501.899 224.207 495.842 215.505C495.002 214.31 494.413 212.961 494.111 211.536C493.808 210.111 493.797 208.639 494.079 207.206C494.361 205.773 494.93 204.409 495.753 203.192C496.575 201.975 497.635 200.931 498.87 200.12L531.22 179.12C534.666 176.883 535.676 177.661 534.248 181.453Z" fill="white" fill-opacity="0.15"/>
<path d="M271.859 179.822L303.609 200.827C306.126 202.48 307.907 205.057 308.58 208.017C309.253 210.977 308.765 214.092 307.218 216.71C303.388 223.192 298.771 225.815 293.369 224.578C290.079 223.836 287.132 221.287 284.529 216.933C277.654 205.404 272.546 193.677 269.207 181.752C268.323 178.734 269.207 178.091 271.859 179.822Z" fill="white" fill-opacity="0.15"/>
<path d="M543.875 336.375C543.875 373.903 528.967 409.894 502.431 436.431C475.894 462.967 439.903 477.875 402.375 477.875C364.847 477.875 328.856 462.967 302.32 436.431C275.783 409.894 260.875 373.903 260.875 336.375C260.875 298.847 275.783 262.856 302.32 236.32C328.856 209.783 364.847 194.875 402.375 194.875C439.903 194.875 475.894 209.783 502.431 236.32C528.967 262.856 543.875 298.847 543.875 336.375ZM365.895 225.976C389.822 238.308 414.093 238.431 438.708 226.344C439.932 225.733 440.944 224.769 441.615 223.578C442.287 222.386 442.586 221.021 442.475 219.658C442.364 218.295 441.848 216.996 440.993 215.928C440.138 214.861 438.983 214.074 437.677 213.668C418.663 207.92 375.107 203.645 364.126 218.311C363.679 218.911 363.368 219.602 363.214 220.334C363.061 221.067 363.068 221.824 363.237 222.553C363.405 223.282 363.73 223.966 364.189 224.557C364.648 225.148 365.23 225.632 365.895 225.976ZM352.924 279.628C351.106 282.183 351.401 284.762 353.808 287.366C354.317 287.915 354.685 288.578 354.883 289.3C355.08 290.021 355.099 290.78 354.94 291.511C354.781 292.242 354.447 292.924 353.968 293.498C353.489 294.072 352.878 294.522 352.187 294.81L345.775 297.463C345.354 297.666 345.011 298.002 344.799 298.418C344.587 298.835 344.518 299.31 344.601 299.77C344.685 300.23 344.917 300.65 345.262 300.965C345.608 301.281 346.047 301.474 346.512 301.516C350.541 301.664 354.472 301.27 358.304 300.337C360.908 299.649 362.087 297.954 361.841 295.252L360.81 281.47C360.662 279.456 361.522 278.866 363.389 279.702L373.633 284.566C376.041 285.696 378.301 285.401 380.413 283.681C384.442 280.439 387.267 276.287 388.889 271.226C390.805 265.281 389.92 264.815 386.235 269.826C380.192 278.178 372.822 278.473 364.126 270.71C363.34 269.973 363.119 269.089 363.463 268.057C363.659 267.517 363.905 266.952 364.2 266.362C365.428 263.709 364.666 261.842 361.915 260.761C361.031 260.417 360.073 260.122 359.041 259.877C356.928 259.385 355.921 258.059 356.019 255.897L356.535 246.243C356.683 243.737 357.985 242.435 360.441 242.337C378.03 241.747 391.615 247.889 401.196 260.761C401.737 261.449 402.277 261.474 402.817 260.835C412.398 249.289 425.246 242.853 441.361 241.526C443.822 241.376 446.325 242.175 448.342 243.754C450.359 245.332 451.733 247.567 452.172 249.987C452.612 252.406 452.084 254.821 450.7 256.721C449.315 258.621 447.182 259.859 444.752 260.172L441.804 260.466C439.986 260.614 439.347 261.572 439.887 263.341C442 270.465 438.954 274.567 430.749 275.648C424.509 276.483 420.235 274.174 417.926 268.721C417.789 268.427 417.55 268.193 417.253 268.063C416.956 267.933 416.622 267.917 416.314 268.017C416.005 268.116 415.744 268.325 415.58 268.604C415.415 268.883 415.358 269.213 415.42 269.531C416.648 274.592 419.129 278.94 422.863 282.576C424.098 283.768 425.664 284.555 427.35 284.832C429.037 285.109 430.763 284.861 432.297 284.123L441.067 279.923C443.425 278.842 444.457 279.579 444.162 282.134L442.688 294.589C442.197 298.568 443.965 300.73 447.994 301.074L455.954 301.664C456.53 301.676 457.091 301.483 457.539 301.12C457.986 300.757 458.29 300.247 458.396 299.68C458.502 299.114 458.404 298.528 458.119 298.028C457.833 297.527 457.379 297.144 456.838 296.947L454.332 296.136C453.329 295.822 452.463 295.178 451.874 294.308C451.285 293.438 451.008 292.393 451.09 291.346L452.195 278.449C452.244 277.663 452.564 277.515 453.153 278.006L456.175 280.512C456.564 280.835 457.037 281.041 457.539 281.104C458.041 281.167 458.55 281.085 459.007 280.868C459.464 280.651 459.85 280.308 460.118 279.88C460.387 279.451 460.527 278.954 460.523 278.449C460.376 268.819 465.043 264.544 474.526 265.625C477.572 265.969 479.463 267.615 480.2 270.563C484.131 285.843 481.969 299.698 473.715 312.129C473.076 313.111 473.297 313.799 474.378 314.192C489.167 319.351 499.19 329.693 504.447 345.219C504.944 346.697 505.02 348.286 504.665 349.805C504.31 351.324 503.54 352.712 502.441 353.811C501.343 354.909 499.96 355.674 498.451 356.019C496.943 356.363 495.368 356.273 493.908 355.758L469.514 347.209C468.64 346.905 467.854 346.391 467.224 345.713C466.594 345.036 466.139 344.214 465.899 343.32C465.659 342.426 465.642 341.487 465.848 340.585C466.054 339.683 466.478 338.845 467.082 338.144L472.167 332.101C472.386 331.854 472.516 331.542 472.536 331.213C472.557 330.884 472.467 330.558 472.28 330.287C472.093 330.015 471.821 329.814 471.507 329.716C471.192 329.617 470.854 329.626 470.546 329.742C465.485 331.609 461.678 334.877 459.123 339.544C457.698 342.148 457.993 344.556 460.007 346.767L468.261 356.053C468.542 356.382 468.729 356.78 468.805 357.205C468.88 357.631 468.841 358.069 468.69 358.474C468.54 358.88 468.285 359.238 467.95 359.512C467.616 359.785 467.214 359.965 466.787 360.032L456.396 361.359C453.792 361.654 452.023 363.054 451.09 365.56C449.124 370.915 449.738 375.976 452.932 380.741C455.045 383.886 456.052 383.566 455.954 379.783L455.806 374.477C455.708 370.989 457.403 369.097 460.891 368.802C474.108 367.771 484.966 372.168 493.466 381.994C494.029 382.658 494.417 383.452 494.596 384.304C494.775 385.156 494.738 386.04 494.489 386.874C494.241 387.708 493.787 388.467 493.171 389.082C492.555 389.697 491.795 390.149 490.96 390.396L456.838 400.566C453.988 401.401 451.63 400.664 449.763 398.355L437.75 383.542C437.618 383.406 437.443 383.321 437.254 383.301C437.066 383.281 436.877 383.327 436.719 383.432C436.561 383.537 436.446 383.694 436.392 383.876C436.338 384.057 436.349 384.252 436.424 384.426L446.741 401.745C447.308 402.67 448.097 403.438 449.037 403.978C449.977 404.519 451.037 404.816 452.121 404.841C469.121 405.332 485.064 401.549 499.951 393.491C501.016 392.905 501.922 392.061 502.59 391.033C503.258 390.006 503.668 388.825 503.784 387.595C504.57 379.243 501.499 372.905 494.571 368.581C494.189 368.322 493.901 367.946 493.75 367.509C493.599 367.073 493.594 366.599 493.735 366.159C493.876 365.719 494.156 365.337 494.533 365.069C494.909 364.802 495.362 364.664 495.824 364.675C505.749 365.068 511.718 361.654 513.733 354.431C517.565 340.355 495.972 319.572 485.949 311.908C484.229 310.581 483.664 308.861 484.254 306.749C488.086 293.262 496.045 255.971 474.304 253.097C472.214 252.813 470.096 253.284 468.335 254.423L461.481 258.771C457.845 261.13 456.789 260.27 458.312 256.192C462.193 245.629 459.172 237.669 449.247 232.314C448.302 231.808 447.256 231.52 446.185 231.469C445.114 231.418 444.046 231.606 443.057 232.019L404.586 247.938C403.309 248.478 402.031 248.478 400.754 247.938L361.473 232.166C359.567 231.41 357.499 231.151 355.466 231.414C353.432 231.677 351.498 232.453 349.847 233.67C348.196 234.886 346.882 236.502 346.028 238.366C345.173 240.231 344.808 242.282 344.965 244.327L345.849 255.676C345.898 256.208 345.785 256.742 345.526 257.209C345.266 257.676 344.871 258.054 344.394 258.293C343.916 258.531 343.377 258.621 342.848 258.548C342.318 258.476 341.823 258.245 341.427 257.887C333.419 250.566 325.41 251.574 317.402 260.909C316.41 262.038 315.907 263.522 316.001 265.036L318.728 306.012C318.876 308.026 318.31 309.795 317.033 311.318L290.207 343.819C288.953 345.343 288.107 347.16 287.748 349.101C287.389 351.041 287.53 353.041 288.156 354.913C288.782 356.784 289.874 358.466 291.329 359.8C292.783 361.134 294.553 362.076 296.471 362.538L308.631 365.412C310.499 365.904 310.793 366.886 309.516 368.36L301.999 376.835C300.625 378.415 299.679 380.32 299.252 382.369C298.825 384.418 298.931 386.542 299.56 388.539C300.188 390.535 301.318 392.337 302.842 393.772C304.366 395.207 306.232 396.226 308.263 396.734L350.05 407.052C352.359 407.641 353.931 409.091 354.766 411.4C358.893 422.798 365.158 433.018 373.559 442.058C381.961 451.197 393.826 450.46 398.469 438.668C399.206 436.801 400.164 435.155 401.343 433.73C403.407 431.323 404.709 431.691 405.249 434.836C408.271 452.228 426.696 451.344 434.802 438.815C441.214 428.792 448.805 418.991 450.721 407.494C450.83 406.847 450.689 406.184 450.326 405.637C449.964 405.091 449.407 404.704 448.768 404.554C448.13 404.404 447.459 404.502 446.891 404.829C446.323 405.156 445.9 405.687 445.71 406.315C442.172 417.615 435.982 427.269 427.138 435.278C426.246 436.073 425.183 436.653 424.032 436.974C422.88 437.294 421.671 437.346 420.496 437.125C419.321 436.904 418.213 436.417 417.256 435.701C416.3 434.984 415.52 434.058 414.978 432.993C409.524 422.184 409.499 411.572 414.904 401.156C415.502 399.986 416.519 399.083 417.758 398.62C418.996 398.157 420.369 398.168 421.61 398.65L427.506 400.935C427.858 401.054 428.241 401.049 428.589 400.921C428.938 400.792 429.232 400.548 429.422 400.228C429.612 399.909 429.686 399.534 429.633 399.166C429.579 398.798 429.401 398.46 429.128 398.208L420.726 390.912C420.229 390.49 419.652 390.174 419.027 389.982C418.403 389.79 417.745 389.727 417.092 389.795C416.439 389.864 415.804 390.064 415.226 390.382C414.647 390.7 414.137 391.131 413.725 391.649L403.186 405.135C403.045 405.31 402.864 405.449 402.659 405.539C402.453 405.629 402.229 405.669 402.005 405.654C401.781 405.64 401.564 405.572 401.372 405.456C401.18 405.34 401.018 405.179 400.901 404.988L393.974 394.081C393.186 392.828 392.013 391.863 390.632 391.332C389.25 390.8 387.734 390.731 386.309 391.133C381.396 392.607 377.416 395.383 374.37 399.461C374.179 399.739 374.084 400.073 374.1 400.411C374.117 400.749 374.243 401.072 374.46 401.331C374.678 401.59 374.974 401.77 375.304 401.845C375.633 401.92 375.978 401.885 376.286 401.745L383.214 398.355C386.604 396.685 388.839 397.643 389.92 401.229L394.563 416.337C395.055 418.057 394.637 418.327 393.31 417.148L389.773 414.127C389.5 413.874 389.135 413.731 388.755 413.727C388.375 413.724 388.009 413.86 387.733 414.107C387.457 414.354 387.293 414.694 387.275 415.055C387.257 415.415 387.386 415.769 387.636 416.043L390.805 420.317C391.542 421.349 392.008 422.528 392.205 423.855C393.188 431.667 389.38 436.334 380.782 437.857C379.815 438.007 378.825 437.871 377.934 437.465C377.043 437.059 376.291 436.401 375.77 435.573L356.977 404.767C355.847 402.9 354.226 401.696 352.113 401.156L318.139 392.828C316.502 392.427 315.016 391.563 313.858 390.339C312.7 389.116 311.918 387.585 311.607 385.929C311.297 384.273 311.469 382.563 312.104 381.002C312.74 379.442 313.811 378.098 315.191 377.13C323.838 370.989 333.443 368.114 344.007 368.508C345.24 368.561 346.408 369.067 347.281 369.926C348.154 370.786 348.668 371.936 348.723 373.151L349.018 378.457C349.214 381.65 350.394 382.068 352.555 379.71C354.668 377.351 355.528 374.403 355.135 370.866C354.103 361.948 345.554 359.443 337.816 359.811C337.391 359.826 336.972 359.714 336.611 359.49C336.251 359.265 335.965 358.938 335.791 358.551C335.617 358.163 335.563 357.733 335.634 357.314C335.706 356.895 335.901 356.507 336.195 356.2L343.27 348.904C345.53 346.546 346.217 343.77 345.333 340.576C344.006 335.81 340.862 332.445 335.9 330.479C333.345 329.448 332.755 330.16 334.131 332.617L338.332 339.986C340.199 343.278 339.339 345.538 335.752 346.767L309.221 356.053C307.477 356.678 305.58 356.716 303.815 356.163C302.05 355.609 300.512 354.493 299.433 352.981C298.353 351.47 297.79 349.645 297.827 347.78C297.865 345.916 298.501 344.112 299.64 342.64L319.244 317.361C320.767 315.347 322.806 314.462 325.361 314.708L331.994 315.298C340.788 316.035 341.034 314.905 332.731 311.908L328.825 310.507C326.417 309.672 325.14 307.977 324.992 305.422L322.855 275.059C322.364 267.934 325.68 264.716 332.804 265.404C340.174 266.141 343.933 270.195 344.08 277.564C344.087 278.099 344.23 278.624 344.494 279.089C344.759 279.554 345.137 279.944 345.593 280.224C346.049 280.504 346.569 280.663 347.103 280.688C347.638 280.712 348.17 280.601 348.649 280.365L352.113 278.67C352.242 278.619 352.383 278.611 352.517 278.645C352.652 278.679 352.772 278.754 352.861 278.859C352.95 278.965 353.004 279.096 353.016 279.233C353.027 279.371 352.995 279.509 352.924 279.628ZM282.321 293.778C278.342 305.275 270.603 325.394 278.415 336.965C280.332 339.864 282.567 340.109 285.122 337.702C305.905 318.196 313.668 294.073 308.41 265.33C307.821 262.235 306.101 261.277 303.252 262.456C291.165 267.468 287.259 279.554 282.321 293.778ZM526.04 337.702C536.579 320.456 519.85 282.502 509.974 267.91C501.769 255.774 496.905 257.003 495.382 271.595C492.532 298.519 500.86 320.825 520.366 338.512C522.626 340.527 524.517 340.257 526.04 337.702ZM429.57 376.32C430.042 376.314 430.502 376.163 430.884 375.885C431.267 375.608 431.555 375.219 431.707 374.772L448.584 322.815C448.732 322.372 448.741 321.894 448.609 321.446C448.477 320.998 448.211 320.601 447.847 320.309L403.776 286.113C403.375 285.803 402.882 285.634 402.375 285.634C401.868 285.634 401.376 285.803 400.975 286.113L356.83 320.456C356.466 320.749 356.2 321.146 356.068 321.594C355.936 322.042 355.945 322.519 356.093 322.962L373.191 374.846C373.343 375.293 373.631 375.682 374.013 375.959C374.396 376.236 374.856 376.388 375.328 376.393L429.57 376.32ZM301.778 415.527C314.085 430.782 343.564 457.756 364.347 455.103C365.041 455.002 365.703 454.742 366.28 454.345C366.856 453.948 367.332 453.424 367.669 452.815C368.005 452.207 368.193 451.53 368.218 450.839C368.243 450.149 368.103 449.463 367.811 448.838C356.167 423.584 336.342 408.697 308.337 404.177C306.931 403.944 305.488 404.144 304.2 404.752C302.912 405.361 301.84 406.347 301.127 407.581C300.414 408.814 300.094 410.236 300.211 411.655C300.327 413.075 300.874 414.426 301.778 415.527ZM497.372 404.177C469.907 407.96 449.935 422.307 437.455 447.217C436.843 448.399 436.605 449.739 436.772 451.059C436.94 452.379 437.505 453.617 438.392 454.609C439.28 455.601 440.448 456.299 441.742 456.611C443.036 456.923 444.394 456.834 445.636 456.355C464.896 449.28 481.379 439.331 495.087 426.508C502.064 419.973 504.152 413.291 501.352 406.462C500.615 404.693 499.288 403.932 497.372 404.177Z" fill="white" fill-opacity="0.15"/>
<path d="M251.299 265.447L224.502 237.449C221.851 234.615 222.44 233.466 226.268 234.004C239.594 235.836 284.649 240.014 268.379 264.054C267.46 265.413 266.245 266.549 264.825 267.377C263.405 268.206 261.816 268.705 260.176 268.839C258.535 268.973 256.886 268.737 255.349 268.15C253.813 267.563 252.428 266.639 251.299 265.447Z" fill="white" fill-opacity="0.15"/>
<path d="M539.142 241.085L576.774 232.138C580.076 231.362 580.741 232.307 578.77 234.975C571.377 245.062 562.899 253.962 553.337 261.673C543.282 269.821 533.08 265.674 531.01 253.089C530.582 250.459 531.181 247.766 532.687 245.543C534.194 243.32 536.497 241.729 539.142 241.085Z" fill="white" fill-opacity="0.15"/>
<path d="M601.57 302.141C591.264 309.324 548.276 338.431 550.999 301.693C551.072 300.577 551.366 299.487 551.863 298.489C552.361 297.49 553.052 296.602 553.896 295.876C554.739 295.151 555.719 294.604 556.776 294.266C557.834 293.929 558.948 293.808 560.053 293.911L600.539 297.951C604.612 298.4 604.956 299.797 601.57 302.141Z" fill="white" fill-opacity="0.15"/>
<path d="M246.582 320.092C234.345 324.072 213.241 311.983 202.249 304.169C198.732 301.663 199.123 300.189 203.422 299.746L241.526 295.913C244.524 295.677 247.506 296.547 249.914 298.361C252.321 300.174 253.991 302.807 254.61 305.768C255.229 308.73 254.756 311.816 253.279 314.452C251.801 317.087 249.421 319.092 246.582 320.092Z" fill="white" fill-opacity="0.15"/>
<path d="M553.851 355.736C567.288 346.622 589.536 361.496 601.358 369.516C603.561 371.071 603.365 372.189 600.771 372.87C587.113 376.418 573.285 377.609 559.285 376.442C556.938 376.229 554.715 375.302 552.919 373.788C551.122 372.275 549.839 370.248 549.245 367.984C548.651 365.72 548.775 363.329 549.599 361.137C550.423 358.945 551.908 357.059 553.851 355.736Z" fill="white" fill-opacity="0.15"/>
<path d="M201.212 370.455L237.704 352.557C238.621 352.121 239.618 351.888 240.628 351.876C241.638 351.863 242.637 352.07 243.555 352.483C250.137 355.564 253.233 360.919 252.843 368.548C252.781 370.018 252.419 371.46 251.778 372.785C251.136 374.11 250.229 375.29 249.112 376.252C247.996 377.214 246.693 377.938 245.284 378.379C243.876 378.82 242.391 378.97 240.922 378.818L201.943 374.636C196.775 374.098 196.531 372.705 201.212 370.455Z" fill="white" fill-opacity="0.15"/>
<path d="M611.4 421L631.32 377.382C632.697 374.43 634.517 374.085 636.78 376.349C638.009 377.579 638.403 378.882 637.96 380.26C629.648 406.682 619.688 432.489 608.08 457.68C608.032 457.802 608.015 457.933 608.029 458.063C608.043 458.193 608.088 458.317 608.161 458.426C608.233 458.535 608.331 458.624 608.445 458.687C608.559 458.75 608.687 458.784 608.818 458.787C609.605 458.787 610.392 458.787 611.179 458.787C611.72 458.787 612.162 458.566 612.507 458.123C626.967 438.048 640.37 417.31 652.716 395.907C653.003 395.401 653.445 395.001 653.976 394.764C654.507 394.527 655.099 394.466 655.667 394.59C656.235 394.713 656.749 395.015 657.134 395.451C657.519 395.887 657.754 396.434 657.806 397.014C659.651 419.376 623.942 462.404 616.417 472.662C614.695 475.024 615.286 475.934 618.188 475.393C619.614 475.147 620.77 474.532 621.655 473.548C630.656 463.757 640.198 455.884 650.281 449.931C651.218 449.29 652.363 449.026 653.486 449.194C654.609 449.361 655.627 449.947 656.336 450.834C657.046 451.721 657.394 452.843 657.31 453.976C657.227 455.109 656.719 456.168 655.888 456.942L616.712 498.641C616.387 498.94 616.185 499.35 616.146 499.79C616.107 500.231 616.234 500.669 616.502 501.021C616.77 501.372 617.16 501.61 617.594 501.689C618.029 501.768 618.478 501.681 618.852 501.446L636.927 491.409C639.19 490.179 640.69 490.818 641.428 493.328C641.919 495.099 641.305 496.944 639.583 498.863C631.91 507.227 623.18 514.239 613.392 519.897C613.114 520.073 612.879 520.308 612.704 520.585C612.53 520.863 612.42 521.174 612.384 521.495C612.349 521.816 612.388 522.139 612.499 522.438C612.609 522.736 612.789 523.004 613.023 523.218L618.04 527.646C618.32 527.907 618.521 528.241 618.622 528.61C618.724 528.979 618.721 529.368 618.614 529.736C618.507 530.103 618.3 530.433 618.016 530.69C617.732 530.946 617.383 531.119 617.007 531.189C606.383 532.763 601.243 538.323 601.588 547.868C601.598 548.21 601.538 548.551 601.412 548.869C601.286 549.187 601.096 549.476 600.854 549.718C600.612 549.96 600.323 550.15 600.005 550.276C599.688 550.402 599.347 550.462 599.005 550.452C592.808 550.255 589.242 553.232 588.308 559.382C588.192 560.082 587.937 560.751 587.558 561.35C587.18 561.948 586.686 562.463 586.107 562.863C585.527 563.264 584.874 563.541 584.187 563.678C583.5 563.816 582.794 563.81 582.11 563.662L576.282 562.482C568.855 561.006 567.994 562.752 573.7 567.722C574.339 568.312 574.978 568.853 575.618 569.345C577.241 570.723 577.093 571.83 575.175 572.667C546.008 585.853 515.784 595.226 484.502 600.786C482.24 601.229 480.272 602.262 478.6 603.886C441.194 641.673 391.763 631.488 344.103 629.126C341.84 629.028 339.947 629.791 338.422 631.414L336.799 633.186C336.466 633.526 336.036 633.755 335.568 633.839C335.1 633.923 334.617 633.86 334.187 633.657C333.756 633.454 333.4 633.121 333.167 632.706C332.935 632.291 332.837 631.814 332.889 631.341C334.659 619.926 340.537 612.078 350.521 607.797C369.556 599.679 386.181 591.29 400.395 582.63C421.201 569.862 440.678 569.567 461.557 561.448C540.598 530.648 588.037 473.745 603.875 390.74C603.924 390.27 604.157 389.839 604.524 389.542C604.89 389.244 605.36 389.105 605.83 389.153C606.299 389.202 606.73 389.436 607.028 389.803C607.325 390.17 607.465 390.64 607.416 391.109L607.49 420.188C607.515 420.643 607.689 421.077 607.986 421.423C608.284 421.768 608.687 422.006 609.133 422.099C609.579 422.191 610.043 422.134 610.453 421.935C610.863 421.736 611.196 421.407 611.4 421Z" fill="white" fill-opacity="0.15"/>
<path d="M192.569 422.93L191.905 395.899C191.837 395.332 191.996 394.762 192.349 394.313C192.702 393.864 193.219 393.573 193.786 393.505C194.354 393.436 194.925 393.596 195.375 393.948C195.825 394.3 196.116 394.816 196.184 395.383C217.924 498.058 281.052 556.369 385.57 570.314C388.029 570.658 388.521 571.836 387.045 573.849C356.354 614.139 270.478 593.442 231.671 572.966C229.261 571.689 228.007 569.725 227.908 567.073C227.859 566.189 227.859 565.281 227.908 564.348C227.908 563.611 227.539 563.194 226.802 563.096L212.784 560.739C210.62 560.346 209.218 559.094 208.579 556.982C205.234 545.492 198.545 536.899 188.511 531.203C187.783 530.812 187.232 530.168 186.964 529.394C186.697 528.621 186.731 527.774 187.06 527.015C187.39 526.256 187.992 525.64 188.75 525.284C189.508 524.929 190.369 524.86 191.167 525.09L199.209 527.52C199.405 527.577 199.612 527.588 199.813 527.552C200.013 527.516 200.203 527.434 200.367 527.313C200.532 527.192 200.666 527.035 200.759 526.853C200.852 526.672 200.903 526.472 200.906 526.268C200.857 525.532 200.857 524.771 200.906 523.985C200.906 523.052 200.463 522.414 199.578 522.07C184.921 516.718 172.576 508.125 162.542 496.291C161.958 495.641 161.627 494.81 161.609 493.943C161.59 493.076 161.884 492.229 162.439 491.552C162.995 490.874 163.776 490.409 164.645 490.238C165.514 490.068 166.415 490.203 167.19 490.619C171.764 493.074 174.568 494.425 175.6 494.67C180.47 495.652 180.863 494.032 176.781 489.809L144.909 457.327C144.241 456.544 143.884 455.544 143.906 454.516C143.928 453.487 144.327 452.503 145.028 451.749C145.728 450.995 146.681 450.524 147.707 450.426C148.732 450.327 149.758 450.607 150.59 451.214L181.724 477.361C182.089 477.653 182.545 477.806 183.012 477.796C183.479 477.786 183.928 477.612 184.279 477.304C184.631 476.997 184.863 476.576 184.936 476.116C185.008 475.655 184.916 475.183 184.675 474.783C169.182 448.636 150.885 430.517 143.95 399.508C143.794 398.827 143.884 398.114 144.205 397.494C144.527 396.874 145.058 396.389 145.705 396.123C146.351 395.858 147.071 395.83 147.736 396.046C148.401 396.261 148.968 396.705 149.336 397.298L183.199 450.035C183.363 450.264 183.583 450.45 183.836 450.573C184.089 450.697 184.367 450.754 184.643 450.739C184.919 450.724 185.182 450.638 185.408 450.488C185.634 450.339 185.813 450.132 185.929 449.888C186.224 449.249 186.519 448.636 186.815 448.046C187.159 447.359 187.159 446.672 186.815 445.984C177.715 425.508 170.166 404.443 164.165 382.788C163.922 382.045 163.977 381.244 164.317 380.549C164.658 379.855 165.259 379.321 165.997 379.056C166.735 378.792 167.553 378.818 168.283 379.128C169.012 379.439 169.598 380.011 169.92 380.726L189.913 423.593C190.056 423.878 190.291 424.107 190.581 424.24C190.871 424.373 191.198 424.404 191.508 424.327C191.818 424.249 192.092 424.069 192.285 423.815C192.478 423.561 192.578 423.249 192.569 422.93Z" fill="white" fill-opacity="0.15"/>
<path d="M577.493 438.832C563.181 437.576 525.165 434.545 534.265 411.113C534.945 409.339 536.058 407.766 537.501 406.54C538.945 405.314 540.672 404.474 542.523 404.098C544.374 403.722 546.289 403.823 548.091 404.39C549.893 404.957 551.524 405.973 552.833 407.344L579.254 435.136C581.896 437.896 581.309 439.128 577.493 438.832Z" fill="white" fill-opacity="0.15"/>
<path d="M227.539 441.528C223.559 442.513 222.821 441.405 225.328 438.204C234.1 426.754 251.939 401.122 268.304 409.543C270.492 410.668 272.286 412.434 273.446 414.607C274.605 416.779 275.077 419.255 274.796 421.703C274.516 424.151 273.497 426.455 271.877 428.307C270.256 430.16 268.109 431.474 265.724 432.073L227.539 441.528Z" fill="white" fill-opacity="0.15"/>
<path d="M534.938 490.539C536.906 495.164 535.774 496.089 531.543 493.314L498.403 471.33C497.414 470.671 496.588 469.797 495.987 468.772C495.386 467.748 495.027 466.6 494.934 465.414C494.442 458.841 497.026 453.899 502.684 450.588C504.189 449.7 505.868 449.141 507.609 448.949C509.351 448.758 511.113 448.938 512.778 449.478C514.443 450.018 515.972 450.905 517.261 452.079C518.55 453.253 519.569 454.688 520.25 456.285L534.938 490.539Z" fill="white" fill-opacity="0.15"/>
<path d="M270.389 493.2L285.759 456.795C286.4 455.283 287.353 453.93 288.55 452.826C289.748 451.723 291.163 450.896 292.698 450.402C294.234 449.908 295.853 449.759 297.447 449.965C299.04 450.171 300.569 450.727 301.93 451.595C327.716 467.865 283.428 489.856 272.501 495.28C269.976 496.518 269.272 495.825 270.389 493.2Z" fill="white" fill-opacity="0.15"/>
<path d="M333.815 486.287C333.967 484.207 334.916 482.268 336.458 480.885C338.001 479.502 340.015 478.784 342.071 478.885L349.738 479.181C351.855 479.261 353.911 479.923 355.679 481.096C357.448 482.269 358.862 483.907 359.767 485.832C360.672 487.757 361.033 489.894 360.812 492.01C360.59 494.127 359.794 496.142 358.51 497.836L335.142 529.075C331.947 533.27 330.547 532.752 330.94 527.52L333.815 486.287Z" fill="white" fill-opacity="0.15"/>
<path d="M471.617 485.488L474.794 527.392C475.238 532.804 473.858 533.316 470.656 528.928L445.087 494.191C444.584 493.499 444.226 492.714 444.035 491.883C443.844 491.052 443.824 490.191 443.976 489.352C444.127 488.513 444.448 487.713 444.918 486.999C445.388 486.285 445.999 485.672 446.713 485.195L456.911 478.467C458.281 477.556 459.868 477.015 461.515 476.899C463.162 476.783 464.811 477.095 466.298 477.805C467.785 478.515 469.058 479.598 469.991 480.945C470.924 482.293 471.485 483.859 471.617 485.488Z" fill="white" fill-opacity="0.15"/>
<path d="M414.865 500.066C415.156 512.848 409.188 528.201 405.403 539C403.511 544.24 401.813 544.166 400.309 538.779L390.265 503.078C389.57 500.571 389.81 497.896 390.938 495.565C392.066 493.234 394.003 491.41 396.379 490.443C405.112 486.844 414.719 489.195 414.865 500.066Z" fill="white" fill-opacity="0.15"/>
<path d="M521.983 631.851L518.961 639.121C517.733 642.039 515.718 642.83 512.918 641.495C505.498 637.934 499.233 638.775 494.123 644.017C492.502 645.698 490.586 646.168 488.374 645.426C485.181 644.338 482.085 644.833 479.088 646.91C477.466 648.047 475.697 648.863 473.781 649.358C453.341 654.946 438.207 657.419 428.38 656.776C409.954 655.539 391.577 655.539 373.25 656.776C372.621 656.833 371.99 656.695 371.441 656.381C370.892 656.067 370.452 655.592 370.179 655.018C369.906 654.445 369.814 653.802 369.915 653.175C370.016 652.547 370.305 651.966 370.744 651.509L379.367 642.162C380.02 641.46 380.843 640.935 381.757 640.636C382.672 640.338 383.65 640.276 384.6 640.456C420.42 646.935 452.112 639.69 479.677 618.722C502.378 601.364 524.563 603.441 549.18 614.048C552.324 615.433 552.718 617.387 550.359 619.909C544.315 626.486 536.626 629.379 527.29 628.588C526.177 628.501 525.064 628.769 524.112 629.355C523.159 629.941 522.414 630.815 521.983 631.851Z" fill="white" fill-opacity="0.15"/>
<path d="M189.952 674.001C194.143 671.054 196.729 671.171 197.712 674.351C198.009 675.251 197.898 676.233 197.402 677.087C194.505 682.184 191.737 682.138 189.098 676.947C188.857 676.449 188.81 675.889 188.964 675.356C189.119 674.823 189.466 674.346 189.952 674.001Z" fill="white" fill-opacity="0.15"/>
<path d="M610.165 681.469C610.498 681.748 610.731 682.133 610.827 682.559C610.923 682.986 610.876 683.429 610.693 683.818C610.511 684.206 610.204 684.517 609.823 684.699C609.442 684.881 609.008 684.923 608.593 684.82C604.053 683.827 601.158 681.072 599.911 676.554C599.849 676.286 599.868 676.002 599.966 675.743C600.064 675.483 600.236 675.26 600.458 675.105C600.68 674.95 600.941 674.869 601.205 674.876C601.469 674.882 601.723 674.974 601.932 675.139L610.165 681.469Z" fill="white" fill-opacity="0.15"/>
</g>
<defs>
<clipPath id="clip0_203_164">
<rect width="803" height="803" fill="white" transform="translate(0.875244 0.875244)"/>
</clipPath>
</defs>
</svg>
