<svg width="803" height="803" viewBox="0 0 803 803" fill="none" xmlns="http://www.w3.org/2000/svg">
<path d="M373.137 0L430.673 0C634.886 23.0586 783.772 167.672 803 373.137V430.747C778.689 635.401 637.832 782.372 429.863 803H372.327C168.188 779.941 19.0805 635.328 0 429.863L0 372.253C20.1855 166.494 168.409 22.8376 373.137 0ZM412.035 67.4815L432.662 68.2182C435.216 68.3164 436.493 67.1131 436.493 64.6084L436.567 53.5579C436.567 51.1022 435.339 49.8498 432.883 49.8007L410.856 49.4324C409.645 49.5105 408.452 49.1043 407.54 48.303C406.628 47.5016 406.072 46.3709 405.994 45.1595C405.916 43.9482 406.322 42.7553 407.123 41.8435C407.925 40.9317 409.055 40.3755 410.267 40.2973C417.535 39.2168 424.853 39.2905 432.22 40.5183C434.971 40.9604 436.469 39.7817 436.714 36.9822L437.377 27.7735C437.623 24.6302 436.149 23.0095 432.957 22.9113L388.829 22.0272C388.355 22.0175 387.883 22.1012 387.442 22.2736C387 22.4461 386.597 22.7038 386.254 23.0322C385.912 23.3606 385.638 23.7532 385.448 24.1875C385.258 24.6218 385.155 25.0893 385.145 25.5634L384.335 88.772C384.286 91.9644 385.857 93.5851 389.05 93.6342L404.078 93.9289C407.074 93.978 408.523 92.5046 408.425 89.5087L407.762 71.7543C407.664 68.8075 409.088 67.3832 412.035 67.4815ZM330.409 77.0585C337.727 84.4255 345.634 91.1049 354.13 97.0967C354.656 97.4816 355.302 97.6881 355.972 97.6861C360.834 97.8334 365.844 96.9002 371.001 94.8866C372.308 94.368 373.454 93.5124 374.322 92.4068C375.191 91.3012 375.751 89.9852 375.946 88.5927C376.141 87.2002 375.963 85.781 375.43 84.4796C374.898 83.1782 374.031 82.0411 372.916 81.184L349.858 63.5033C347.795 61.9808 347.304 60.0408 348.384 57.6834L361.939 28.5839C362.255 27.9418 362.38 27.223 362.301 26.512C362.222 25.801 361.942 25.1274 361.493 24.5703C361.044 24.0132 360.446 23.5958 359.768 23.3671C359.09 23.1385 358.361 23.1082 357.667 23.2796L341.901 27.0368C339.888 27.4788 338.414 28.6084 337.481 30.4256L326.136 52.1582C325.91 52.6288 325.539 53.01 325.077 53.246C324.615 53.482 324.086 53.5604 323.568 53.4699C323.05 53.3794 322.569 53.1247 322.196 52.7429C321.823 52.3611 321.577 51.8723 321.495 51.3478L319.285 35.6561C318.892 32.9058 317.345 31.7762 314.643 32.2673L298.583 35.1405C295.686 35.6807 294.532 37.3997 295.121 40.2973L306.392 97.8334C306.961 100.757 308.596 103.365 310.979 105.151C313.363 106.937 316.325 107.774 319.29 107.498C322.256 107.223 325.013 105.855 327.027 103.661C329.041 101.466 330.167 98.6016 330.188 95.6233C330.237 91.7925 329.083 86.3409 326.725 79.2686C324.81 73.3259 326.038 72.5892 330.409 77.0585ZM475.612 75.1431L499.112 78.6056C501.519 78.9494 502.747 77.918 502.796 75.5115L502.87 66.5238C502.919 64.019 501.715 62.4474 499.26 61.8089L477.232 56.1363C475.563 55.6943 474.924 54.6384 475.317 52.9685L475.833 51.0531C476.079 50.1361 476.657 49.3453 477.45 48.8396C478.243 48.3339 479.191 48.1509 480.106 48.3273L498.081 51.6425C499.203 51.8602 500.357 51.8547 501.477 51.6263C502.598 51.3979 503.662 50.9512 504.609 50.3116C505.557 49.672 506.369 48.852 506.999 47.8985C507.63 46.945 508.067 45.8766 508.284 44.7544C508.502 43.6321 508.496 42.478 508.268 41.3579C508.04 40.2378 507.593 39.1736 506.953 38.2262C506.314 37.2787 505.494 36.4665 504.54 35.8359C503.587 35.2054 502.518 34.7688 501.396 34.5511L460.804 26.1528C458.299 25.6125 456.801 26.5948 456.31 29.0995L443.492 92.7502C443.001 95.2058 443.983 96.6301 446.439 97.023L463.162 99.8225C465.666 100.215 467.14 99.1594 467.582 96.6547L470.75 78.6793C471.241 75.9289 472.861 74.7502 475.612 75.1431ZM86.8566 500.88C44.2018 355.825 95.5496 212.979 219.83 126.859C221.599 125.631 222.041 124.011 221.157 121.997L213.2 104.685C212.83 103.859 212.283 103.124 211.598 102.533C210.912 101.942 210.106 101.508 209.235 101.262C208.364 101.016 207.45 100.964 206.556 101.11C205.663 101.256 204.813 101.596 204.065 102.106C44.7175 208.338 -1.10504 407.025 87.5933 576.024C88.9194 578.528 90.6383 578.848 92.7502 576.981L108 563.794C110.406 561.732 111.02 559.227 109.842 556.28C102.401 538.01 92.0872 518.635 86.8566 500.88ZM702.514 204.286C687.781 181.154 623.172 102.917 594.883 102.548C589.333 102.499 586.681 104.979 586.927 109.989C586.968 111.209 586.639 112.415 585.982 113.452C585.326 114.489 584.372 115.31 583.243 115.809C579.314 117.479 578.013 120.769 579.339 125.681C579.633 126.957 580.419 127.596 581.696 127.596C583.268 127.645 584.913 128.333 586.632 129.659C665.311 187.416 711.846 262.019 726.236 353.467C731.786 388.632 731.418 423.11 725.131 456.9C718.845 490.788 707.671 523.816 691.611 555.985C690.724 557.797 690.232 559.902 690.203 562.01C690.175 564.117 690.611 566.123 691.453 567.749C692.294 569.375 693.499 570.542 694.9 571.087C696.301 571.632 697.829 571.53 699.273 570.793C702.564 569.074 704.184 569.835 704.135 573.077C704.074 574.546 704.52 575.991 705.398 577.171C706.276 578.35 707.533 579.192 708.958 579.554C710.383 579.917 711.889 579.779 713.224 579.163C714.559 578.547 715.642 577.49 716.291 576.171C720.76 567.478 725.328 558.318 729.993 548.692C734.806 538.771 738.662 529.292 741.559 520.256C777.461 406.804 764.446 301.481 702.514 204.286ZM687.265 401.5C687.265 325.652 657.134 252.91 603.502 199.277C549.869 145.645 477.127 115.514 401.279 115.514C325.431 115.514 252.689 145.645 199.056 199.277C145.424 252.91 115.293 325.652 115.293 401.5C115.293 477.348 145.424 550.09 199.056 603.723C252.689 657.355 325.431 687.486 401.279 687.486C477.127 687.486 549.869 657.355 603.502 603.723C657.134 550.09 687.265 477.348 687.265 401.5ZM131.5 640.043C130.174 653.008 128.112 665.164 144.393 668.553C144.874 668.658 145.372 668.658 145.855 668.551C146.337 668.445 146.792 668.234 147.189 667.935C147.587 667.635 147.918 667.252 148.159 666.813C148.401 666.373 148.549 665.886 148.592 665.385L150.434 641.811C150.679 638.618 152.423 636.899 155.664 636.654L175.334 635.18C176.622 635.078 177.848 634.566 178.83 633.721C179.813 632.876 180.499 631.742 180.788 630.487C181.077 629.232 180.953 627.922 180.436 626.75C179.918 625.579 179.033 624.609 177.912 623.983C169.809 619.366 160.87 617.622 151.097 618.752C150.63 618.766 150.174 618.616 149.807 618.328C149.44 618.04 149.186 617.632 149.089 617.176C148.993 616.719 149.06 616.243 149.278 615.831C149.497 615.419 149.854 615.097 150.286 614.921L155.222 613.374C157.481 612.637 158.586 611.09 158.537 608.733C158.341 602.004 155.173 596.897 149.034 593.41C148.165 592.895 147.148 592.682 146.138 592.801C145.128 592.921 144.179 593.367 143.435 594.073L113.23 623.541C112.936 623.835 112.592 623.86 112.199 623.614L109.989 622.362C109.748 622.222 109.476 622.147 109.197 622.144C108.919 622.14 108.645 622.208 108.401 622.342C108.156 622.475 107.951 622.669 107.803 622.904C107.655 623.14 107.571 623.41 107.558 623.688L107.41 631.644C107.312 633.953 108.221 635.745 110.136 637.022C116.275 641.246 122.243 641.54 128.038 637.906C130.641 636.285 131.795 636.998 131.5 640.043ZM664.133 626.708L643.21 625.53C632.651 623.32 625.309 625.775 621.183 632.897C619.808 635.205 620.127 637.268 622.141 639.085L653.082 666.785C655.587 668.995 658.043 668.946 660.449 666.637L664.354 662.807C666.662 660.646 666.686 658.435 664.427 656.176L652.935 644.905C659.025 640.681 667.325 639.502 677.835 641.369C678.979 641.579 680.155 641.557 681.294 641.304C682.433 641.051 683.511 640.572 684.465 639.895C692.078 634.542 694.042 629.852 690.359 625.824L658.976 597.167C656.815 595.202 654.826 595.35 653.008 597.609L647.852 603.723C645.936 606.081 646.255 608.045 648.809 609.617C655.734 613.988 660.842 619.685 664.133 626.708ZM175.629 686.16C186.384 688.714 190.878 694.509 189.11 703.546C188.521 706.689 189.675 708.948 192.573 710.323L199.498 713.565C202.101 714.842 203.746 714.056 204.433 711.208L215.189 665.238C215.762 662.801 215.621 660.251 214.784 657.892C213.947 655.533 212.448 653.465 210.468 651.935C208.487 650.404 206.107 649.476 203.613 649.262C201.12 649.047 198.617 649.555 196.403 650.725L160.084 669.879C158.531 670.687 157.244 671.925 156.381 673.442C155.519 674.959 155.116 676.689 155.222 678.424C155.811 687.216 160.674 689.917 169.809 686.528C171.678 685.81 173.711 685.681 175.629 686.16ZM619.562 684.686C628.255 691.366 635.18 691.194 640.337 684.171C641.958 681.961 641.565 680.217 639.159 678.94L619.636 668.111C618.261 663.838 613.644 659.933 605.786 656.397C595.325 651.781 587.86 652.935 583.391 659.86C580.689 664.083 580.395 670.1 582.507 677.909C585.699 689.843 588.449 701.974 590.758 714.302C591.249 716.954 592.82 718.083 595.472 717.69L604.239 716.291C606.4 715.947 607.481 714.695 607.481 712.534V700.083C607.53 698.021 608.561 696.768 610.575 696.326C616.026 695 619.022 691.12 619.562 684.686ZM242.889 703.62L216.073 718.427C213.225 719.999 213.249 721.521 216.147 722.995C228.425 729.183 240.679 735.347 252.908 741.486C258.753 744.482 261.749 742.026 261.896 734.119C261.945 732.203 261.11 730.853 259.391 730.067L244.068 722.921C240.532 721.3 240.483 719.557 243.92 717.69L247.162 715.922C258.507 713.418 268.919 708.04 278.398 699.789C280.559 697.922 280.362 696.351 277.809 695.074L240.974 676.73C240.351 676.425 239.663 676.279 238.97 676.304C238.278 676.33 237.602 676.527 237.004 676.877C236.406 677.227 235.904 677.72 235.542 678.311C235.181 678.902 234.971 679.574 234.933 680.266L234.638 685.718C234.393 689.549 236.185 691.759 240.016 692.348L244.657 693.085C247.113 693.429 247.751 694.681 246.573 696.842L242.889 703.62ZM561.437 694.263C567.723 691.955 570.007 687.535 568.288 681.003C568.05 680.139 567.626 679.337 567.047 678.652C566.468 677.968 565.747 677.418 564.935 677.039C564.122 676.661 563.237 676.464 562.34 676.461C561.444 676.459 560.557 676.651 559.743 677.025L526.002 692.79C524.397 693.58 523.115 694.901 522.375 696.53C521.635 698.158 521.482 699.993 521.943 701.721C522.403 703.45 523.448 704.965 524.9 706.01C526.352 707.054 528.121 707.563 529.906 707.45L537.715 706.787C539.876 706.64 541.423 707.524 542.357 709.439L554.659 733.971C555.838 736.329 557.68 737.139 560.185 736.403L569.172 733.824C573.2 732.645 574.28 730.165 572.414 726.383L559.227 699.715C557.95 697.112 558.687 695.295 561.437 694.263ZM500.144 747.6C498.621 749.025 495.994 748.853 492.261 747.085C490.051 746.053 488.43 746.643 487.399 748.853C486.957 749.884 486.859 750.965 487.104 752.094C487.546 754.01 488.872 755.409 491.082 756.293C493.685 757.325 496.804 757.693 500.438 757.398C516.056 761.892 533.442 744.875 522.024 730.214C520.305 727.955 518.095 726.482 515.393 725.794L498.081 721.3C497.459 721.096 496.935 720.668 496.61 720.101C496.284 719.533 496.18 718.865 496.317 718.225C496.454 717.586 496.823 717.019 497.353 716.635C497.882 716.25 498.535 716.075 499.186 716.143L510.752 717.911C511.297 717.989 511.854 717.938 512.375 717.763C512.896 717.588 513.368 717.294 513.75 716.905C514.131 716.516 514.413 716.043 514.571 715.526C514.728 715.01 514.758 714.463 514.657 713.933L513.183 706.419C512.594 703.178 510.654 701.778 507.363 702.22L488.136 705.019C485.483 705.412 483.322 706.64 481.653 708.703C467.655 725.794 483.126 739.939 500.733 738.907C503.385 738.76 504.097 739.865 502.87 742.222L500.144 747.6ZM295.416 746.937L307.571 752.905C309.781 753.985 311.328 755.679 312.212 757.988C314.57 764.274 319.309 766.951 326.431 766.018C327.539 765.851 328.538 765.264 329.213 764.382C329.888 763.5 330.185 762.394 330.04 761.303L324.294 714.744C323.994 712.258 322.981 709.913 321.377 707.991C319.773 706.069 317.646 704.652 315.255 703.912C312.863 703.172 310.308 703.14 307.899 703.82C305.49 704.501 303.329 705.864 301.678 707.745L269.705 744.359C269.079 745.063 268.658 745.925 268.488 746.851C268.318 747.777 268.404 748.733 268.738 749.613C269.072 750.494 269.641 751.266 270.383 751.846C271.125 752.427 272.011 752.793 272.946 752.905L288.049 754.673C288.356 754.714 288.67 754.69 288.968 754.603C289.266 754.515 289.542 754.365 289.778 754.164C290.015 753.962 290.206 753.713 290.339 753.433C290.473 753.152 290.546 752.847 290.553 752.536L290.701 749.737C290.715 749.189 290.869 748.655 291.146 748.183C291.423 747.711 291.815 747.316 292.286 747.037C292.757 746.757 293.291 746.602 293.838 746.584C294.385 746.567 294.928 746.688 295.416 746.937ZM434.799 753.42L447.028 749.958C449.582 749.221 451.031 750.179 451.374 752.831L452.921 764.544C453.413 768.031 455.377 769.554 458.815 769.112L467.508 768.007C468.753 767.84 469.883 767.198 470.654 766.219C471.426 765.241 471.778 764.004 471.634 762.776L466.992 719.974C466.739 717.532 465.577 715.274 463.738 713.648C461.899 712.021 459.517 711.144 457.062 711.19C454.607 711.237 452.259 712.203 450.483 713.898C448.707 715.593 447.631 717.893 447.47 720.343C447.273 723.044 447.544 726.801 448.28 731.614C448.575 733.726 447.666 734.782 445.554 734.782L432.662 735.003C432.048 735.009 431.44 734.882 430.879 734.631C430.318 734.381 429.817 734.012 429.412 733.551C429.006 733.089 428.705 732.546 428.529 731.957C428.352 731.369 428.305 730.749 428.389 730.141L429.421 722.258C429.765 719.508 428.537 718.157 425.737 718.206L412.182 718.574C409.726 718.624 408.646 719.876 408.941 722.332L414.098 766.165C414.377 768.531 415.545 770.695 417.366 772.218C419.186 773.742 421.523 774.512 423.902 774.371C426.281 774.231 428.525 773.191 430.179 771.462C431.833 769.733 432.773 767.444 432.81 765.06C432.859 763.488 432.564 761.156 431.926 758.061C431.484 755.655 432.441 754.108 434.799 753.42ZM365.991 729.625C367.17 727.071 367.612 724.763 367.317 722.7C366.992 720.354 365.812 718.237 364.002 716.754C362.192 715.272 359.879 714.528 357.507 714.665C355.135 714.801 352.87 715.81 351.146 717.496C349.422 719.183 348.36 721.429 348.163 723.805L343.89 765.797C343.596 768.645 344.897 770.094 347.795 770.143L359.877 770.364C362.578 770.413 363.855 769.087 363.707 766.386L363.118 755.262C363.106 754.686 363.298 754.125 363.661 753.677C364.024 753.23 364.534 752.927 365.101 752.82C365.667 752.714 366.252 752.813 366.753 753.098C367.253 753.383 367.636 753.837 367.833 754.378C372.204 767.737 381.388 774.195 395.385 773.753C399.265 773.606 400.198 771.887 398.185 768.596L384.703 746.274C384.215 745.459 383.994 744.513 384.074 743.573C384.153 742.633 384.528 741.747 385.145 741.044L397.743 726.826C400.984 723.093 400.272 720.441 395.606 718.869C387.601 716.07 378.982 720.441 369.748 731.982C369.436 732.481 368.938 732.834 368.365 732.965C367.791 733.097 367.189 732.995 366.691 732.682C366.193 732.37 365.839 731.872 365.708 731.299C365.577 730.725 365.679 730.123 365.991 729.625Z" fill="white"/>
<path d="M398.623 132.872C399.72 129.117 401.017 129.044 402.513 132.653C408.198 146.186 421.513 174.716 405.056 184.372C402.991 185.562 400.606 186.122 398.211 185.978C395.817 185.834 393.523 184.994 391.628 183.567C389.732 182.139 388.323 180.19 387.583 177.973C386.843 175.755 386.807 173.372 387.478 171.131L398.623 132.872Z" fill="white"/>
<path d="M331.645 142.458C341.962 154.401 372.466 183.743 347.27 194.138C345.627 194.821 343.842 195.104 342.063 194.966C340.284 194.827 338.563 194.27 337.043 193.34C335.522 192.41 334.246 191.134 333.32 189.619C332.395 188.104 331.846 186.393 331.719 184.627L329.028 143.564C328.828 140.566 329.701 140.197 331.645 142.458Z" fill="white"/>
<path d="M448.661 191.272C447.344 190.616 446.184 189.687 445.261 188.547C444.337 187.407 443.672 186.084 443.312 184.668C442.951 183.253 442.903 181.778 443.171 180.347C443.439 178.915 444.016 177.56 444.864 176.374L467.575 144.874C469.511 142.107 470.727 142.404 471.224 145.764C474.252 166.863 473.408 180.97 468.692 188.085C464.373 194.706 457.696 195.769 448.661 191.272Z" fill="white"/>
<path d="M533.373 180.578C528.867 192.39 524.067 208.651 514.687 217.619C507.597 224.328 501.023 223.331 494.967 214.63C494.127 213.435 493.538 212.085 493.235 210.66C492.933 209.235 492.922 207.763 493.204 206.331C493.486 204.898 494.055 203.533 494.877 202.317C495.7 201.1 496.76 200.055 497.995 199.244L530.344 178.244C533.791 176.008 534.8 176.786 533.373 180.578Z" fill="white"/>
<path d="M270.983 178.947L302.734 199.952C305.251 201.605 307.032 204.181 307.705 207.142C308.378 210.102 307.89 213.217 306.343 215.835C302.513 222.317 297.896 224.94 292.494 223.703C289.204 222.96 286.257 220.412 283.654 216.058C276.779 204.529 271.671 192.802 268.331 180.877C267.448 177.859 268.332 177.215 270.983 178.947Z" fill="white"/>
<path d="M543 335.5C543 373.028 528.092 409.019 501.556 435.556C475.019 462.092 439.028 477 401.5 477C363.972 477 327.981 462.092 301.444 435.556C274.908 409.019 260 373.028 260 335.5C260 297.972 274.908 261.981 301.444 235.444C327.981 208.908 363.972 194 401.5 194C439.028 194 475.019 208.908 501.556 235.444C528.092 261.981 543 297.972 543 335.5ZM365.02 225.101C388.947 237.433 413.218 237.555 437.833 225.469C439.056 224.857 440.069 223.894 440.74 222.702C441.411 221.511 441.711 220.146 441.6 218.782C441.489 217.419 440.973 216.12 440.117 215.053C439.262 213.986 438.107 213.199 436.801 212.793C417.787 207.045 374.232 202.77 363.251 217.436C362.804 218.036 362.493 218.726 362.339 219.459C362.185 220.191 362.193 220.948 362.361 221.678C362.53 222.407 362.855 223.091 363.314 223.682C363.773 224.273 364.355 224.757 365.02 225.101ZM352.049 278.753C350.231 281.307 350.526 283.887 352.933 286.491C353.442 287.039 353.81 287.703 354.007 288.425C354.204 289.146 354.224 289.905 354.065 290.636C353.906 291.367 353.572 292.048 353.093 292.623C352.613 293.197 352.002 293.647 351.312 293.934L344.9 296.587C344.479 296.791 344.136 297.126 343.924 297.543C343.712 297.96 343.643 298.435 343.726 298.895C343.81 299.355 344.042 299.775 344.387 300.09C344.732 300.405 345.171 300.599 345.637 300.641C349.666 300.788 353.596 300.395 357.429 299.462C360.033 298.774 361.212 297.079 360.966 294.377L359.934 280.595C359.787 278.581 360.647 277.991 362.514 278.826L372.758 283.69C375.165 284.82 377.425 284.526 379.538 282.806C383.567 279.563 386.392 275.412 388.013 270.351C389.929 264.406 389.045 263.939 385.36 268.951C379.317 277.303 371.947 277.598 363.251 269.835C362.465 269.098 362.244 268.214 362.588 267.182C362.784 266.642 363.03 266.077 363.324 265.487C364.553 262.834 363.791 260.967 361.04 259.886C360.155 259.542 359.197 259.247 358.166 259.002C356.053 258.51 355.046 257.184 355.144 255.022L355.66 245.367C355.807 242.862 357.109 241.56 359.566 241.461C377.155 240.872 390.74 247.013 400.321 259.886C400.861 260.574 401.402 260.598 401.942 259.96C411.523 248.414 424.371 241.977 440.486 240.651C442.947 240.501 445.45 241.3 447.467 242.879C449.484 244.457 450.857 246.692 451.297 249.111C451.737 251.531 451.209 253.945 449.824 255.846C448.44 257.746 446.307 258.983 443.876 259.296L440.928 259.591C439.111 259.739 438.472 260.697 439.012 262.465C441.125 269.589 438.079 273.692 429.874 274.773C423.634 275.608 419.359 273.299 417.05 267.845C416.914 267.551 416.675 267.317 416.378 267.188C416.081 267.058 415.747 267.042 415.439 267.141C415.13 267.241 414.869 267.45 414.704 267.729C414.54 268.008 414.483 268.338 414.545 268.656C415.773 273.717 418.254 278.065 421.988 281.701C423.222 282.893 424.788 283.68 426.475 283.957C428.161 284.233 429.888 283.986 431.421 283.248L440.191 279.047C442.55 277.966 443.582 278.703 443.287 281.258L441.813 293.713C441.321 297.693 443.09 299.855 447.119 300.199L455.078 300.788C455.654 300.801 456.216 300.608 456.664 300.245C457.111 299.882 457.415 299.371 457.521 298.805C457.627 298.239 457.529 297.653 457.243 297.152C456.958 296.652 456.504 296.269 455.963 296.072L453.457 295.261C452.454 294.947 451.588 294.303 450.999 293.432C450.41 292.562 450.133 291.518 450.214 290.471L451.32 277.573C451.369 276.787 451.688 276.64 452.278 277.131L455.299 279.637C455.689 279.96 456.162 280.165 456.664 280.228C457.166 280.291 457.675 280.21 458.132 279.993C458.589 279.776 458.975 279.433 459.243 279.004C459.512 278.576 459.652 278.079 459.648 277.573C459.5 267.944 464.168 263.669 473.65 264.75C476.696 265.094 478.588 266.74 479.325 269.688C483.256 284.968 481.094 298.823 472.84 311.253C472.201 312.236 472.422 312.924 473.503 313.317C488.292 318.476 498.315 328.818 503.572 344.344C504.069 345.822 504.144 347.411 503.79 348.93C503.435 350.449 502.665 351.837 501.566 352.935C500.467 354.034 499.085 354.799 497.576 355.143C496.067 355.488 494.493 355.397 493.033 354.883L468.639 346.334C467.765 346.029 466.978 345.516 466.348 344.838C465.718 344.16 465.264 343.339 465.024 342.445C464.784 341.551 464.766 340.612 464.973 339.71C465.179 338.808 465.602 337.97 466.207 337.269L471.292 331.226C471.511 330.979 471.641 330.667 471.661 330.338C471.682 330.009 471.591 329.683 471.405 329.412C471.218 329.14 470.946 328.939 470.631 328.84C470.317 328.742 469.979 328.751 469.671 328.867C464.61 330.734 460.802 334.001 458.247 338.669C456.823 341.273 457.117 343.68 459.132 345.891L467.386 355.177C467.666 355.506 467.854 355.904 467.929 356.33C468.005 356.756 467.965 357.194 467.815 357.599C467.665 358.005 467.41 358.363 467.075 358.636C466.741 358.91 466.339 359.09 465.912 359.157L455.521 360.484C452.917 360.778 451.148 362.179 450.214 364.684C448.249 370.04 448.863 375.1 452.057 379.866C454.169 383.011 455.177 382.691 455.078 378.908L454.931 373.602C454.833 370.113 456.528 368.222 460.016 367.927C473.233 366.895 484.091 371.293 492.591 381.119C493.154 381.783 493.542 382.577 493.721 383.429C493.9 384.281 493.863 385.164 493.614 385.999C493.365 386.833 492.912 387.592 492.296 388.207C491.68 388.822 490.92 389.273 490.085 389.521L455.963 399.691C453.113 400.526 450.755 399.789 448.888 397.48L436.875 382.667C436.743 382.531 436.568 382.445 436.379 382.425C436.191 382.405 436.001 382.452 435.844 382.557C435.686 382.662 435.57 382.819 435.516 383.001C435.462 383.182 435.474 383.377 435.548 383.551L445.866 400.87C446.433 401.795 447.222 402.562 448.162 403.103C449.102 403.644 450.162 403.94 451.246 403.965C468.246 404.457 484.189 400.674 499.076 392.616C500.141 392.029 501.047 391.186 501.715 390.158C502.383 389.13 502.792 387.95 502.908 386.72C503.694 378.368 500.624 372.03 493.696 367.706C493.314 367.447 493.025 367.071 492.875 366.634C492.724 366.197 492.719 365.724 492.86 365.284C493.001 364.844 493.281 364.462 493.657 364.194C494.034 363.927 494.487 363.788 494.949 363.8C504.874 364.193 510.843 360.778 512.858 353.556C516.69 339.48 495.096 318.697 485.073 311.032C483.354 309.706 482.789 307.986 483.378 305.873C487.211 292.387 495.17 255.096 473.429 252.221C471.339 251.938 469.221 252.408 467.46 253.548L460.606 257.896C456.97 260.254 455.914 259.395 457.437 255.317C461.318 244.753 458.297 236.794 448.372 231.439C447.427 230.933 446.381 230.644 445.31 230.593C444.239 230.542 443.17 230.73 442.181 231.144L403.711 247.062C402.434 247.603 401.156 247.603 399.879 247.062L360.598 231.291C358.692 230.535 356.624 230.276 354.59 230.539C352.557 230.802 350.623 231.578 348.972 232.794C347.321 234.011 346.006 235.627 345.152 237.491C344.298 239.356 343.932 241.407 344.089 243.451L344.974 254.801C345.023 255.333 344.91 255.867 344.65 256.334C344.391 256.801 343.996 257.178 343.518 257.417C343.04 257.656 342.502 257.745 341.972 257.673C341.443 257.601 340.948 257.37 340.552 257.012C332.543 249.691 324.535 250.698 316.526 260.033C315.535 261.163 315.031 262.647 315.126 264.16L317.853 305.136C318 307.151 317.435 308.92 316.158 310.443L289.332 342.943C288.078 344.467 287.232 346.285 286.873 348.226C286.514 350.166 286.655 352.166 287.281 354.038C287.907 355.909 288.999 357.591 290.453 358.925C291.908 360.258 293.678 361.201 295.596 361.663L307.756 364.537C309.623 365.028 309.918 366.011 308.641 367.485L301.123 375.96C299.75 377.539 298.804 379.444 298.377 381.494C297.95 383.543 298.056 385.667 298.684 387.663C299.313 389.66 300.443 391.462 301.967 392.896C303.491 394.331 305.357 395.351 307.388 395.859L349.174 406.176C351.484 406.766 353.056 408.215 353.891 410.524C358.018 421.923 364.283 432.143 372.684 441.183C381.086 450.321 392.951 449.584 397.594 437.793C398.331 435.926 399.289 434.28 400.468 432.855C402.532 430.448 403.834 430.816 404.374 433.96C407.396 451.353 425.82 450.469 433.927 437.94C440.339 427.917 447.93 418.115 449.846 406.618C449.955 405.972 449.814 405.308 449.451 404.762C449.088 404.216 448.531 403.829 447.893 403.678C447.255 403.528 446.584 403.627 446.015 403.954C445.447 404.281 445.025 404.812 444.834 405.439C441.297 416.74 435.106 426.394 426.263 434.403C425.371 435.198 424.308 435.778 423.156 436.098C422.005 436.419 420.795 436.47 419.621 436.25C418.446 436.029 417.338 435.542 416.381 434.826C415.424 434.109 414.645 433.183 414.102 432.118C408.649 421.309 408.624 410.696 414.029 400.28C414.627 399.111 415.644 398.208 416.882 397.745C418.121 397.282 419.494 397.293 420.735 397.775L426.631 400.059C426.983 400.179 427.365 400.174 427.714 400.046C428.063 399.917 428.357 399.673 428.547 399.353C428.737 399.034 428.811 398.658 428.758 398.291C428.704 397.923 428.526 397.585 428.252 397.333L419.851 390.036C419.354 389.615 418.776 389.298 418.152 389.107C417.528 388.915 416.869 388.851 416.216 388.92C415.563 388.989 414.929 389.188 414.35 389.507C413.772 389.825 413.262 390.256 412.849 390.773L402.311 404.26C402.17 404.435 401.989 404.573 401.784 404.664C401.578 404.754 401.354 404.793 401.13 404.779C400.906 404.765 400.689 404.696 400.497 404.581C400.305 404.465 400.143 404.304 400.026 404.113L393.098 393.205C392.311 391.952 391.138 390.988 389.757 390.457C388.375 389.925 386.858 389.855 385.434 390.258C380.521 391.731 376.541 394.507 373.495 398.585C373.304 398.864 373.209 399.198 373.225 399.536C373.242 399.873 373.368 400.196 373.585 400.455C373.803 400.714 374.099 400.895 374.428 400.97C374.758 401.045 375.103 401.01 375.411 400.87L382.339 397.48C385.729 395.809 387.964 396.768 389.045 400.354L393.688 415.462C394.179 417.182 393.762 417.452 392.435 416.273L388.898 413.251C388.625 412.999 388.26 412.856 387.88 412.852C387.5 412.848 387.134 412.984 386.858 413.232C386.582 413.479 386.418 413.819 386.4 414.179C386.381 414.54 386.511 414.894 386.76 415.167L389.929 419.442C390.666 420.474 391.133 421.653 391.33 422.979C392.312 430.791 388.505 435.459 379.907 436.982C378.939 437.132 377.949 436.996 377.059 436.59C376.168 436.184 375.416 435.526 374.895 434.697L356.102 403.892C354.972 402.025 353.351 400.821 351.238 400.28L317.263 391.953C315.627 391.551 314.141 390.687 312.983 389.464C311.824 388.24 311.043 386.709 310.732 385.053C310.421 383.398 310.594 381.687 311.229 380.127C311.865 378.567 312.936 377.222 314.315 376.255C322.963 370.113 332.568 367.239 343.131 367.632C344.364 367.686 345.532 368.192 346.405 369.051C347.278 369.91 347.793 371.061 347.848 372.275L348.143 377.582C348.339 380.775 349.518 381.193 351.68 378.834C353.793 376.476 354.653 373.528 354.26 369.991C353.228 361.073 344.679 358.567 336.941 358.936C336.516 358.951 336.097 358.839 335.736 358.614C335.375 358.39 335.09 358.063 334.916 357.675C334.742 357.288 334.687 356.857 334.759 356.439C334.831 356.02 335.026 355.632 335.319 355.325L342.394 348.029C344.654 345.67 345.342 342.894 344.458 339.701C343.131 334.935 339.987 331.569 335.024 329.604C332.47 328.572 331.88 329.285 333.256 331.741L337.457 339.111C339.324 342.403 338.464 344.663 334.877 345.891L308.346 355.177C306.601 355.803 304.704 355.841 302.94 355.287C301.175 354.734 299.637 353.617 298.558 352.106C297.478 350.595 296.915 348.77 296.952 346.905C296.99 345.04 297.626 343.237 298.765 341.764L318.369 316.486C319.892 314.472 321.931 313.587 324.486 313.833L331.119 314.422C339.913 315.159 340.159 314.029 331.855 311.032L327.949 309.632C325.542 308.797 324.265 307.102 324.117 304.547L321.98 274.183C321.489 267.059 324.805 263.841 331.929 264.529C339.299 265.266 343.058 269.319 343.205 276.689C343.212 277.224 343.355 277.749 343.619 278.214C343.884 278.679 344.262 279.069 344.718 279.349C345.174 279.628 345.693 279.788 346.228 279.812C346.762 279.837 347.294 279.726 347.774 279.49L351.238 277.795C351.367 277.744 351.508 277.735 351.642 277.769C351.776 277.803 351.896 277.878 351.986 277.984C352.075 278.089 352.129 278.22 352.14 278.358C352.152 278.496 352.12 278.634 352.049 278.753ZM281.446 292.903C277.466 304.399 269.728 324.519 277.54 336.09C279.456 338.988 281.692 339.234 284.247 336.827C305.029 317.321 312.792 293.197 307.535 264.455C306.946 261.36 305.226 260.402 302.376 261.581C290.29 266.592 286.384 278.679 281.446 292.903ZM525.165 336.827C535.704 319.581 518.974 281.627 509.099 267.035C500.894 254.899 496.03 256.127 494.507 270.72C491.657 297.644 499.985 319.95 519.49 337.637C521.75 339.652 523.642 339.381 525.165 336.827ZM428.695 375.444C429.167 375.439 429.626 375.287 430.009 375.01C430.392 374.733 430.679 374.344 430.832 373.897L447.709 321.94C447.857 321.497 447.865 321.019 447.733 320.571C447.602 320.123 447.336 319.726 446.972 319.434L402.9 285.238C402.5 284.927 402.007 284.759 401.5 284.759C400.993 284.759 400.5 284.927 400.1 285.238L355.955 319.581C355.59 319.874 355.325 320.27 355.193 320.718C355.061 321.166 355.07 321.644 355.218 322.087L372.316 373.97C372.468 374.418 372.755 374.807 373.138 375.084C373.521 375.361 373.98 375.513 374.453 375.518L428.695 375.444ZM300.902 414.652C313.21 429.907 342.689 456.88 363.472 454.227C364.166 454.126 364.828 453.867 365.404 453.47C365.981 453.073 366.457 452.549 366.793 451.94C367.13 451.331 367.318 450.655 367.343 449.964C367.368 449.273 367.228 448.588 366.936 447.963C355.291 422.709 335.467 407.822 307.461 403.302C306.056 403.068 304.613 403.269 303.325 403.877C302.036 404.485 300.964 405.472 300.251 406.705C299.539 407.939 299.219 409.36 299.335 410.78C299.452 412.2 299.998 413.551 300.902 414.652ZM496.497 403.302C469.032 407.085 449.06 421.432 436.58 446.342C435.968 447.523 435.73 448.863 435.897 450.184C436.064 451.504 436.629 452.742 437.517 453.734C438.405 454.725 439.573 455.424 440.867 455.735C442.161 456.047 443.519 455.958 444.761 455.48C464.02 448.405 480.504 438.456 494.212 425.633C501.189 419.098 503.277 412.416 500.476 405.587C499.739 403.818 498.413 403.056 496.497 403.302Z" fill="white"/>
<path d="M250.424 264.571L223.626 236.573C220.976 233.739 221.565 232.591 225.393 233.129C238.718 234.961 283.774 239.139 267.504 263.179C266.585 264.538 265.37 265.674 263.95 266.502C262.53 267.33 260.941 267.83 259.3 267.964C257.66 268.097 256.01 267.862 254.474 267.275C252.937 266.687 251.553 265.764 250.424 264.571Z" fill="white"/>
<path d="M538.267 240.21L575.898 231.262C579.201 230.486 579.866 231.432 577.894 234.099C570.501 244.187 562.024 253.087 552.462 260.798C542.407 268.945 532.205 264.799 530.135 252.214C529.707 249.584 530.306 246.891 531.812 244.668C533.318 242.445 535.622 240.854 538.267 240.21Z" fill="white"/>
<path d="M600.694 301.266C590.389 308.449 547.4 337.555 550.124 300.817C550.197 299.702 550.491 298.612 550.988 297.613C551.486 296.614 552.177 295.726 553.02 295.001C553.864 294.276 554.844 293.729 555.901 293.391C556.959 293.053 558.073 292.933 559.178 293.036L599.664 297.076C603.737 297.525 604.08 298.922 600.694 301.266Z" fill="white"/>
<path d="M245.707 319.216C233.469 323.197 212.366 311.108 201.374 303.294C197.857 300.788 198.248 299.313 202.547 298.871L240.651 295.038C243.649 294.802 246.631 295.672 249.039 297.486C251.446 299.299 253.116 301.932 253.735 304.893C254.354 307.854 253.881 310.941 252.403 313.576C250.926 316.212 248.546 318.217 245.707 319.216Z" fill="white"/>
<path d="M552.976 354.861C566.413 345.747 588.661 360.621 600.483 368.641C602.686 370.196 602.49 371.314 599.895 371.994C586.238 375.543 572.409 376.734 558.409 375.567C556.063 375.354 553.84 374.427 552.044 372.913C550.247 371.399 548.964 369.372 548.37 367.108C547.776 364.844 547.899 362.454 548.724 360.262C549.548 358.07 551.033 356.184 552.976 354.861Z" fill="white"/>
<path d="M200.337 369.58L236.829 351.681C237.745 351.245 238.743 351.013 239.753 351.001C240.763 350.988 241.762 351.195 242.68 351.608C249.261 354.689 252.357 360.044 251.967 367.673C251.906 369.143 251.544 370.585 250.902 371.91C250.261 373.235 249.354 374.414 248.237 375.376C247.12 376.339 245.818 377.062 244.409 377.504C243.001 377.945 241.516 378.094 240.047 377.942L201.068 373.761C195.9 373.223 195.656 371.83 200.337 369.58Z" fill="white"/>
<path d="M610.525 420.125L630.445 376.507C631.822 373.554 633.642 373.21 635.904 375.473C637.134 376.703 637.527 378.007 637.085 379.385C628.772 405.807 618.812 431.613 607.205 456.805C607.157 456.927 607.14 457.058 607.154 457.188C607.168 457.318 607.213 457.442 607.285 457.551C607.358 457.659 607.455 457.749 607.57 457.812C607.684 457.875 607.812 457.909 607.943 457.912C608.73 457.912 609.516 457.912 610.303 457.912C610.844 457.912 611.287 457.691 611.631 457.248C626.092 437.173 639.495 416.434 651.84 395.031C652.128 394.526 652.57 394.126 653.101 393.889C653.631 393.652 654.224 393.591 654.792 393.715C655.36 393.838 655.874 394.14 656.259 394.576C656.643 395.012 656.879 395.559 656.931 396.138C658.775 418.501 623.067 461.528 615.542 471.787C613.82 474.149 614.41 475.059 617.312 474.518C618.739 474.272 619.895 473.657 620.78 472.673C629.781 462.882 639.323 455.009 649.406 449.056C650.343 448.414 651.488 448.151 652.611 448.319C653.734 448.486 654.752 449.072 655.461 449.959C656.17 450.846 656.518 451.968 656.435 453.101C656.352 454.234 655.844 455.293 655.013 456.067L615.837 497.766C615.511 498.065 615.309 498.475 615.271 498.915C615.232 499.355 615.359 499.794 615.627 500.145C615.895 500.497 616.284 500.735 616.719 500.814C617.154 500.892 617.602 500.806 617.976 500.571L636.052 490.533C638.314 489.303 639.815 489.943 640.552 492.452C641.044 494.224 640.429 496.069 638.708 497.988C631.035 506.352 622.305 513.363 612.517 519.022C612.239 519.197 612.004 519.433 611.829 519.71C611.654 519.987 611.545 520.299 611.509 520.62C611.474 520.941 611.513 521.264 611.623 521.562C611.734 521.861 611.914 522.128 612.148 522.343L617.165 526.771C617.444 527.032 617.646 527.366 617.747 527.734C617.849 528.103 617.845 528.493 617.738 528.86C617.631 529.228 617.424 529.558 617.141 529.814C616.857 530.071 616.508 530.244 616.132 530.314C605.508 531.888 600.368 537.448 600.712 546.993C600.723 547.335 600.663 547.676 600.537 547.994C600.41 548.312 600.221 548.601 599.979 548.843C599.737 549.084 599.448 549.274 599.13 549.401C598.812 549.527 598.472 549.587 598.13 549.576C591.933 549.38 588.367 552.356 587.432 558.507C587.316 559.207 587.061 559.876 586.683 560.474C586.305 561.073 585.811 561.588 585.232 561.988C584.652 562.388 583.999 562.666 583.312 562.803C582.625 562.94 581.918 562.935 581.235 562.787L575.406 561.606C567.98 560.13 567.119 561.877 572.824 566.846C573.464 567.437 574.103 567.978 574.743 568.47C576.366 569.848 576.218 570.955 574.3 571.791C545.133 584.978 514.909 594.351 483.627 599.911C481.364 600.353 479.397 601.387 477.725 603.01C440.319 640.798 390.888 630.613 343.228 628.251C340.965 628.153 339.071 628.915 337.547 630.539L335.924 632.31C335.591 632.651 335.161 632.879 334.693 632.964C334.225 633.048 333.742 632.984 333.311 632.781C332.881 632.578 332.525 632.246 332.292 631.831C332.06 631.416 331.962 630.938 332.013 630.465C333.784 619.05 339.662 611.203 349.646 606.922C368.681 598.804 385.306 590.414 399.52 581.755C420.325 568.987 439.803 568.692 460.682 560.573C539.723 529.772 587.162 472.87 602.999 389.865C603.048 389.395 603.282 388.964 603.648 388.667C604.015 388.369 604.485 388.229 604.955 388.278C605.424 388.327 605.855 388.561 606.153 388.928C606.45 389.294 606.59 389.764 606.541 390.234L606.615 419.313C606.639 419.768 606.814 420.202 607.111 420.548C607.408 420.893 607.811 421.131 608.257 421.223C608.704 421.316 609.168 421.259 609.578 421.06C609.988 420.861 610.321 420.532 610.525 420.125Z" fill="white"/>
<path d="M191.694 422.055L191.03 395.023C190.961 394.457 191.121 393.886 191.474 393.437C191.827 392.989 192.344 392.698 192.911 392.63C193.479 392.561 194.05 392.721 194.5 393.073C194.949 393.425 195.24 393.941 195.309 394.508C217.049 497.183 280.177 555.493 384.694 569.439C387.154 569.783 387.646 570.961 386.17 572.974C355.479 613.264 269.602 592.567 230.796 572.09C228.386 570.814 227.131 568.85 227.033 566.198C226.984 565.314 226.984 564.406 227.033 563.473C227.033 562.736 226.664 562.319 225.926 562.221L211.909 559.864C209.745 559.471 208.343 558.219 207.703 556.107C204.359 544.617 197.67 536.024 187.636 530.328C186.908 529.937 186.357 529.292 186.089 528.519C185.821 527.746 185.855 526.898 186.185 526.14C186.515 525.381 187.117 524.764 187.875 524.409C188.633 524.054 189.494 523.984 190.292 524.214L198.334 526.645C198.53 526.702 198.736 526.713 198.937 526.677C199.138 526.641 199.328 526.559 199.492 526.438C199.656 526.317 199.79 526.159 199.884 525.978C199.977 525.797 200.027 525.597 200.031 525.393C199.982 524.656 199.982 523.895 200.031 523.11C200.031 522.177 199.588 521.538 198.703 521.195C184.046 515.842 171.7 507.249 161.667 495.415C161.083 494.766 160.752 493.934 160.733 493.068C160.715 492.201 161.009 491.354 161.564 490.676C162.119 489.999 162.9 489.534 163.769 489.363C164.638 489.192 165.54 489.327 166.315 489.744C170.889 492.199 173.692 493.549 174.725 493.795C179.594 494.777 179.988 493.157 175.906 488.934L144.034 456.452C143.366 455.669 143.009 454.669 143.031 453.64C143.053 452.612 143.452 451.628 144.152 450.874C144.853 450.12 145.806 449.649 146.832 449.55C147.857 449.452 148.883 449.732 149.715 450.338L180.849 476.486C181.214 476.777 181.67 476.931 182.137 476.921C182.604 476.91 183.053 476.736 183.404 476.429C183.756 476.122 183.988 475.701 184.06 475.24C184.133 474.779 184.041 474.308 183.8 473.908C168.307 447.76 150.01 429.641 143.075 398.632C142.918 397.952 143.009 397.239 143.33 396.619C143.652 395.999 144.183 395.513 144.829 395.248C145.476 394.983 146.196 394.955 146.861 395.17C147.526 395.385 148.093 395.829 148.461 396.423L182.324 449.16C182.488 449.389 182.707 449.575 182.96 449.698C183.214 449.821 183.492 449.878 183.768 449.864C184.043 449.849 184.307 449.762 184.533 449.613C184.758 449.464 184.938 449.257 185.054 449.013C185.349 448.374 185.644 447.76 185.939 447.171C186.284 446.484 186.284 445.796 185.939 445.109C176.84 424.633 169.29 403.567 163.29 381.913C163.047 381.17 163.101 380.368 163.442 379.674C163.783 378.98 164.384 378.446 165.122 378.181C165.86 377.917 166.678 377.943 167.407 378.253C168.137 378.564 168.723 379.135 169.044 379.85L189.038 422.718C189.18 423.003 189.416 423.231 189.706 423.365C189.996 423.498 190.323 423.529 190.633 423.451C190.942 423.374 191.216 423.194 191.409 422.94C191.602 422.686 191.703 422.373 191.694 422.055Z" fill="white"/>
<path d="M576.617 437.957C562.306 436.7 524.29 433.67 533.39 410.238C534.07 408.464 535.183 406.891 536.626 405.665C538.069 404.439 539.796 403.599 541.647 403.223C543.498 402.847 545.413 402.948 547.216 403.515C549.018 404.082 550.649 405.098 551.958 406.468L578.379 434.261C581.021 437.021 580.434 438.253 576.617 437.957Z" fill="white"/>
<path d="M226.664 440.652C222.683 441.637 221.946 440.529 224.453 437.328C233.225 425.879 251.064 400.247 267.429 408.668C269.617 409.792 271.41 411.559 272.57 413.731C273.73 415.904 274.201 418.379 273.921 420.827C273.641 423.275 272.622 425.579 271.001 427.432C269.38 429.285 267.234 430.598 264.849 431.197L226.664 440.652Z" fill="white"/>
<path d="M534.063 489.663C536.031 494.289 534.899 495.214 530.668 492.439L497.528 470.455C496.539 469.796 495.713 468.921 495.112 467.897C494.511 466.872 494.151 465.724 494.059 464.539C493.567 457.966 496.15 453.024 501.809 449.713C503.313 448.824 504.993 448.266 506.734 448.074C508.475 447.883 510.238 448.063 511.903 448.603C513.568 449.143 515.096 450.03 516.385 451.204C517.674 452.378 518.694 453.812 519.375 455.41L534.063 489.663Z" fill="white"/>
<path d="M269.514 492.324L284.884 455.92C285.525 454.408 286.477 453.054 287.675 451.951C288.873 450.848 290.288 450.021 291.823 449.527C293.358 449.033 294.978 448.884 296.571 449.09C298.165 449.296 299.694 449.851 301.054 450.719C326.841 466.99 282.553 488.981 271.626 494.405C269.101 495.643 268.397 494.95 269.514 492.324Z" fill="white"/>
<path d="M332.94 485.412C333.092 483.331 334.041 481.393 335.583 480.01C337.126 478.626 339.14 477.909 341.196 478.009L348.862 478.305C350.98 478.386 353.036 479.048 354.804 480.221C356.573 481.394 357.987 483.032 358.892 484.957C359.797 486.881 360.158 489.018 359.936 491.135C359.715 493.252 358.919 495.267 357.635 496.96L334.266 528.2C331.072 532.395 329.671 531.876 330.065 526.645L332.94 485.412Z" fill="white"/>
<path d="M470.741 484.613L473.919 526.517C474.363 531.929 472.983 532.441 469.781 528.053L444.212 493.315C443.709 492.624 443.351 491.839 443.16 491.008C442.969 490.177 442.949 489.316 443.1 488.477C443.252 487.638 443.573 486.838 444.043 486.124C444.513 485.41 445.123 484.796 445.838 484.32L456.036 477.592C457.406 476.681 458.993 476.14 460.64 476.024C462.287 475.908 463.936 476.22 465.423 476.93C466.91 477.64 468.183 478.722 469.116 480.07C470.049 481.418 470.61 482.984 470.741 484.613Z" fill="white"/>
<path d="M413.99 499.191C414.281 511.973 408.313 527.326 404.528 538.124C402.636 543.364 400.938 543.291 399.434 537.904L389.39 502.203C388.695 499.696 388.935 497.021 390.063 494.69C391.191 492.358 393.128 490.535 395.503 489.568C404.237 485.969 413.844 488.319 413.99 499.191Z" fill="white"/>
<path d="M521.108 630.976L518.086 638.246C516.858 641.164 514.843 641.955 512.042 640.62C504.623 637.059 498.358 637.9 493.248 643.142C491.627 644.823 489.71 645.293 487.499 644.551C484.305 643.463 481.21 643.958 478.213 646.035C476.591 647.172 474.822 647.988 472.906 648.483C452.465 654.071 437.332 656.543 427.505 655.901C409.079 654.664 390.702 654.664 372.374 655.901C371.746 655.958 371.114 655.82 370.566 655.506C370.017 655.192 369.576 654.716 369.304 654.143C369.031 653.57 368.939 652.927 369.04 652.299C369.141 651.672 369.43 651.091 369.868 650.634L378.492 641.287C379.145 640.584 379.967 640.059 380.882 639.761C381.797 639.463 382.775 639.401 383.725 639.581C419.545 646.059 451.237 638.814 478.802 617.846C501.503 600.489 523.688 602.566 548.305 613.173C551.449 614.558 551.842 616.511 549.484 619.033C543.44 625.611 535.75 628.504 526.415 627.712C525.301 627.625 524.189 627.894 523.236 628.48C522.284 629.066 521.539 629.939 521.108 630.976Z" fill="white"/>
<path d="M189.077 673.125C193.267 670.179 195.854 670.296 196.837 673.476C197.134 674.376 197.022 675.358 196.527 676.212C193.629 681.309 190.862 681.262 188.223 676.071C187.982 675.573 187.935 675.014 188.089 674.481C188.244 673.948 188.591 673.471 189.077 673.125Z" fill="white"/>
<path d="M609.29 680.594C609.622 680.873 609.856 681.257 609.951 681.684C610.047 682.11 610 682.554 609.818 682.943C609.636 683.331 609.329 683.642 608.948 683.824C608.566 684.006 608.133 684.048 607.718 683.945C603.177 682.952 600.283 680.196 599.036 675.679C598.974 675.411 598.993 675.127 599.091 674.868C599.189 674.608 599.361 674.385 599.583 674.23C599.805 674.074 600.066 673.994 600.33 674C600.594 674.006 600.848 674.098 601.057 674.264L609.29 680.594Z" fill="white"/>
</svg>
