<svg width="62" height="62" viewBox="0 0 62 62" fill="none" xmlns="http://www.w3.org/2000/svg">
<mask id="path-1-inside-1_26_3694" fill="white">
<path fill-rule="evenodd" clip-rule="evenodd" d="M4.41791 28.7651L5.55987 28.0096C7.27282 26.8763 8.40614 26.1236 9.20782 25.4517C9.96913 24.8144 10.2575 24.3876 10.4075 23.9897C10.5574 23.5917 10.6266 23.0813 10.4796 22.098C10.3238 21.0598 9.9749 19.7477 9.44429 17.7608L8.9627 15.9585C6.36269 19.7599 4.79646 24.1723 4.41791 28.7622V28.7651ZM12.3482 11.9242C12.3749 11.9941 12.398 12.0653 12.4174 12.1376L13.6546 16.7573C14.1448 18.5971 14.5629 20.1514 14.7562 21.4607C14.8571 22.1326 14.909 22.7872 14.8773 23.4418L22.0867 26.4783C22.2489 26.3128 22.4223 26.1586 22.6057 26.0169L27.9061 21.9682C28.1887 21.7519 28.4915 21.5674 28.8058 21.4203V13.6054C28.1967 13.3887 27.6096 13.1145 27.0525 12.7864C25.9047 12.126 24.6099 11.1715 23.0816 10.0411L19.1077 7.10837C16.6174 8.35167 14.3367 9.97655 12.3482 11.9242ZM23.9034 5.27433L25.5529 6.49126C27.2053 7.71107 28.3011 8.51563 29.2095 9.03758C30.0689 9.5307 30.5649 9.6547 30.9917 9.66046C31.4156 9.66335 31.9145 9.55088 32.7854 9.07507C33.7024 8.5733 34.8155 7.79181 36.4939 6.60949L38.2876 5.34642C35.9072 4.6676 33.4439 4.32401 30.9686 4.32558C28.5816 4.32291 26.2051 4.64203 23.9034 5.27433ZM43.0688 7.22949C42.984 7.31377 42.8924 7.39093 42.7949 7.46019L38.8903 10.2113C37.3331 11.3071 36.0209 12.2356 34.8617 12.87C34.2936 13.1815 33.7197 13.4468 33.1314 13.64V21.4174C33.4429 21.5673 33.7457 21.7519 34.0283 21.9682L39.3257 26.0198C39.5161 26.164 39.692 26.3197 39.8563 26.487L47.2387 23.4302C47.2099 22.7814 47.2618 22.1297 47.3627 21.4607C47.556 20.1514 47.9741 18.5971 48.4643 16.7602L49.7015 12.1405C49.7085 12.1124 49.7162 12.0845 49.7245 12.0568C47.7683 10.114 45.5232 8.4856 43.0688 7.22949ZM53.1043 16.1546L52.6746 17.7608C52.144 19.7477 51.7951 21.0627 51.6393 22.098C51.4952 23.0784 51.5615 23.5917 51.7114 23.9897C51.8614 24.3876 52.1498 24.8144 52.9111 25.4517C53.7128 26.1236 54.8432 26.8763 56.559 28.0096L57.5049 28.6353C57.1155 24.1703 55.6016 19.8765 53.1043 16.1546ZM61.9142 32.1593C61.9257 31.7757 61.9343 31.3893 61.9343 31C61.9343 13.8822 48.0721 0 30.9657 0C13.8651 0 0 13.8822 0 31C0 48.1178 13.8622 62 30.9686 62C47.1897 62 60.4925 49.5135 61.8248 33.6242C62.0237 33.1609 62.0572 32.6427 61.9142 32.1593ZM57.4645 33.7943L54.0704 31.5479C52.4843 30.5011 51.1405 29.6158 50.1283 28.7622C49.6496 28.3685 49.2075 27.9323 48.8075 27.4588L41.2723 30.579C41.2375 30.8958 41.1728 31.2087 41.079 31.5133L38.9999 38.2526C38.9249 38.489 38.8384 38.714 38.7346 38.9331L42.9679 43.8297C43.6167 43.6134 44.2944 43.4836 44.9981 43.4029C46.3131 43.2529 47.9222 43.2529 49.8226 43.2529H54.6327C56.1604 40.3045 57.1192 37.0947 57.4588 33.7914L57.4645 33.7943ZM51.8383 47.5814H49.9466C47.8905 47.5814 46.5322 47.5843 45.4941 47.7025C44.5107 47.8179 44.0349 48.0111 43.6917 48.262C43.3457 48.51 43.0083 48.8964 42.5901 49.799C42.1489 50.7506 41.7164 52.0396 41.0675 53.989L40.4158 55.95C44.9058 54.2383 48.8538 51.3472 51.8383 47.5814ZM35.4009 57.3053L37.0014 52.5097C37.6012 50.7016 38.1117 49.1761 38.6682 47.9765C38.9191 47.4343 39.196 46.9268 39.5189 46.4539L35.3836 41.6669C34.9914 41.7654 34.5884 41.8148 34.184 41.814H27.7532C27.3697 41.814 26.9948 41.7707 26.6343 41.69L22.9547 46.376C23.3007 46.8691 23.5949 47.4055 23.8573 47.9765C24.4167 49.1761 24.9243 50.7016 25.527 52.5097L27.1563 57.4033C29.8941 57.7964 32.6762 57.7633 35.4038 57.3053H35.4009ZM22.1934 56.1951L21.4609 53.989C20.8092 52.0396 20.3766 50.7477 19.9354 49.799C19.5172 48.8993 19.1798 48.51 18.8367 48.262C18.4906 48.0111 18.0177 47.815 17.0343 47.7025C15.9962 47.5872 14.635 47.5814 12.5818 47.5814H10.0931C13.2298 51.5389 17.4245 54.5257 22.1905 56.1951H22.1934ZM7.34203 43.3337C7.53177 43.2814 7.72774 43.2552 7.92455 43.2558H12.7C14.6033 43.2558 16.2096 43.2558 17.5246 43.4058C18.2022 43.4836 18.8511 43.6047 19.474 43.8066L23.2344 39.0139C23.1132 38.7696 23.0119 38.516 22.9316 38.2554L20.8524 31.5162C20.757 31.2079 20.6913 30.8912 20.6563 30.5703L13.3027 27.4703C12.9041 27.9413 12.464 28.3756 11.9878 28.768C10.9727 29.6158 9.63173 30.5011 8.04567 31.5508L4.48135 33.9068C4.84759 37.2807 5.83671 40.4615 7.33915 43.3366L7.34203 43.3337ZM30.9657 25.2556C30.809 25.2567 30.6569 25.3094 30.5332 25.4056L25.2328 29.4514C25.115 29.5409 25.0277 29.6645 24.9828 29.8054C24.9379 29.9463 24.9376 30.0976 24.9819 30.2387L27.064 36.978C27.1085 37.1246 27.1989 37.2531 27.322 37.3445C27.445 37.4359 27.5942 37.4853 27.7475 37.4855H34.1782C34.3322 37.4868 34.4825 37.4381 34.6063 37.3465C34.7301 37.2549 34.8208 37.1256 34.8646 36.978L36.9466 30.2387C36.9906 30.0976 36.99 29.9464 36.9452 29.8056C36.9003 29.6647 36.8132 29.5411 36.6957 29.4514L31.3983 25.3998C31.2739 25.3055 31.1219 25.2548 30.9657 25.2556Z"/>
</mask>
<path fill-rule="evenodd" clip-rule="evenodd" d="M4.41791 28.7651L5.55987 28.0096C7.27282 26.8763 8.40614 26.1236 9.20782 25.4517C9.96913 24.8144 10.2575 24.3876 10.4075 23.9897C10.5574 23.5917 10.6266 23.0813 10.4796 22.098C10.3238 21.0598 9.9749 19.7477 9.44429 17.7608L8.9627 15.9585C6.36269 19.7599 4.79646 24.1723 4.41791 28.7622V28.7651ZM12.3482 11.9242C12.3749 11.9941 12.398 12.0653 12.4174 12.1376L13.6546 16.7573C14.1448 18.5971 14.5629 20.1514 14.7562 21.4607C14.8571 22.1326 14.909 22.7872 14.8773 23.4418L22.0867 26.4783C22.2489 26.3128 22.4223 26.1586 22.6057 26.0169L27.9061 21.9682C28.1887 21.7519 28.4915 21.5674 28.8058 21.4203V13.6054C28.1967 13.3887 27.6096 13.1145 27.0525 12.7864C25.9047 12.126 24.6099 11.1715 23.0816 10.0411L19.1077 7.10837C16.6174 8.35167 14.3367 9.97655 12.3482 11.9242ZM23.9034 5.27433L25.5529 6.49126C27.2053 7.71107 28.3011 8.51563 29.2095 9.03758C30.0689 9.5307 30.5649 9.6547 30.9917 9.66046C31.4156 9.66335 31.9145 9.55088 32.7854 9.07507C33.7024 8.5733 34.8155 7.79181 36.4939 6.60949L38.2876 5.34642C35.9072 4.6676 33.4439 4.32401 30.9686 4.32558C28.5816 4.32291 26.2051 4.64203 23.9034 5.27433ZM43.0688 7.22949C42.984 7.31377 42.8924 7.39093 42.7949 7.46019L38.8903 10.2113C37.3331 11.3071 36.0209 12.2356 34.8617 12.87C34.2936 13.1815 33.7197 13.4468 33.1314 13.64V21.4174C33.4429 21.5673 33.7457 21.7519 34.0283 21.9682L39.3257 26.0198C39.5161 26.164 39.692 26.3197 39.8563 26.487L47.2387 23.4302C47.2099 22.7814 47.2618 22.1297 47.3627 21.4607C47.556 20.1514 47.9741 18.5971 48.4643 16.7602L49.7015 12.1405C49.7085 12.1124 49.7162 12.0845 49.7245 12.0568C47.7683 10.114 45.5232 8.4856 43.0688 7.22949ZM53.1043 16.1546L52.6746 17.7608C52.144 19.7477 51.7951 21.0627 51.6393 22.098C51.4952 23.0784 51.5615 23.5917 51.7114 23.9897C51.8614 24.3876 52.1498 24.8144 52.9111 25.4517C53.7128 26.1236 54.8432 26.8763 56.559 28.0096L57.5049 28.6353C57.1155 24.1703 55.6016 19.8765 53.1043 16.1546ZM61.9142 32.1593C61.9257 31.7757 61.9343 31.3893 61.9343 31C61.9343 13.8822 48.0721 0 30.9657 0C13.8651 0 0 13.8822 0 31C0 48.1178 13.8622 62 30.9686 62C47.1897 62 60.4925 49.5135 61.8248 33.6242C62.0237 33.1609 62.0572 32.6427 61.9142 32.1593ZM57.4645 33.7943L54.0704 31.5479C52.4843 30.5011 51.1405 29.6158 50.1283 28.7622C49.6496 28.3685 49.2075 27.9323 48.8075 27.4588L41.2723 30.579C41.2375 30.8958 41.1728 31.2087 41.079 31.5133L38.9999 38.2526C38.9249 38.489 38.8384 38.714 38.7346 38.9331L42.9679 43.8297C43.6167 43.6134 44.2944 43.4836 44.9981 43.4029C46.3131 43.2529 47.9222 43.2529 49.8226 43.2529H54.6327C56.1604 40.3045 57.1192 37.0947 57.4588 33.7914L57.4645 33.7943ZM51.8383 47.5814H49.9466C47.8905 47.5814 46.5322 47.5843 45.4941 47.7025C44.5107 47.8179 44.0349 48.0111 43.6917 48.262C43.3457 48.51 43.0083 48.8964 42.5901 49.799C42.1489 50.7506 41.7164 52.0396 41.0675 53.989L40.4158 55.95C44.9058 54.2383 48.8538 51.3472 51.8383 47.5814ZM35.4009 57.3053L37.0014 52.5097C37.6012 50.7016 38.1117 49.1761 38.6682 47.9765C38.9191 47.4343 39.196 46.9268 39.5189 46.4539L35.3836 41.6669C34.9914 41.7654 34.5884 41.8148 34.184 41.814H27.7532C27.3697 41.814 26.9948 41.7707 26.6343 41.69L22.9547 46.376C23.3007 46.8691 23.5949 47.4055 23.8573 47.9765C24.4167 49.1761 24.9243 50.7016 25.527 52.5097L27.1563 57.4033C29.8941 57.7964 32.6762 57.7633 35.4038 57.3053H35.4009ZM22.1934 56.1951L21.4609 53.989C20.8092 52.0396 20.3766 50.7477 19.9354 49.799C19.5172 48.8993 19.1798 48.51 18.8367 48.262C18.4906 48.0111 18.0177 47.815 17.0343 47.7025C15.9962 47.5872 14.635 47.5814 12.5818 47.5814H10.0931C13.2298 51.5389 17.4245 54.5257 22.1905 56.1951H22.1934ZM7.34203 43.3337C7.53177 43.2814 7.72774 43.2552 7.92455 43.2558H12.7C14.6033 43.2558 16.2096 43.2558 17.5246 43.4058C18.2022 43.4836 18.8511 43.6047 19.474 43.8066L23.2344 39.0139C23.1132 38.7696 23.0119 38.516 22.9316 38.2554L20.8524 31.5162C20.757 31.2079 20.6913 30.8912 20.6563 30.5703L13.3027 27.4703C12.9041 27.9413 12.464 28.3756 11.9878 28.768C10.9727 29.6158 9.63173 30.5011 8.04567 31.5508L4.48135 33.9068C4.84759 37.2807 5.83671 40.4615 7.33915 43.3366L7.34203 43.3337ZM30.9657 25.2556C30.809 25.2567 30.6569 25.3094 30.5332 25.4056L25.2328 29.4514C25.115 29.5409 25.0277 29.6645 24.9828 29.8054C24.9379 29.9463 24.9376 30.0976 24.9819 30.2387L27.064 36.978C27.1085 37.1246 27.1989 37.2531 27.322 37.3445C27.445 37.4359 27.5942 37.4853 27.7475 37.4855H34.1782C34.3322 37.4868 34.4825 37.4381 34.6063 37.3465C34.7301 37.2549 34.8208 37.1256 34.8646 36.978L36.9466 30.2387C36.9906 30.0976 36.99 29.9464 36.9452 29.8056C36.9003 29.6647 36.8132 29.5411 36.6957 29.4514L31.3983 25.3998C31.2739 25.3055 31.1219 25.2548 30.9657 25.2556Z" fill="white" stroke="#133C8B" stroke-width="2" mask="url(#path-1-inside-1_26_3694)"/>
</svg>
