<svg width="24" height="24" viewBox="0 0 24 24" fill="none" xmlns="http://www.w3.org/2000/svg">
<rect x="0.375" y="0.375" width="23.25" height="23.25" rx="3.375" fill="white" stroke="#133C8B" stroke-width="0.75"/>
<path d="M14.7706 16.7799C14.9175 16.6389 15 16.4477 15 16.2484C15 16.049 14.9175 15.8578 14.7706 15.7168L10.8915 11.9955L14.7706 8.27408C14.9133 8.13229 14.9923 7.94238 14.9905 7.74526C14.9887 7.54814 14.9063 7.35958 14.761 7.22019C14.6157 7.08081 14.4192 7.00174 14.2137 7.00003C14.0082 6.99832 13.8103 7.07409 13.6625 7.21104L9.22944 11.4639C9.08253 11.6049 9 11.7961 9 11.9955C9 12.1948 9.08253 12.386 9.22944 12.527L13.6625 16.7799C13.8094 16.9208 14.0087 17 14.2165 17C14.4243 17 14.6236 16.9208 14.7706 16.7799Z" fill="#133C8B"/>
</svg>
