<svg width="25" height="20" viewBox="0 0 25 20" fill="none" xmlns="http://www.w3.org/2000/svg">
<path d="M2.5 0C1.1125 0 0 1.1125 0 2.5V17.5C0 18.163 0.263392 18.7989 0.732233 19.2678C1.20107 19.7366 1.83696 20 2.5 20H22.5C23.163 20 23.7989 19.7366 24.2678 19.2678C24.7366 18.7989 25 18.163 25 17.5V2.5C25 1.83696 24.7366 1.20107 24.2678 0.732233C23.7989 0.263392 23.163 0 22.5 0H2.5ZM2.5 2.5H11.25V5.1625C9.05 5.7375 7.5 7.725 7.5 10C7.50296 11.1073 7.87249 12.1824 8.5509 13.0576C9.2293 13.9327 10.1784 14.5586 11.25 14.8375V17.5H2.5V15H6.25V5H2.5V2.5ZM13.75 2.5H22.5V5H18.75V15H22.5V17.5H13.75V14.8375C15.95 14.2625 17.5 12.275 17.5 10C17.497 8.8927 17.1275 7.81755 16.4491 6.94241C15.7707 6.06727 14.8216 5.44139 13.75 5.1625V2.5ZM2.5 7.5H3.75V12.5H2.5V7.5ZM21.25 7.5H22.5V12.5H21.25V7.5ZM13.75 7.8375C14.525 8.2875 15 9.1125 15 10C15 10.8875 14.525 11.7125 13.75 12.1625V7.8375ZM11.25 7.8375V12.1625C10.475 11.7125 10 10.8875 10 10C10 9.1125 10.475 8.2875 11.25 7.8375Z" fill="#FFCC00"/>
</svg>
