<svg width="53" height="53" viewBox="0 0 53 53" fill="none" xmlns="http://www.w3.org/2000/svg">
<path d="M2 51V45.5556C2 42.6676 3.14722 39.898 5.18928 37.856C7.23134 35.8139 10.001 34.6667 12.8889 34.6667H23.7778C26.6657 34.6667 29.4353 35.8139 31.4774 37.856C33.5194 39.898 34.6667 42.6676 34.6667 45.5556V51M37.3889 2.35389C39.7311 2.9536 41.8072 4.3158 43.2897 6.22573C44.7722 8.13567 45.5769 10.4847 45.5769 12.9025C45.5769 15.3203 44.7722 17.6693 43.2897 19.5793C41.8072 21.4892 39.7311 22.8514 37.3889 23.4511M51 51V45.5556C50.9862 43.1523 50.1777 40.8211 48.7005 38.9253C47.2232 37.0296 45.1604 35.6758 42.8333 35.075M7.44444 12.8889C7.44444 15.7768 8.59166 18.5464 10.6337 20.5885C12.6758 22.6306 15.4454 23.7778 18.3333 23.7778C21.2212 23.7778 23.9909 22.6306 26.0329 20.5885C28.075 18.5464 29.2222 15.7768 29.2222 12.8889C29.2222 10.001 28.075 7.23134 26.0329 5.18928C23.9909 3.14722 21.2212 2 18.3333 2C15.4454 2 12.6758 3.14722 10.6337 5.18928C8.59166 7.23134 7.44444 10.001 7.44444 12.8889Z" stroke="#133C8B" stroke-width="3" stroke-linecap="round" stroke-linejoin="round"/>
</svg>
