<svg width="55" height="52" viewBox="0 0 55 52" fill="none" xmlns="http://www.w3.org/2000/svg">
<path d="M19 11.0835V49.4915M36 1V39.7932M2 16.8221C2 12.7377 2 10.6983 3.1135 9.5068C3.50758 9.08293 3.987 8.74331 4.52167 8.50926C6.029 7.85532 8.0095 8.50095 11.9705 9.79221C14.9937 10.7787 16.5038 11.2719 18.0338 11.2192C18.5951 11.2012 19.1532 11.1288 19.6998 11.0031C21.1873 10.6567 22.5133 9.79221 25.1653 8.06591L29.081 5.5111C32.481 3.29434 34.1782 2.18596 36.1275 1.93381C38.0768 1.67611 40.0148 2.30789 43.888 3.57144L47.1888 4.64656C49.9938 5.56097 51.3963 6.01818 52.1982 7.10716C53 8.19614 53 9.64258 53 12.5327V35.0577C53 39.1393 53 41.1815 51.8865 42.373C51.4919 42.7948 51.0125 43.1325 50.4783 43.365C48.971 44.0217 46.9905 43.3761 43.0295 42.0848C40.0063 41.0983 38.4962 40.6051 36.9662 40.6578C36.4049 40.6758 35.8468 40.7482 35.3002 40.8739C33.8127 41.2203 32.4867 42.0848 29.8347 43.8111L25.919 46.3659C22.519 48.5827 20.8218 49.691 18.8725 49.9432C16.9232 50.2009 14.9852 49.5691 11.112 48.3056L7.81117 47.2304C5.00617 46.316 3.60367 45.8588 2.80183 44.7698C2 43.6809 2 42.2317 2 39.3443V16.8193V16.8221Z" stroke="#133C8B" stroke-width="3"/>
</svg>
