<svg width="27" height="21" viewBox="0 0 27 21" fill="none" xmlns="http://www.w3.org/2000/svg">
<path fill-rule="evenodd" clip-rule="evenodd" d="M1.54251 1.26126C2.06996 0.733816 2.78533 0.4375 3.53125 0.4375H23.4688C24.2147 0.4375 24.93 0.733816 25.4575 1.26126C25.9849 1.78871 26.2812 2.50408 26.2812 3.25V15.0303V15.0322V17.75C26.2812 18.4959 25.9849 19.2113 25.4575 19.7387C24.93 20.2662 24.2147 20.5625 23.4688 20.5625H3.53125C2.78533 20.5625 2.06996 20.2662 1.54251 19.7387C1.01507 19.2113 0.71875 18.4959 0.71875 17.75V3.25C0.71875 2.50408 1.01507 1.78871 1.54251 1.26126ZM2.71875 15.4455V17.75C2.71875 17.9655 2.80435 18.1721 2.95673 18.3245C3.1091 18.4769 3.31576 18.5625 3.53125 18.5625H23.4688C23.6842 18.5625 23.8909 18.4769 24.0433 18.3245C24.1956 18.1721 24.2812 17.9655 24.2812 17.75V15.4455L21.0591 12.2233C20.8995 12.0637 20.71 11.9371 20.5015 11.8507C20.293 11.7644 20.0695 11.7199 19.8438 11.7199C19.618 11.7199 19.3945 11.7644 19.186 11.8507C18.9775 11.9371 18.788 12.0637 18.6284 12.2233L17.633 13.2188L18.7384 14.3241C19.1289 14.7147 19.1289 15.3478 18.7384 15.7384C18.3478 16.1289 17.7147 16.1289 17.3241 15.7384L11.0904 9.50457C10.9308 9.34496 10.7413 9.21835 10.5327 9.13198C10.3242 9.0456 10.1007 9.00114 9.875 9.00114C9.64929 9.00114 9.42579 9.0456 9.21726 9.13198C9.00873 9.21835 8.81925 9.34496 8.65965 9.50456L2.71875 15.4455ZM16.2188 11.8045L17.2142 10.8091C17.5595 10.4638 17.9695 10.1899 18.4206 10.003C18.8718 9.81608 19.3554 9.71989 19.8438 9.71989C20.3321 9.71989 20.8157 9.81608 21.2669 10.003C21.718 10.1899 22.128 10.4638 22.4733 10.8091L24.2812 12.617V3.25C24.2812 3.03451 24.1956 2.82785 24.0433 2.67548C23.8909 2.5231 23.6842 2.4375 23.4688 2.4375H3.53125C3.31576 2.4375 3.1091 2.5231 2.95673 2.67548C2.80435 2.82785 2.71875 3.03451 2.71875 3.25V12.617L7.24543 8.09036C7.59075 7.74503 8.00071 7.47111 8.45189 7.28422C8.90307 7.09733 9.38664 7.00114 9.875 7.00114C10.3634 7.00114 10.8469 7.09733 11.2981 7.28422C11.7493 7.47111 12.1593 7.74503 12.5046 8.09036L16.2188 11.8045ZM15.1912 4.94124C15.4637 4.66872 15.8334 4.51562 16.2188 4.51562C16.6041 4.51562 16.9738 4.66872 17.2463 4.94124C17.5188 5.21375 17.6719 5.58336 17.6719 5.96875C17.6719 6.35414 17.5188 6.72375 17.2463 6.99626C16.9737 7.26878 16.6041 7.42188 16.2188 7.42188C15.8334 7.42188 15.4638 7.26878 15.1912 6.99626C14.9187 6.72375 14.7656 6.35414 14.7656 5.96875C14.7656 5.58336 14.9187 5.21375 15.1912 4.94124Z" fill="#0D3789"/>
</svg>
