<svg width="24" height="33" viewBox="0 0 24 33" fill="none" xmlns="http://www.w3.org/2000/svg">
<path d="M11.55 15.675C10.456 15.675 9.40677 15.2404 8.63318 14.4668C7.8596 13.6932 7.425 12.644 7.425 11.55C7.425 10.456 7.8596 9.40677 8.63318 8.63318C9.40677 7.8596 10.456 7.425 11.55 7.425C12.644 7.425 13.6932 7.8596 14.4668 8.63318C15.2404 9.40677 15.675 10.456 15.675 11.55C15.675 12.0917 15.5683 12.6281 15.361 13.1286C15.1537 13.629 14.8499 14.0838 14.4668 14.4668C14.0838 14.8499 13.629 15.1537 13.1286 15.361C12.6281 15.5683 12.0917 15.675 11.55 15.675ZM11.55 0C8.48675 0 5.54896 1.21687 3.38292 3.38292C1.21687 5.54896 0 8.48675 0 11.55C0 20.2125 11.55 33 11.55 33C11.55 33 23.1 20.2125 23.1 11.55C23.1 8.48675 21.8831 5.54896 19.7171 3.38292C17.551 1.21687 14.6132 0 11.55 0Z" fill="black"/>
</svg>
