<svg width="6" height="9" viewBox="0 0 6 9" fill="none" xmlns="http://www.w3.org/2000/svg">
<path d="M0.22944 0.198104C0.08253 0.324988 4.5511e-07 0.497056 4.47268e-07 0.676471C4.39425e-07 0.855885 0.08253 1.02795 0.22944 1.15484L4.10846 4.50408L0.229439 7.85333C0.0866929 7.98094 0.00770629 8.15186 0.00949203 8.32926C0.0112773 8.50667 0.0936919 8.67637 0.238985 8.80182C0.384278 8.92727 0.580825 8.99843 0.786294 8.99997C0.991761 9.00152 1.18971 8.93332 1.33751 8.81007L5.77056 4.98245C5.91747 4.85557 6 4.6835 6 4.50408C6 4.32467 5.91747 4.1526 5.77056 4.02572L1.33751 0.198104C1.19055 0.0712578 0.991267 -2.18939e-07 0.783473 -2.28022e-07C0.57568 -2.37105e-07 0.376394 0.0712578 0.22944 0.198104Z" fill="#133C8B"/>
</svg>
