<svg width="70" height="70" viewBox="0 0 70 70" fill="none" xmlns="http://www.w3.org/2000/svg">
<path d="M0 10.0875V59.9124H70V58.3845V10.0875H0ZM3.05676 28.1287H10.5388V44.3224H3.05676V28.1287ZM33.4724 43.878C31.595 43.5585 29.9175 42.6677 28.6236 41.3752C26.9892 39.7398 25.9827 37.4947 25.9824 35C25.9829 32.5043 26.9892 30.2602 28.6236 28.6237C29.9176 27.3312 31.5952 26.4414 33.4724 26.1209V43.878ZM22.9255 35C22.9261 41.1499 27.5264 46.2145 33.4724 46.9673V56.8546H3.05676V47.3791H13.5956V25.0719H3.05676V13.1443H33.4719L33.4724 23.0329C27.5259 23.7876 22.9261 28.85 22.9255 35ZM66.9434 44.3224H59.4613V28.1287H66.9434V44.3224ZM66.9434 25.0719H56.404V47.3791H66.9434V56.8546H36.5292L36.5287 46.9673C42.4747 46.2135 47.074 41.1499 47.0751 35C47.074 28.85 42.4743 23.7877 36.5287 23.0327L36.5281 13.1441H66.9434V25.0719ZM36.5287 43.878V26.1209C38.4061 26.4415 40.0831 27.3313 41.3766 28.6237C43.011 30.2601 44.0174 32.5043 44.0178 35C44.0173 37.4947 43.011 39.7398 41.3766 41.3752C40.0829 42.6677 38.4059 43.5574 36.5287 43.878Z" fill="white"/>
</svg>
